<mxfile host="65bd71144e">
    <diagram id="Z5k0m_BDG0yuSpXYyuj3" name="Page-1">
        <mxGraphModel dx="1213" dy="142" grid="1" gridSize="10" guides="1" tooltips="1" connect="1" arrows="1" fold="1" page="1" pageScale="1" pageWidth="1100" pageHeight="850" math="0" shadow="0">
            <root>
                <mxCell id="0"/>
                <mxCell id="1" parent="0"/>
                <mxCell id="2" value="1. when u need to make array while memoization and size of array is to be set" style="text;html=1;align=center;verticalAlign=middle;resizable=0;points=[];autosize=1;strokeColor=none;fillColor=none;" vertex="1" parent="1">
                    <mxGeometry x="-10" width="440" height="30" as="geometry"/>
                </mxCell>
                <mxCell id="4" value="&lt;div&gt;&lt;span style=&quot;&quot;&gt;&lt;span style=&quot;&quot;&gt;&#9;&lt;/span&gt;bool geeker(int n,int x,int y,int geek,vector&amp;lt;vector&amp;lt;int&amp;gt;&amp;gt;&amp;amp;dp){&lt;/span&gt;&lt;/div&gt;&lt;div&gt;&lt;span style=&quot;&quot;&gt;&lt;span style=&quot;&quot;&gt;&#9;&lt;/span&gt;&amp;nbsp; &amp;nbsp;&amp;nbsp;&lt;/span&gt;&lt;/div&gt;&lt;div&gt;&lt;span style=&quot;&quot;&gt;&lt;span style=&quot;&quot;&gt;&#9;&lt;/span&gt;&amp;nbsp; &amp;nbsp; cout&amp;lt;&amp;lt;&quot;upar&quot;&amp;lt;&amp;lt;n&amp;lt;&amp;lt;geek&amp;lt;&amp;lt;endl;&lt;/span&gt;&lt;/div&gt;&lt;div&gt;&lt;span style=&quot;&quot;&gt;&lt;span style=&quot;&quot;&gt;&#9;&lt;/span&gt;&amp;nbsp; &amp;nbsp;&amp;nbsp;&lt;/span&gt;&lt;/div&gt;&lt;div&gt;&lt;span style=&quot;&quot;&gt;&lt;span style=&quot;&quot;&gt;&#9;&lt;/span&gt;&amp;nbsp; &amp;nbsp; if(n==0 &amp;amp;&amp;amp; geek==1){return true;}&lt;/span&gt;&lt;/div&gt;&lt;div&gt;&lt;span style=&quot;&quot;&gt;&lt;span style=&quot;&quot;&gt;&#9;&lt;/span&gt;&amp;nbsp; &amp;nbsp; if(n&amp;lt;=0){return false;}&lt;/span&gt;&lt;/div&gt;&lt;div&gt;&lt;span style=&quot;&quot;&gt;&lt;span style=&quot;&quot;&gt;&#9;&lt;/span&gt;&amp;nbsp; &amp;nbsp;&amp;nbsp;&lt;/span&gt;&lt;/div&gt;&lt;div&gt;&lt;span style=&quot;&quot;&gt;&lt;span style=&quot;&quot;&gt;&#9;&lt;/span&gt;&amp;nbsp; &amp;nbsp; if(dp[n][geek]!=-1){return dp[n][geek];}&lt;/span&gt;&lt;/div&gt;&lt;div&gt;&lt;span style=&quot;&quot;&gt;&lt;span style=&quot;&quot;&gt;&#9;&lt;/span&gt;&amp;nbsp; &amp;nbsp;&amp;nbsp;&lt;/span&gt;&lt;/div&gt;&lt;div&gt;&lt;span style=&quot;&quot;&gt;&lt;span style=&quot;&quot;&gt;&#9;&lt;/span&gt;&amp;nbsp; &amp;nbsp; bool op1=geeker(n-x,x,y,geek^1,dp);&lt;/span&gt;&lt;/div&gt;&lt;div&gt;&lt;span style=&quot;&quot;&gt;&lt;span style=&quot;&quot;&gt;&#9;&lt;/span&gt;&amp;nbsp; &amp;nbsp; bool op2=geeker(n-y,x,y,geek^1,dp);&lt;/span&gt;&lt;/div&gt;&lt;div&gt;&lt;span style=&quot;&quot;&gt;&lt;span style=&quot;&quot;&gt;&#9;&lt;/span&gt;&amp;nbsp; &amp;nbsp; bool op3=geeker(n-1,x,y,geek^1,dp);&lt;/span&gt;&lt;/div&gt;&lt;div&gt;&lt;span style=&quot;&quot;&gt;&lt;span style=&quot;&quot;&gt;&#9;&lt;/span&gt;&amp;nbsp; &amp;nbsp;&amp;nbsp;&lt;/span&gt;&lt;/div&gt;&lt;div&gt;&lt;span style=&quot;&quot;&gt;&lt;span style=&quot;&quot;&gt;&#9;&lt;/span&gt;&amp;nbsp; &amp;nbsp;&amp;nbsp;&lt;/span&gt;&lt;/div&gt;&lt;div&gt;&lt;span style=&quot;&quot;&gt;&lt;span style=&quot;&quot;&gt;&#9;&lt;/span&gt;&amp;nbsp; &amp;nbsp;&amp;nbsp;&lt;/span&gt;&lt;/div&gt;&lt;div&gt;&lt;span style=&quot;&quot;&gt;&lt;span style=&quot;&quot;&gt;&#9;&lt;/span&gt;&amp;nbsp; &amp;nbsp; cout&amp;lt;&amp;lt;&quot;niche&quot;&amp;lt;&amp;lt;op1&amp;lt;&amp;lt;&quot; &quot;&amp;lt;&amp;lt;op2&amp;lt;&amp;lt;&quot; &quot;&amp;lt;&amp;lt;op3&amp;lt;&amp;lt;&quot; &quot;&amp;lt;&amp;lt;geek&amp;lt;&amp;lt;endl;&lt;/span&gt;&lt;/div&gt;&lt;div&gt;&lt;span style=&quot;&quot;&gt;&lt;span style=&quot;&quot;&gt;&#9;&lt;/span&gt;&amp;nbsp; &amp;nbsp;&amp;nbsp;&lt;/span&gt;&lt;/div&gt;&lt;div&gt;&lt;span style=&quot;&quot;&gt;&lt;span style=&quot;&quot;&gt;&#9;&lt;/span&gt;&amp;nbsp; &amp;nbsp;&amp;nbsp;&lt;/span&gt;&lt;/div&gt;&lt;div&gt;&lt;span style=&quot;&quot;&gt;&lt;span style=&quot;&quot;&gt;&#9;&lt;/span&gt;&amp;nbsp; &amp;nbsp; if(op1 || op2 || op3){return dp[n][geek]=true;}&lt;/span&gt;&lt;/div&gt;&lt;div&gt;&lt;span style=&quot;&quot;&gt;&lt;span style=&quot;&quot;&gt;&#9;&lt;/span&gt;&amp;nbsp; &amp;nbsp; return dp[n][geek]=false;&lt;/span&gt;&lt;/div&gt;&lt;div&gt;&lt;span style=&quot;&quot;&gt;&lt;span style=&quot;&quot;&gt;&#9;&lt;/span&gt;&amp;nbsp; &amp;nbsp;&amp;nbsp;&lt;/span&gt;&lt;/div&gt;&lt;div&gt;&lt;span style=&quot;&quot;&gt;&lt;span style=&quot;&quot;&gt;&#9;&lt;/span&gt;&amp;nbsp; &amp;nbsp;&amp;nbsp;&lt;/span&gt;&lt;/div&gt;&lt;div&gt;&lt;span style=&quot;&quot;&gt;&lt;span style=&quot;&quot;&gt;&#9;&lt;/span&gt;&amp;nbsp; &amp;nbsp;&amp;nbsp;&lt;/span&gt;&lt;/div&gt;&lt;div&gt;&lt;span style=&quot;&quot;&gt;&lt;span style=&quot;&quot;&gt;&#9;&lt;/span&gt;&amp;nbsp; &amp;nbsp;&amp;nbsp;&lt;/span&gt;&lt;/div&gt;&lt;div&gt;&lt;span style=&quot;&quot;&gt;&lt;span style=&quot;&quot;&gt;&#9;&lt;/span&gt;}&lt;/span&gt;&lt;/div&gt;" style="text;html=1;align=center;verticalAlign=middle;resizable=0;points=[];autosize=1;strokeColor=none;fillColor=none;" vertex="1" parent="1">
                    <mxGeometry x="-10" y="55" width="370" height="370" as="geometry"/>
                </mxCell>
                <mxCell id="7" value="" style="shape=stencil(lVzbkhU3DPyafXXZlq/PhPwHVUDYCmGphdz+PlK2PDvTOqcNbxvinvHYstRqyedB3nz79O7rh4ccv31/fvr9w9+P779/epBfHnJ+/PLpw/Pjd/3rQd4+yJuPT88ffnt++vPL+5f//vrORtpffzz9ZU/45wVXShjDUDn++/IvMcT6/z/8+jL+8+OX8/geYobxZZDxM7QO42e8P76m0K7PTyFNMl5CHzC+ZjK+hVhg/Ghk/Ajp+vwcMnl+iyEXGF87GZ9DEhg/yXyahHadj4SSyPgSZobxk42vYV6fX0Ih9tBaGNf9rWuBb4/voVUY34j9tBEkXsa3IOz5I/TrfDqfzwwJx3c+vlz3d4TC9muiPc+QhY+/rk+KIbENUwAYdNp9MZ6wHOLmDdctSBIi/+YKZ7KExIxorjNyAOra9ruAdgW0UIibMAAsa19f9aOAsdbtLgD2Qddts9PgKWLofEp9XgEpdP6Gef0GdS7MuHt0zkjolBRQrqah7qKS46yADm+o1L/0hOdTHUBmb0gYcPREJ7JxPa8DeQIMNqW8ItgBGDTmdFmGcAAmPQ+9BGkIGGwfakjXKUnky1rDuBqfpPWI24CGZ1oBnX10X3HpAGS+cSPkiYBBQmefGJpFQiXfMNS8r8sq6pfIeRgp5I4AdoBGRq8h6siIbx0ajScCBlnWUUO92pJoQCROYHRnGo3a0hh4gKSvhb4JmEp5EgIK2biZ1iKeAI147ynLck4AxtqmYzEyKK2dHQOKvoHxVHuDuCmRnZ7FWeugYXfmIA5QGSAtZnoCTGKt03FVmZTMjLkmcJBDzRa4Lc2OgEp2ehye9AAkyrcVEAcCBrFWPQ/tutMlUyagAHDGRSg5UQDsgyZZbKftiDYEsLCrgHg1vlJXIL4NaOu4HIBGWaUCIM1QAPVLzZlGp4xMAXJ1lWUs9nEPAAeoHFz/HgBSVU1G6SpVXKUa+cbVdeRPAJbt3QDwsGsAQQA9QP4bMiXrBpgIqCzG1ZVAHgDZrRK4yrqJ0x5QlsH/OGCzD5AV18qZQEXOpwDKBKrLi9XgN6bREDCZIzuIwgE4cut7AMgf6qC5tAHgGyZ39xUDuwJYYDfAdeNaXN72Bz+68WzXnEBDAJ3SsU0HIPNVaosHnwDzpxhZE8qXxuFJT4DJvqGjqNcKD+wDY5wCGPdWAL6hLq58jzqAu1cA3YeJwl5r1FVOx+4V0Dj9gZDVNHIzkhjdTvfFb+4CwJY0ZDEKF1GbMVmB2JJ99NU0LCVncdrpsZowU780V/Z8APLaynumUa473bd8CbyG5r9M8x1Og9Z0lsa4hjJFPwLAXb8Eb2iU3SsgXm1J81+208OlA5r/0sCuORB8w6Sqg+aikLyOyOlPwnTgNf+9l09Dxq7vjCzFn5jSKIBKLQOdsS4DI+umOlydgC40+wbd1x4RQFWHihm77n1holrFnX4lpnfVH0FAI7ak5wtyIEtBNhrZRABzZOpUcOMG5Rrq50BfsgDABNqObmZudO+Kq2Telr1BUDnRhJltnBKFcv3oyam0kp3SEcAkYCVsID1OWUHsNqCgTKGAxgAJWaXpEOQAaYoUHYClA5ZIdgQw1aE4MWdyjawcEe0EYOmxyU+wrJw6SEHzVgBjZJIwxs1GBamsjgy+gXON7ALK5Ow+J9Q15qDOOI2QHYBxjVQx7CpgkBOXMvqlOWlgP1zEaTzbBld7nDzdiKu0usanyPWriGRJX8CItyuH2HhiFo692Xg6n1hx/CBbdnzdaXwnRnTr+Y1sQMTQNicNz/HGBjPnErEYOieVQOPyPOfxZD7J+V/+fB8RjjLhnfHeflgRMWHOszHotJT88/6S/UpIa81+6Pwx3EzKm5OLyZPyioTBZn8g+88Cij9h1KKzszj2xfp293wWCKJz60eee2+82zEW+1wFd2NxcYXes0XT+XuL4Cdy+BNM5/9z4xtWGXU8i6vjRsiIzEL9ERi0fJYKZiAWVhmgY3VYAaw6bKcGAJ3ahLXwOC7BkqLcMSmajSZFEp0j2hAoQWVEAYytSHOusdIEWya6CqOZ5CRYGQiCR6E6ntVcJgLY2Smuwm1knKxSdf5R6T4ruldxAUfWO28DXFFFUxZW56meyGbK3psTCaz8y7qHMsoQCmBJUSuO5URKZFt1OT8Pg5qcgpc0VWzThQYp/KBtet3FhcH1I1PtHIDVSHp2ykijGbmpdgCoVAPrBdmUAjLZuF6xF3MUSne6K9sMns32hrWqIVys6VhJGpm3uQxMsEdaXVf3NDAoASqAlp4iljxMd2OFIdde0Td1z4znQb+KNfXqIlandjKWYSIcvKHRZTUR7rqsvdJMx0Q40LULJXpWTq4IoKXYhjFOT0jmZX3IdjrvgBodyY+dct5eAa6yb8pnAxOYthGRnZhvro1Z60B1RwG0QNexRcS8La+GVVcYYsKf78dQAAuK1ssABbrKC9YNvXfbFCQqskoNYrQJpaJvVQBt4ChYsDb9kxlfccsqvOheMFXSyE1LT4K+tSWqRgzHZqzYy0xDsP1uV04WbNrdFayd59uVxAVtaVd0F4zTu7K+oDy6axwQTAd2rQmC8uiu+cFRh117hWB1eNfAcQtArdUDNk0ogqWnXZuLoPi3a6QRlKmtVWez0zClxM+0YDedZRQb84YWkUgFLjuiV0DhiqcChgPQcnJxDX6Ddr2bX3IAlloqAJbVWtf4lECWLI2KOMZmEgKoIyuoVGuyKbwZKMI3cCqtgART2vSUVNSqrZCzYWRX49MMm0lFvnuoJL6sDcW3sjHvhhm71ZZ4qw4E9ldZ4R4AZAqZ9PaBNdJAxzjn3lYWhX7uTk/ca5XzBKA9JRl7exSQWSNNwes7wi9dTafaCQ9Zpoi5FnO206+q4QnADtBJRz5tBBNnpqufyaDFklnR3wv3ZFPw/o7wO0gzY5ATfjvN+o0KAqh8OrDCIrxzYHTXY75JFau7aNJ5N5Cgr5TGu6czRnZpdKd9Bi6VN2RM5HBSKXewuy/uogmjZL0j+RauDHbX1qgAdoI03wbuIJk2dPeCKoIkWh7uTrdTANWLBO+CSuTdQHlt0wLkycWZhCmKXddk35BQ3cyDNh1qgg6N9bnTdonuasSZn4c2kZLtrsxOdwGOp7ua0eMFuMLvRg5sa8zcWhUAMctuLjIN2MkOOfF7vMNddYxUcDUZ4/oNu/udHrC5QTqQbOzuqA48QLtbsB1713b3bDveo9rd5O0YsnZ3hTtKutY1wlapozJo9535lKDUlCK9aGJX1KFcRqtlplddv5lfB9XxUNXpq1nu9viGQbrzekhzjdD8OLsrhZXeoGrFXQugsmZzdxz5JUrTnSCXoZzEfkIBwgKtU7To+C3Vrar7iQChBlfdda5M+Uh1l3d5g3XNSEf4/f3qumgS/ckFy69xPOMixd1RijTIFsFOtcg7DJ3sEak92/W8DONZzec1j30dT7/XdWJH6kRvPZ8lzrfmz877rfWhLZ431p/+5IuTbCL10OW4VH0az+ZTUDjbjgd73s7n537iZjte/3j9PZ2Pj58/v/wcz/n/4+/v6D+9/HaPvP0P);lineShape=1;" vertex="1" parent="1">
                    <mxGeometry x="321.40947261613746" y="42.00972510666759" width="102.43055784395612" height="366.728628787912" as="geometry"/>
                </mxCell>
                <mxCell id="8" value="" style="shape=stencil(lVlJchsxDHyNriiS4Iaz4/zDVZZjVRzLJTvb7wNGRVkENT3STQt6QBBbA7Phu/fnh7ftJrj3j8P++/b37vHjecNfNiHsXp+3h92Hftrw/YbvnvaH7bfD/ufr4/H720OTbJ9+7H+1J/w54hwxN1Bwf/sPPvz/4etR/GX3eibuKcogHikAcaaaBnGhkpbFC7kwiPtMpS7LC6Xx8CHA5/vQH9cBrOYCBao/j/ZypcDLAL2+OpoQMyVwpJDIxwGQIkkBAKHsBkBmikADR3urxUOjm4llBBSqeRkQA3EeADWQRADIFEfH1UwCjpQ0TEfHiaPgASB2E0+A0CP9MqDaWxLuF30RkD2V8ZZEdQI/5EQxWAADo3MlSRYQAaCoiZOGBNKzJAp1AgDHaSDIrAEAqrppsgHlg0aOnzUgAFPhmwCacbcBcs+vawGF8m0aKpV8E0BsmWnBB6qGpksdC5mGd0AA3zP4LIE8SCD924aGIwEJpAeopghoaQPRqibm0Q8VF2PRjDN1KcMEktyLygmgfgBlRgFiANpiBABKT8gTwGMNWpfGFNWUgn6Y+kPJ5JEftCd7C3DIDxp8E4BBtCpAzJG0068ARscVvQbQgbxz5IwK6ZXnWoReLCqW86HUdQV7wphdMT2ZL1aLW0RJOrlOARXbkCdAARergDQBGEeTbe0B55wQF3utEWtgUwY0I7ANPEUTrEzSD3AWrwV0uQYYk1QzYsUPqVgA4jPNcRPArWT1dCSPKpMG36QBkm+xHUJvKWMNItYPFVzr5RxdqWViqqUnxp4zXauFKwbU0WpNiICjryQLWAmmGwG1O/YEKDiDim0R2khXANYPAkcI7Ys8lg1ZKa6p850zuhGQ0ZGKoRunYXORbhium8ghDaHPYSdA7vx6kTIZDdrtUWgoQTI8sfaCvkj7DCnDlGkmlmc5dSV3XUVM9HgVMTHwVcRE8lcR0xyxiphGlTXEhWnoVOKunbdWAPNEJ3A70GbGKUIEkJQLU6l0Xr4492YLQINym6ydBSAy12Z3o6HATtS2A6Z4pD4qLO4fzJFCpy2LGw5Dgyqc3dsOxfQV7r6/DOCJ8ubO1Zb2QGb5pb6vaHGk5W6sZ9lRRBqcbUQpwHzw2bLLyLCetX3c6AdWx8GFXxyjO+g9g/zJtsCGAE1ma7FPkID7KfBgdjq7lMpwDHK2TCbI1Z2dFBNsV653v89VLmIZKm5828NpSdx4FvKwSTzAmuKmRXFv7kvixq2QW6j4yKdcD9MlN0UjjiYkbTPOiKNq6Dq7PBOHT79pn78qrh8+Xx087V5ejm8ezv+3rxr0p+NrCr7/Bw==);lineShape=1;" vertex="1" parent="1">
                    <mxGeometry x="423.1910226239579" y="183.0125079936186" width="142.47220810919873" height="11.835896547583777" as="geometry"/>
                </mxCell>
                <mxCell id="9" value="" style="shape=stencil(lZjbbtswDIafJrcEJerE6657jwJN12BdU6TZ6e1HL5Bj0fFf9C619VUU+fMg7+Tu/fnhbb+L/H4+Hb/vfx8ez887+bKL8fD6vD8dzvZrJ/c7uXs6nvbfTsefr4+Xv98eppXTrx/HX9N/+HPhhGKZoMh/Lw+YUv7/4Otl+cvhdbE8BKp1WF8pyfb6GInzsD4I1QIAJXFApdK2AamU2wDEQK1uA6lQkBHIVACQExUHKIWwDZRIJQ6ABNIIgEY67iBCOW0DNVFwOyQSBkCjnD2QwRlaJK0rAJjULA4rkyo4tM5hmoFMCcRBLUyjVi32DKShdmgdgMQUkLqZiXkkzNPg1KrUHNCoAX2bTTzK1eTFwCadDZgBhfpuzQeiZKogRy3UYTxDDSRgh2qBCCNQYI4W7eLsQAuUgFuLdANmIMMMytXXpaakICFyoDK6VYUKAJJVyjGDLPYFnCHF7pMFoCDlDOBR3ws93iZmLy62aAoA7q8XQAaRMyAVDwQgJgPiqI0pC0FCTCnpdqikICEMkOABwUBxkSvU0BmCTzkDkFwNqOKBCORqoZayAlCkrRyvAEGBE0rNAxWdQahl79aIAKtbyQPQrQaMhcmkgYaNyaSxbJj4GO1ghw4eQF3O3NpWOdpwUsfqAUUZt64ziuUdfBUwoCJpsO9yBkRcBGLzcUAz2bVrLgDUR6cdVtJAw8N0BieNgt3KN/IhY5M+CWj3yQxwnz9ud5Tspz4biVBnL8GPAk2IQd8txY+JNtYl4KUqfpyxJ0hLVXsVmmeHRoJmh+xnBxt+Kzh0Uz/1WeuOYAeNvajMQIQmTQOTm/par7ZbgLtyXHv9bYB9qTR1ocCZEJxbRbuRWyOZq3xiKQrKvQnB79DgMG1CSKthGo0OJgR3kxNrKAgIvbgv5nsGQBbf2CV+1IHKGOnYoElmgCsCMcFibLdbf/VjGAd77XI64FnDJuOxUoZ5vLm5nvudavZRj+PGclG3HN1cV4Xekhkudw09wrxZXa4C9CX70mK3EjBTrcZChhcA9ncYhh0qeNsZHnWlfVwg5s8Di+XA9kjJG8PA9thvpNflqPh88pPQh8vtx/Xr09Ph5eXy8Wr53n+tskeXL11y/w8=);lineShape=1;" vertex="1" parent="1">
                    <mxGeometry x="555.7165262534731" y="186.09266223002157" width="19.118757453448602" height="19.558677936982846" as="geometry"/>
                </mxCell>
                <mxCell id="10" value="code dekhke kuch nahi samjega&lt;br&gt;islie tree bana lo&amp;nbsp;&lt;br&gt;and fit all tree indexes apart from base case&lt;br&gt;i repeat&lt;br&gt;fit all tree indexes apart from base case" style="text;html=1;align=center;verticalAlign=middle;resizable=0;points=[];autosize=1;strokeColor=none;fillColor=none;" vertex="1" parent="1">
                    <mxGeometry x="580" y="140" width="260" height="90" as="geometry"/>
                </mxCell>
                <mxCell id="11" value="" style="shape=stencil(lVjLkhoxDPyauar8ln3ebP5jq5YNVAhsseT195FrMgRLoQduw9BtS7KklmeKTx/bl/fNFNzH+XT8uvm5ez1vp/hpCmF32G5Ou7M8TfF5ik9vx9Pmy+n4/fA6/35/6cj+9O34o6/wa+Y5qq6Tgvu9vHDzi88zfL87XMEjtTTAPRUA9458HvCBmAGeqY3mRCr+Nl7+jnXAJ+q/buIb1ajwpQB3iw5PotZu41Ok1AZ8hvakRoUVPoL1s2yfFT6D+ORGSePReRWxP2g8iE9hclXhGdjDjljHhxPAJ8pR40H+cKWg48kgnjWQ0+tXEJ8qy2l/K/C3NopJ40E+tGjth/hGoah6Qfkp+Dzmc6EE/BX83+O81LtUHDgAIdTRAakYXyGhjYTIVIAL3l061CVGYam6m1uMRdDTNmInxirgBtNICGU8Zjn4hM9N1VmTysYm+THxGq6cVrXTzRNnSOCRUCPOjbq05kuUPGVski5mpvQQIQXK2AdlUqhrOyinfaGMTtqEVToO2sCcW1oq9s7EyORwvanME8nNuN5UboviI4my1RMDNbDDfwo0MeWVLcYeUAJFTFBdhvMi7Hf2sVqoYIJqlNKakXLaTtwKOSANjxOMNjTcWq34rBGMunXCQ/IphACiZPW5E9DAYAaATgAHZyeMhivOjjCdAJy2M5IQIugBdggTAuqsdsrrBDR2mjFSCGhutnOqEBikhh2ERX9QttpJWwgoSnaUbxmaZO8KUkBoeLaXkcYwl8xlR7o/Ojdzl7pqhTcISq664gF9c5RsMQB1cLraKsOxRAI0OsxrDjszWDEIqJ3cpOVBe7SQxEUp7rNHpArHR/kr11mk/iaeXuYRuH4ytxcYHpUOfmkc96XbWrKtwOXh31eCt91+P39kuP5ff1WQV/MXifj8Bw==);lineShape=1;" vertex="1" parent="1">
                    <mxGeometry x="855.5020399057953" y="184.25096034446602" width="45.345259683978924" height="0.7303673024994022" as="geometry"/>
                </mxCell>
                <mxCell id="12" value="" style="shape=stencil(lVfLctswDPwaXTEkwOc5Tf8jM3FqT10747ivvy9UjRyBlNbjmyztmgB2CZCDPH3sX953A7uP6+X8fff78HrdD/JlYD6c9rvL4apPgzwP8vR2vuy+Xc4/T6/T7/eXETk+/Tj/Gv/hz8STRCmMLHZ/pzeeQv3/4uuEPx5OC3yMVLLFC7myTciBghgCB6ppm1ACRWcIwlTzNqFqANEQguYAQqqFiiVER563Cd45cjamWEk8WCKS94aQCokDWasO1RByIgaEzJSsEEXIg7rGboWSqQKpVdhmhVopAiG8awmLwq0nQTG1K1QgRFiJSMI2noltyiq9yDZeEygWn6gCJ3W2UN1DRHixe0G9W5AElBo8UwAKCOWmPh7mmyhal1ZHEcRT568LPPp/ryZN3QKgoF7r57sMwEbzvYUYSuBL28BGDZCrKzF3IqOkC0XbXkYXgZ3pb5+XNkVJh06HinXwlF1LqGCF0i5wbyfHlYiQ0NLtnEIZpTw36Bs+UwA1dW3/VdHQEOnxOrdAvhpPEz/DzsVzH1n4OoF4YuchRxnU81F80PLZuZ8rFUBIWqFuQAnoFdnNBb8RPGwuuZC3OaQ4b+51kzJlu290KgcgghJqM8YZTjQNKdocQiQHBo6m6GxIkuc362XltmVrk82AEKTdytpv0IlNtxrbkG7Sr+N5zvAmw+ytdbwnttZW1UAvUryzQy3Ahj3+vzWekACjjvHbfJkEaDzWx8aPT4/j8dUK4KBgWr7S4hnhy3wk+MSjziu+Pf7ewesxUR6IR2LrBzdbdh3/4I3iPl4fPq8vb4fjcbr9LL+31x19NV2V5Pkf);lineShape=1;" vertex="1" parent="1">
                    <mxGeometry x="895.1285113443969" y="179.80337690988114" width="5.387069519780022" height="10.691845629515507" as="geometry"/>
                </mxCell>
                <mxCell id="13" value="" style="shape=stencil(rVfbbtswDP2avBISdaH03HX/UaDpEixrijS7/f3oGXItKj5dgb05MY8lkoeH5C7cvR4eXvY7dq/Xy/nr/ufx8XrYhU875uPzYX85XvVpF+534e7pfNl/uZy/Pz/Ov18eJsvp6dv5x/SFXzOuCkmdUOx+z/8ECvL3j8+z/en4vLIvjiR29kKet+1zJi+dvfdU3TYgZcqpByQqYRsQEyXuAOzJ1W1AiCT9lThTTdsATsQmRoFi3AZ4oZI7QHRUgNOeiV0PKJQ9SAMV39lr2DxwQSiUzj4HSgXZS++AOEogCbXldLHXNCKHlWV9SAtDHmlIa+9B0RMySFog6XlUasv7bYD60NOiKlPBCUEstasGFQA05iYLNVFGxZPIOQtAPmi1xb4WqvICMDULxWoBGRAjF/I981RBAjpBAeaEQg5QVa9kFEYBgk7IrbYWQKWAwxqLBQi6UrD0VkBFUdJ6jgMAJc41Mq+vBJxOtUV97TRQjFQo+iGsIEpJhnrQxKEr6WsDUGoA0VBAHskHopSqVe6J3uCE7AfyvVNATIUtAAlxjhRlAIDuo+SrgwhUBFCZKdbpiMgnTbZWefDIh0LMFlAQQFq/XFEjoYobpbJiXUrDCZUyynRsHXldcQjAdvDxzjW5/U+IwDcqgkGueWkgCyDCHuRzayDrpgUI7p3laxEsZU2sV40axZXthURaEG7aO9sTddJABedsS5y6KhocKJlJSedFoPXJpiwK1CQNqKm2UOGo5HV265kaPAmKqOp07wIrKUDx6AWkj9F0JtJV31R0AWhQ0STj2+uFdq3h3R4ns+0lkRz4vg5StXfZtQH5tn2kkow9mjFUckd79P38we8PW5XeH5Ba5dNUjZYp+n61G4mDbW0aJvp8ebgurITtDZBgFQwAxhEdbsRtdP1HjxluVGNEA9wvProHv2+vD29L99PxdJp39vV7u6TrX/OCH+7/AA==);lineShape=1;" vertex="1" parent="1">
                    <mxGeometry x="965.0639671754843" y="83.89987697005174" width="4.9602357962391" height="11.609858293664523" as="geometry"/>
                </mxCell>
                <mxCell id="14" value="" style="shape=stencil(lVjZUhtBDPwav6o0h+Z4JuQ/qMIEVwimDLn+Ptq4Zr3Seht4M0trZnS01DO7dPP6ePey30V+fTsdv+9/H+7fHnfpyy7Gw/Pj/nR401+7dLtLNw/H0/7b6fjz+f7898vdhJx+/Tj+mlb4c7brQjlNVpH/nr8Ephr/f/l6Nng6PC8MWqZiDRqJbONrJY4GX6kEgI+UgsOnso0vZRz3gmcG+ECFDb5QB+eRQi17fNrG50ZJ/PlBfHKiaM/TSYC/mSlaf0OiBhxOjYJ1IAbq2KDYHdRlacCgU7UupIB9zlRtjnXPCAxET2yDmiM1kAXNmnNa92xgh8Ik1uk8J/66gfKgWINOGRVeo2x3EPUBMK1qEC3TREsbHKkmT50SiUHiavZHKpWkQoNWbXFH6siHRN1GqSo/UFi7z3RLo7quG+i/uzWokKAiJDZKXQMNdshC3dZST5hAZQRxNhCqgNMx+0x3bRogrNozrM+BGXa9OII+b9BHYq7iA+UVvgD6sCe04gPoqtrEHF7LoiM8sw8QKlSm4PA6JkBRKPsdXpMO1g8UisejKaU8dP5mGP/oWaB41O/mgvzg+tqAZXV+1IAph1V8wPoyOtsy/qCgZVB2mV94Hjf0p/oB+RKKbv1ODOotr+pB6x+0rTQ0zZJf4PxxsOmjBA6jfBcbVNDaeRXQPobDBt6pFg0ocpjHJFokDM1Xxa8SzPg8bv0yWsaWv6sCFXD+sGpYQgwKKHrVOxESrP9pfBr1OxtE6HBSgjdrwO8JTVejbVaG1zmzalpNRtu7btD83Gu6BNLu0U/W2mEWVOy7vq4CIyNZJ1TspFQZhtSByrpqfdAvAvKg94nmVFqDPqg0zXZ2SIKzTIJv7voFOZ0rReuDStOA7izRSyIVv6iWUvXtRZeouFrdLWdS/MggDDE9G6haRpcQHqU231rqaPrXGde9xplUDJJ1TNmprgzFr544WYM+OHsdr1PKnmhWnluMZptnlSVgqMnqao1njlSvuhiWkVKhR4dPCF99jnl0za3LhHtKCKOqtp4eHHECnJna3twQiXAG6khyt6E82tN1fB23gAsesazPLysXfAWNQke8IxkWdZOmsSOkEGO8U6UFitKFplm8/aCAdt9L2+DoFt5fUyiABGtAm5Pt1EATUnxwBcdQRfVV51WDd0ooFW+AavTT73UfMNAfl+fBh8PT0/l1cfl//5yon85Pken2Hw==);lineShape=1;" vertex="1" parent="1">
                    <mxGeometry x="973.8895807328026" y="86.5922741157755" width="7.746823627381011" height="8.86277128255357" as="geometry"/>
                </mxCell>
                <mxCell id="15" value="" style="shape=stencil(lVbLctswDPwaXTEkQQLkOU3/IzNxak/dOOM4ffx94Sp0RMjeTm4ShRWx3AXAie9etw8vmymF19Px8H3za/d42k78ZUpp97zdHHcne5r4fuK7p8Nx8+14eHt+nN9fHs6R56cfh5/nP/yecVyI8xmVwp95JZGWfwtf5/j97nkRX4RUh/hYKbbbAKlURwBnqvk2QAuVEZALSb0NqEw6UihKBXCoze+gAabUGrUR0Aq1BAGaRoBSDACgpDICKqUIAJk4jIBGEaRkpN8PcQFQQLpmynFUOgQKgIQ2CslvUYFymimscspoh9A5Lo6pIPeZE7IXAnlDhMTtIMSAg+2Qi/cGUk7MTC6lTFEAae7mvAC4F+11QCXlEZCgv03qGD1AgQ5mprwCNFRBprR6DgUBlCT6U8q4RkW8DoVvAxZuXkitqOYqiQMoVaCcZeABFTeaSLyqoPdedV0IobRqAw31vkDaVgDkPuOQPUBQjcZVZzLSeEIk9seKuqvVqPe3raAa/SzABoiOHIwV0qGEnvFlBplZACDHLtNlygnsZCzdzZc5KhSAW5MVtZvsobeqqwCbgWPFFYow3FVPhm0vUBqzYUrAdnbcYzKJGCTD/dJymVWw9oXqqJZxB3+PwU+RALOJufeRj/iAyLb+eREPSszoso+PwGxJ1/FoCPLKCrF76Xq89fLk4tHc/+yl8//x9vBxw33a7ffzBXn53d+IbWm+TfP9Xw==);lineShape=1;" vertex="1" parent="1">
                    <mxGeometry x="983.2058216770224" y="91.21100178033993" width="1.2559412188235333" height="5.748117608085935" as="geometry"/>
                </mxCell>
                <mxCell id="16" value="" style="shape=stencil(lVjLUhwxDPyavapsy5btM0n+gyqWsBXCUgt5/X3kbHkYyzNNuMHs9OjRUkv2gW9eHm6fj4fgXl4v52/HX6e714cDfzqEcHp6OF5Or/rXgT8f+Ob+fDl+vZx/PN1d/3++bW+2v76ff7Yv/L7igqfKDRXcn+sTXynWf0++XAGPp6cVwCdyeQAEoVoAIBC7AcCBUgYANwEKVbcPUIfT8H4UciCESqUO7yemnGAEfjQgHudI7RtAJQdypCykMACyUAA5CoX8SFsJJCBHLORH2orSJvuAmCjIAKiOUtwHpEhppK1il4R7iAuAyfE+IDuqyVrwwKWciUdAUe5BWjWJFpCoIkAm50eAowBKQx3IY1ozw27QrEscaymReGghjTEkoYRcEmtB+6eCtLYsjcRpdVVEXO7Vv2hGpgSKT5k2/RAcbGkJtlp9pAg6TlvejSKgsuNBDFG/Nwadu+xsN5zW3uiRwJD1czxWUqUawPuqWaMChEgFtJv+zIYElSlAswLimKLmIxKl2L+3AAoJipmnutD2QBY85TFJ7GBtt7IZLbCHGuMLcZwAIEuq9dlZlwQQpwPUEN0GEgIocWzTmhGAqYyl12oVxcC931el4UEtqUvJWIjd5l7QYphWJxEP2c5cBSCtV+KKiSH0J3ulYWMIUOvDMmxWLiUQg/4cnc0S4kF/Dkb2sNYrwOokVuJmwaS19Ce7MRiArlvIgirx1A+MRGAacApAMSjTdQy6tSjaQDMFthaQVGq15sklj1tUpp72gLiPA6S3y9s4yZiGbGY0BVB6jaSxQR2svLaSJ/O+AymN2QrAIuXb81n73yzpkAHJ0wLg+he2VwyxDLQUgyoq3FV61ZwBuKSLmIwucYQnpRr7gr0sYqmzsg0oNuiU8ChxC0tLGanSg+6s1R5lcoJKX9O0Qscug3tp8ubc4OEALd6WRpW+VG9THXrpLIDap/zeNpnModjh8k6+j46VCTSuop+OVwKHSdM4AwgU0WzwxGOadNGHM5r7gXChunYd3M6rXcay702+HYLlTRjq9nQI0CMm2kqm2n6nfbyd57qzo1VPBWDS7IwkhvK086Bea4ue0bDUz9S7dzHmEPPOGiY2Rc0muovJfVteARwCTBcTb2W1Dah252kW8L4wH/XgguHt1UfLElrDtJm95SHizTCaGKSvHHsAMcTlrrO749xZQEXdH/qmuQAKbOYPXwT+B0D/eLt3vD89Pl6vLde/23tKfXS94+TPfwE=);lineShape=1;" vertex="1" parent="1">
                    <mxGeometry x="989.4079020311069" y="87.73644838662673" width="5.548671823034635" height="7.191073108759321" as="geometry"/>
                </mxCell>
                <mxCell id="17" value="" style="shape=stencil(lVfZctswDPwav2JAgOdzmv5HZuLUnrp2xnF6/H2hehibkLSdvEnirohjAZAbfXjbPb1uN8Jvl/Pp+/bX/vmy2+iXjcj+uNue9xd72ujjRh9eTuftt/Pp/fh8fX99mpDT04/Tz+kPv6+8FCjKxBL+c/3C1NK/D1+v+MP+eIfPuS93fCEN6/hSKeqADwo3qIliGAmVUl0nNKGQB4JE4gIIhcq4gwbStk4IzMQ8MhqJwi1qHQixEIMtWvCEFCkDQlWSNhCykIK4FqE8+pAbVQGZDsSjScVyn9cJ0WIyxtWMLHGdoEq1jITWw7CciOR9aBUTIkkcCY0UaCNIz+sdoYCw2mrzeBSkQqHM8CDPpoLk8RUoTyjO7Em8jrdqDx7PIGfcZXyXgQgywBRcxgo1bE/yeCRroeTwmSqMZxGPT0AQhWT2/wj6XfOSnvDAfhOcsidkpNDoC98ihDI2FY16QkKETGEsfMtxAD7bDnVGQM3LfCizKhDQiyxKLXtCRj5wX76vM+BDJR7zfNf0Fwk2pmYWIWErhVkhZ1DINpJm/xdYOFJmOQA6mo20Kcnw/8nl2FQE7P8s3hz206PCk4Um3xqrwFKOHyeVj4GWerUup7j65pIrbL7T8qg6G6IJDWUr3dEkG/sBFMLk4rhDxP2uRq8LO7pE4HQNlEfhqRADkyyIecy01QajI2TzPTW0vucyQX1YreMIkEaSfrL5EB+0SDOVsRikN6g16TV1eDSkJqk6B3CvSDOHe7dZsz+5MzMx0KkWymN8uNfSMr71/n/DI38jd03e8AHYEy1fyeEZ5DdGP3Bwr55qJHt7EL56SXOf0st6Y39qtO4HivKzl67/4+3hdsN72R8O1wvi/bq/Edqn621SH/8C);lineShape=1;" vertex="1" parent="1">
                    <mxGeometry x="997.3261343093277" y="85.64008033134115" width="2.5365869133823833" height="11.4300426904336" as="geometry"/>
                </mxCell>
                <mxCell id="18" value="" style="shape=stencil(lVfZctswDPwavWII3nxO0//ITJxaU9fOOO7194WqoSqC0rp+k+UFiGMBrgb39HF8eT8M1nzcrpevh5/j6+04uE+DteP5eLiON3ka3PPgnt4u18OX6+X7+XX+/f4yIaenb5cfk4dfs10plPxkZc3v+Q2Tz39ffJ7xp/G8xkfypsF7igngLbFr8IVy3MfnTKH1z56mn7sGjmJsDeSEsm+QEpk2IpsoghNiIduWyEWKDhgYyqpGkQwIKTCV1iAECn7fwFttED0FcILzxK1BEhegDzZQCY1BNjAkzpS4NZBCA2aw65jBkEpyQBtR8TXG7apWbwteAgIZdF2T2ShgFKQeuSWeMWQMMnC5OwAQz5DtAkowINP5D6DHgmeNd/wY3oAGmNr/BZ9rif8z3wxJ3dczk4cNDh3ewfqk0uFh/UuHR7uUiYPGR1BPJhu7ekL/rusXg70l/jv+eNAv3uBnRCuismWFzyAeU2+K9bzAfsXW//2B9F1A+ADdgHsJcNcAVCCJ1j7SgCW7dYOx/45wiEDmQYLKQFqNRwMgA8kajwfsMXzo6h8owRtG5yviAiwgtuTVxAulAIHkklTaIwcoViQFRblU4M5yTuuzxHDpipTgdktHV8diT6xwK4eCJ4/0U3dveF835bbBssYXwYXlUIpVIi6SLlIAg5ktZaV6c1322wap2y0iX0DSpVvWi3zZxoeqQZec4egL80ubgal93MYXLQ4MVGeCt07jgTaYpEPReBR/qR1d4UGLp82p/cP6y2ZmhbfYf9F4WH/BJ4UP6C423bI2UMxNB+iEkRqd8PpD7g4h1O0qcgEX6LEPxbt4efj3Vfo2nk7zR+36f/0VK6/mL2D3/Ac=);lineShape=1;" vertex="1" parent="1">
                    <mxGeometry x="941.1738651162436" y="102.05467314308905" width="31.293617070021853" height="24.980014209633943" as="geometry"/>
                </mxCell>
                <mxCell id="19" value="" style="shape=stencil(nZjZctswDEW/Rq8Y7stzmv5HZuLUnrp2xnG6/H3BKrRJULqa9E1WeEISvBcANdmHt/3T624y6u16OX/f/To8X/eT/TIZczjtd5fDlZ8m+zjZh5fzZfftcn4/Pc+/X5/KyPL04/yz/IffM2c8ZV8oo/7MbxQl/e/F13n88XDqx3vbjXf1xeJ468mkbrxWZOI64CLZfgKdyLp1wDtK/Qy8JB3WgWAo5g6wmhTYQ+SQhB5IVH6uApmU7oPkyYElJU+h37Q35MCSUiLneiBRUgDIFEwHBEcGAFmRFkCqgV4DbA9ESxZsmgHXRylG8htAv+mkYZQK0IubA62A+BaARAHYIZuqnApkTR5FyZIRgKOINp2lQfmNyhD4EEIDWA+AJB3HQEDS8BSHGZD4OEo6SCADT3PUdS8NrRQppG9LeZwCHERifbthE0AbLE41zBDAQUQ/aCPDLBCdzJUMGKA+Bj5WfANSVcsyECh6CUQ0Q6ZoJYDyPZ+DSxJwYIYUq8EawCIH6UF9CWcBLxNT2QOyXCI17GHDo6GvKMWjQK2Nmtujxmsa9e1BDcphYU0ReI4zkzMSyLikuGGGDAyRxoPYAHRNXC2A5Bqr59tNI8txOxOHsCIHuSrO9uBQFvg0wHVUGMLVhmW5n8kyWbJFAjBE4DLbAxtVrgC9WjfqKAMiC2xU6gL02XijF2DACoC7DbwkEaXSz6CwhlrI244JOC742u60PRlwHDeivveDN9DT3lMSzfdNv2vNtB86V4va9Sx7Ae6NNQJ0rVBN943kbW7H1PT3DgB8X8iyF6hiWQSUzGP4hjJkYnwBUtLOqjbWy6uXOVJBH9haBO7D0WXJ1z7tPlyjtkqGnvcOcp3WskHHPZjmQLvPjI/SYXg9Jfbyroq2a4wsgTiaLBQno48OywzFA2vhP+7aG+P54X6xfzkcj/N3gfbv8kMAv5o/ItjHvw==);lineShape=1;" vertex="1" parent="1">
                    <mxGeometry x="985.3215518053044" y="103.80113422886299" width="1.586417476948885" height="25.193346854815612" as="geometry"/>
                </mxCell>
                <mxCell id="20" value="" style="shape=stencil(lVjZUlsxDP2avGok736m9D+YIZRM04QJ0OXvKzc4ieXck/J2ETqRrM1HXvm71+eHl/XK8evbYf99/Wvz+Pa88l9Wzm12z+vD5k2/Vv5+5e+e9of1t8P+ffd4/PvloWm2rx/7n+0Xfh9xTCk0kOM/XcD5n+DrUX272V2oB+I0qDvKdVm9kMuDeqIcltVFKPpBv1IFPy+R4uiOqIMAoKdz43GlEjsAiNYjDUEqywAv5EaAP4X4OiCTyAjAQQqO6hjUgJMQCuU4Agp0KQZyZQA0CYhSrBRHC03Cy4AUyI+JU4mAukvFZlolHriUHbkRkIVqBIBoz6ASDzKdC4UxSk0CXCpCwgNAJSisxVMaXVJJFQBIvfpPgEQeHLqUnqYTQIsFJK4y1RHQJMCl6knGKKmEQVir5sEAYm/a64BK2QD0DMilSmUCFGyhjrVU8dQQ1inKFvExFxZNVAsIIHMNEC0gJXzqbAEFu5SnU6MOag6Y4XqOwxIiymQCFUclP4WpYgtuAmR8CDO/m5M4rm5KtcfV9NH0FwDBiXBTvVYM8NkCMpiurdYmC+iWa6mWCXCjScMEAJdWK844nQED6mSh4sTNLScAcL2r0RXRTEw9F28cYrJwI3NlAsB5XHtiLwHYJXMv/kdXh6mFbtTrJwFx6rlEAZWfm8IUOj9YuueiaVLXedrSTWpoXDldM9cBsdf/CZC7zSU2YCaT/gSDMxS2qS6uD4YlRsNjuebaL+MlziSjSzlRBHlQDlYMK/Nw9inLE8P7tFhAuSZvWy5FSIGUqco4N5LGDUQpeksfYqQA+kHZth8tBC0NkGnl86blgoejrG0MY3nrVoGmgO4kxSwd0iVLe5BhliopIKy6VxkLbfcCFnSXM3lQiUPLn9iOE0yns609LXcUIxvT0B28qs523xAKoIq4rztnddSabMMvkBOruokl5NzcA3F+BECkaroGGfJt7lz5rB5By7MdQtx3xaVAeqOOioAt+WI41rkvmRfPI9D3YJ1BNyX3YXmhDp351FvNTXX9OD8LPW222+Or0uX/7TOSio5PUP7+Lw==);lineShape=1;" vertex="1" parent="1">
                    <mxGeometry x="994.0493279605371" y="103.45080712506936" width="45.65991306946837" height="26.782243554093302" as="geometry"/>
                </mxCell>
                <mxCell id="21" value="" style="shape=stencil(lVjZctswDPwav2JIELye0/Q/MhOn8TSNM056/X3BUamIoLWZvMkyViQW15KHcPP6ePdyPLB7fbucvx9/n+7fHg/hy4H59Px4vJze9OkQbg/h5uF8OX67nH8+3y+/X+6aZXv6cf7VvvBnwXmmmBqK3d/lTaGyvPi62D+dnjf27CnkwT6TR/aVymgfKYR9ewnky2DPlIF9LOT9YO9I8r59ilSdsXdu3z4HCvb7HuynOMuPJ/H79tUTJ8Mng+9XoVLH73uqFQAS1TgCMoxA1b95jIDGROAKPG5Jg+4Bp+qDHzkK6hUmyY0+iNIMsq6o0+MKEikXAGBKY9pF14m+nhfK0rilqCugRNJAjyskzTwQB81Uk0lJYBy0FMIYh1SIQS2oi6YWMsNkFd9JXAEJOh2Y/MiS1keKsL3wmHxF4Ja0fyUDyFQBS62+Rlqrgx1Mnf5fLiuAyTEIXOkubgAVOF0jiQEE2MRaTbMFJOBDLb2prACBTtdKLBaAaFVAMT6snXYPUMdsfe9UewBLq0Ya1LQ6bUZPe4MAmbKhtVJEW0q2VTavPujeYQKgSGsiOAtICMC2tyrAIYC33bslC0hvLRfrQ/4QYAKXcPJpxZnki92rPafNEFWi4YwLFMeprm8yirTYKdoig8euiAVE5HSmMtV0xTVttyS4CdTeqze0RkCrd6s22kQu4aK2TmTY7xVg07XgFUqXX5v8RlJAd1ymCiqok8Wp31essD4L0AFhtMOG6etzdN3yZgkki1mmWBeY4H4uoQy3xBRGKaDp6sGgnlKpFHKgGSfLUVMOKFmjFQJNmyCKNPkn9YMmlopUHgGpQoqEJ8knvT6uA6qdJ6oRkb6KU+rF3KXydVa9LZ/IcCZmZ4VAU9KgfFQYy7hCSJ3o69Lb28CpREOpqlo9mvLRYgD1duVMJuSQDyoqzXiAJGmUgvuEvSRbbHqIKyj1dHaMpPrQxc1e/ZvzjNYHrP9oxZIeEwUBZCI1d9b2OkxJFoASQzkRtgCPtrQK+RWQ8MwlzxNJgNVie56SgEbJqk+3UUNnxOmoji8/ij3KKGUJnXKn77uueHf4sccM2CB1dXPaq/D8+dm7p4/t9eH9ouvh9PS03JNt/7cXY/pquVQLt/8A);lineShape=1;" vertex="1" parent="1">
                    <mxGeometry x="935.4446641117847" y="131.85877087301535" width="5.008992682039454" height="7.084748935482449" as="geometry"/>
                </mxCell>
                <mxCell id="22" value="" style="shape=stencil(lVfbcloxDPya86qxLVu2n9P0PzITUphSyBB6+/vq9NSABGyat4PR2uvV1RM/vK2fXldTCm/Hw/7r6ufm+bie+NOU0ma3Xh02R/2a+HHih5f9YfXlsP++e15+vz7NlvPXt/2PeYdfC44bcZxRKfxeViL19Hfh82K/3ewu7Eukxsa+UWJg34mD3T9TL/cBwlSTBXQSwEgqsQWkMjjeBjSK9grMFCMG2BNyoIwplWoBjQKiJJSzARQhRioVEiurZJIGAKq6pVSZArp0odisowOVAFUq3QKEIgDUTEEMoGdqgJIScJ5WgAgACJV2dQKg1BMlK2svY+U2QPylOw6+3ik5SkICLh1DoOA4VcoVHNFIrKt1hUG4KuXsdO3DNbcBwUdfxznask9qBaAqUJWxlelCh9sIdZ34IyqQSXOudw9IHVYmVwZmpVFGRArOEZUqSlIF2DKgwYGqsVK6BqCc00s3p5I6H4SfyhqcShlSUs/5FMKVSWOjZA+oKFyDL5Z6h38y3Itvvspq5LizXy9kZXRCv4qlOsrnPQDbHqRnwjtolegeAAtNGg3kIrwzLpb1KoEaSKAPAzj5xtuwrByJXUvBPUgBruC/0+U4jGD+zz6a1NP2hLlTA1l1PhJ76XkWQAAdHqys87SBKIlvizrPJOCHlMffp4lJMCCOonICBIrgDjqyueCLBeZ05KH6KZaoAr8FqrYE8IiUO+auhSaqoPuo3t4czYc6MbsRFwZp9uVLYxBoWal584KUVDbs7NEEE2VUhbN9APvPsVC9Pdhfh/HanH0EdUszMnj+qEFprIvn3wB/lpFMZ28x4vPBB9L79vpxfo29bLbb5TF3+b9/venS8vLjxz8=);lineShape=1;" vertex="1" parent="1">
                    <mxGeometry x="986.1885413755049" y="132.55467370865333" width="1.213556702896643" height="8.89699281146349" as="geometry"/>
                </mxCell>
                <mxCell id="23" value="" style="shape=stencil(lVjZUhsxEPwav05JGp3PhPwHVZjgCsGUMTn+Pr1xaWON7AbelvU2M9PTc0gbvXl9vHvZboJ7PR7237e/dvfHx41+2YSwe37cHnZHPG30dqM3D/vD9tth//Z8f/r75W75cnn6sf+5/IffJ5yPEsqCCu7P6U1TcfXfm68nwNPu+RxQpcYBUFVyuA4IQYIOgII3iQBU2mghq3gGyOLGGJKXRGIIRdoI0CpZCaCJ9wMANguz0CxLPksuFGCCrtIYq02SMQCTngCS5DqGUKQ2AvDixpg1SYlEGUhDGAAx0DR4Ly2NALhEgob2XB4T7SQwluBSsoBKpKQAOCulmK8DYu6cnAEaoTWVyULoJXgRkCGcaAFKaC3ItP8MoCWJzQI8yXTL0tQCIhFfqz1NKwAlzVxqtmmkKEpYalPBpSSVJM47NyWiSHLURDY0oS0wQLU0ZSeJ0bTKfwWgkbGocxfnCgic12SDzlx9mAapWZcqaZVt1dpZ0I0F7Sf1gWhGq7d9JqEvMLnOAPDGLViXYpfXB4OGvhNjaaIVFZQZS1Pilhr9lDSWPkMKYhYfAJVZmOSNoBsLei6gJMomyoUazX1mfLQNVDqD5kYDuToetWllKAjK69QsUXKO0YR2XC1AmVyn/v0OYJ4Qi0uE1mUGzTGQzC1pKhbgyaTGHM1z0IQlLCO2V4Yur2sLUJpiYI0J+0ycYmCbbrXrDJTB5B2mCi1SiJLmYuC7ie8zeV2vohRCae3D6WzhY+PKB5tkbKWZOVTEjxGDg8L2N2e3K4+OwQDRLq2lF9NlFbm+rPXvV5Ivf1/6Vr4el2iK8b05XoGDSFSKBTSMESMCJjrkyI8AbfRoojp1Ye02LwO8FKPrREfPogJz4ot068aa7sfir7WP7Gtnkzy6hOmVmAVvj4jo40wY0IGOxbZMCuISjl9xAtDjEhwYpXQ27q6VjylomGBnjaWD6eQTs5DsqRIAlmqPjtImXpmFaMcnMkebmEodtYGBqixo7U10BSS64gLQTOYiPf58/s7kfQAe/l/RPOyenk43POe/2ysdvDpdB+ntXw==);lineShape=1;" vertex="1" parent="1">
                    <mxGeometry x="1042.2179810289076" y="134.53223638718057" width="6.17697649320491" height="5.498019234665538" as="geometry"/>
                </mxCell>
                <mxCell id="24" value="" style="shape=stencil(lVbbchoxDP2afdXYkuXLc5r+R2ZCClMKGULb5O/r7Y4XrF3OwNtidGzdzpEGefrYvrxvBnYf59Px5+bv7vW8HeTbwLw7bDen3bl+DfI8yNPb8bT5cTr+PrxOv99fRsvx69fxz3jD54TzzpFzI4zd13Sk5OL/g+8TYL87XAFKIc6dvU8UFQAy+dgBxBN7AEjkuAME307WAUy+BygTgxiykJYOEAXGkJRUOsB4km8DpFDWDlCjigEAtOVkBmTK6TaAC/nQAwpF4BLzonCX2q8ivJKofSIVUAhyydqjXgrkvU1SAQ45Kub+SAEkddHaJVAGnVf7sm+LIuRBvIGSud9TQtyhbO53FIG9jwuHcMVYWt83QK5vghek3qf2BQZMqH1aoo3ZC8iRIzEApgBiCEzZ2SoUUOUgVi+KNn7fcqmYtKamUetBx+bAFTkVxDAqXM+1yoQAXqitFJ0FFFCHUXR5AQAi6auGLvRCgEuzwF3FLKDQvknDFTlRBG4hFgr9qVQxYiGUQMCyEC+GY6fah4fsA4XeoTTr2XrbeUv/OJ+sV6BSsZ86WrkGJF6VQl+z2uoKcqS5/X3nbNbUuHvn9NfYhtJ960V9QPqsCmVAfi12u2CKIKeRm1rNAcCpGaOljYOCmmZFv9gz8KfuEUmMPVL47Bqp7rSPVhyxP+NEsvejeOtEVX0gn1VpTcfheo0i1csE7oeH99k7APXjsj6/7fb7afu+/t+u2/VoWtXl+R8=);lineShape=1;" vertex="1" parent="1">
                    <mxGeometry x="942.1988306040407" y="136.7221970513901" width="1.1991006647910003" height="5.100179641217644" as="geometry"/>
                </mxCell>
                <mxCell id="25" value="" style="shape=stencil(lVbLctswDPwaXXdIgA/wnKb/kZk4taaunXHc198XqsatCcVQdJNlrAAuFgsO/PC2f3rdDRTeLufT193P8fmyH/jTQDQe97vzeNGngR8Hfng5nXdfzqfvx+f59+vTFDk9fTv9mL7wa8bFEBDCBKPwe36VUeTvi88z4DAebwCtIJQuniqYHACDYgdICTm4GWLtK8pIXoaCwh2gCJqXoaKlDtC0JC+DFtBn0JxU7wNE7Bk0p6T7gFquFf8DtCvR7wIKQcgCJN4HpIrUZ7jp/bsIJlC2KYpDU1Tae200QXUyaDxZljg7FSFKH5/d7xPY9JnR2CEVqfXxSoF34AwyXQuozgF0VnJPqSiljpDSogcKiE6bc0UtWwCVkBYAzwEkXXX2wUMr6Zm20KoqKEZHft90Gu0w+MJoEWExn57yRAHGAXxpF+2DAfjDkwm5F/fqfFbEYlN4FqDzE8QCPJOJccGrb2Nqo6Yi3yfJLpMVI94az+C+zSubgSF901ZWT0HtDWNlt7FdPCvLc+Nyjki9WSSw5xVWoqoPz+2WCoU0p1kRpa8+oDlimPZNNfHsTH1SNsXEe/OSi51hP345wn49VZDihvNKtbcKn0/VuuHH75c6VN4ih813wQ8A9OH/1fNlPBzmm+vt//aqqq/may4//gE=);lineShape=1;" vertex="1" parent="1">
                    <mxGeometry x="946.0252824765794" y="134.63256840064435" width="0.5095047378920505" height="4.452738484223201" as="geometry"/>
                </mxCell>
                <mxCell id="26" value="" style="shape=stencil(lVbLbttADPwaXYnlch/cc5r+R4A4tVDXDhy3Tf6+FATZXkqZIjc9OEtyOCR3kIe3/dPrbojh7XI+/dz9HZ8v+0G+DTGOx/3uPF7saZDHQR5eTufdj/Pp9/F5fn99miynp1+nP9MJ7zOuMIUyoWL4mL8I5fnD99n+MB7v7FVIU2fPlVg+B7RMJfQOIpUMAI1UO0ASCulzAIdAoXeRE6UKXESK3AFKoQSSkLyQsgCaLmltAqJS62mytCoC8ELKlddbWttpW47qXaCslXiVAytImsTZF4qgDoGyi8e0AuIJxH0RGpNEQJGvsuqixU374pWthSoDQpnUATIxEp5SbT0gkaAiF+LoARGVwJTffEgBAUx31SeNhGq9xdmzilhKeRHNXdkYlDkl0t6D6aKCZkvWnX2hTXgMQpJK2QEUs8QUXUjWOkh6iTh4QGtAGoWUPaDCIealMU0Y4CFRzZ6khhysUk7w/NVMtaGJyswraTcqIB6bXk7ZlQTNbKpO2DaTQfxftc+2Afruz9eibwOyH/FS4J5KugSwACYSwK6dfrudwFim1jm9B2MB9IEVTXqVKlw5Zu9GfFladdt+Nb7wXo55GQxXhqiBxrf0pC+ybVHAj43T2scfqIB45DoKb/YMzrdhqv58xKcpojVnLyDfLJ4fhorLldTziRbaVy+D/7e3h9vN82U8HOaL6/1/f1O1T/MtVx7/AQ==);lineShape=1;" vertex="1" parent="1">
                    <mxGeometry x="991.0766673531002" y="138.78079004166383" width="1.3688156901361337" height="3.9225398961921614" as="geometry"/>
                </mxCell>
                <mxCell id="27" value="" style="shape=stencil(lVfRbtswDPwavxISKYnSc9f9R4GmS7AsKdJsa/9+9Ay3FV2c4zfH4Uni6XikB7l72T887wYOL9fL+efu7+Hxuh/k28B8OO13l8PVnga5H+Tu6XzZ/bicf58ep9/PD2Pk+PTr/Gdc4XXCxRAohBHG4W16JZT1/4vvE+B4OH0CtEJRuvjYKBcAEBLuNxAqDADJ75CYUgAAplY7QGaKDQJK6gAlkkaYA/ckaSDNMIdWekClWgGgzpzMACM6o6QLhT7pppDWWucU3wEVAlSJWw9o8B6KUIgegJJOSqK9lj7k+CVC2KvVtlCgvlgpswdEoO9KIp4lAdJgytFfA6MDUemFMRYUuIVMtaeoZQoC1k+kjiGrJ0Ap23ldxkIJZGzVGJMHBFAMWRc5YIAyad1ypJrnO7ox6aXHrNA6qsAl/W6EXwOU0qI+kTDaUhlYeTVScrRiaReltihoVDxmo86UVuuzeCtesQCrHy9XbDIxEldPE7Ixocb+HlB8JHHrYyPeGm8664W00hkK1U2txzy1l9FKb1MKPT8rzXNhSCvduVDp+Vlp/+LXX5kvNs4vVjS5C2fITiZ10w41JAZrB9XFIzLHdtCfPlABx7H+x+riGXm1+HrE9ZvL7IK3xZulqI9H5zGtp7gh32ou6vmHk13y/OD7Mu/IW+SweVy+AWAPH9P50+F4nIb7z//7ad5eTV8Ccv8P);lineShape=1;" vertex="1" parent="1">
                    <mxGeometry x="995.248742718732" y="133.93599513249367" width="0.5062765476210519" height="7.030397780923729" as="geometry"/>
                </mxCell>
                <mxCell id="28" value="" style="shape=stencil(lVZdU+MwDPw1edXYkj/kZw7+BzOUa4Zey5TCHf8e5TJuY6fdgbc01TqSdrXyIHdv28fXzcDu7XQ8vGz+jk+n7SC/BuZxv90cx5M9DXI/yN3z4bj5fTy875/m36+PU+T09OfwMZ3wb8YVpewmFLvP+Y33lMr/Nw8zYDfuFwANlKUBcKCQAYDJ+wYghRIDQCIfGkDxxAl+waUWYCn524AcyLUplUxObwMSk3YpFXLuNiAUytwDSrwNkERuBVAAYCGvLUAhcZ4pdjUkSqBLkbjLSEgBb55KbuMd5NkKiE28ZhIBNNfTzvGBBHDgM2mrVPW4pUZaaQGOOACWpeqyArJJGwBiWqXkyIMaUqm6XNQQgVKz9sJToYK6avPc0WBJIgNIKx1ZDWg8pZ63EFIARWcbxg6QiIHFpLQaT6UAUophpe1S23CdaUexZdo7Bx2Ac0158QmP5jNS7lws4zYRt1oy11Mwzzb/XUKeMozvxK0KXfWn8ef+nfeCTTjgoFBoVeFt2IAqzGC6YTOZgNGxhkq7FUL1g+v+xT1hTAWIztaetgTYKKMdor1IHYyPZ/u8xCOF2tSk1McD88qx7pdLPNzjUtt9qRfpzWykcyKpCr8eH6m0fEXopdPKbs/PtcHXB9KtFFqgq/z4LvUNgD1crm7P42433/yW//dXPXs1XxPl/gs=);lineShape=1;" vertex="1" parent="1">
                    <mxGeometry x="1049.8128438125987" y="138.76229705054703" width="0.8102233316081269" height="3.363975295445719" as="geometry"/>
                </mxCell>
                <mxCell id="29" value="" style="shape=stencil(lZdBctswDEVPoy2GBAGCXCfpPTwTp9bUsTOO0za3D1SNHROqIWmnKHgC8fkJ0F16eN9t3rYdhvfz6fhr+6d/Pu+69Ngh9ofd9tSf9alLT116eDmetj9Px4/D8/j322aIHJ5ej7+HL/wduRgChDBgGD7HVwiF/734MQL7/nADVAFp4yMBiQNkCNgmYCjVzRC5AZJmSA7AkFMDEEFCByDgFuCZGhJIC2TN4NVAEEoDSALODlAh5AYYZPAyZKDaAgWCAxTNwBbw9kHEqqSLZEfWnCCiBWq4D5BAotZL33b8L5EiFLIpigPEAjgBkmMmgZqtSpnux+NF9Jt9E0fVCGhEzVDK/XgGKjbeUyhejXkFGNA50FpxMCsiyE4FpCWLBchZEqumtAYQhFosIA5QtAPgmqKnHWBGVnWBiAW8fVMb1LjGGBUn++A7r0QQc6B9a+diG+vM4WG8LGDx+VRRsk3htQA9PzQBvCYTw8RMfhvTvhttfHA2bvp9bcRr4531MNTWqjOTIQO2xpsZPXyZZAtnm36tjZ8ZntfrwcLpnOxZnhn/CGnV/WLl/SUCsQmPjvpsB3/03YnAbbVqD6/5RsjBxJNnZrRuCBC9zZ2o759fzrYJ+fFZrD7+eqQAxRX1Frl4a5me2teNPv5+aS/gNXZYfV1eAOjD9+38pd/vx8v97f/tbV5fjb8E0tMX);lineShape=1;" vertex="1" parent="1">
                    <mxGeometry x="1052.8835100616393" y="133.2722585792981" width="0.4368705904998933" height="7.602898928950666" as="geometry"/>
                </mxCell>
                <mxCell id="30" value="" style="shape=stencil(lVfLctswDPwaXzEgQRLkOU3/IzNxak/dOOMkffx9oXqoiJC1ndwkaiGCwGIB7uTu9fDwst9Ffn27nL/vfx0f3w47+bKL8fh82F+Ob/a0k/ud3D2dL/tvl/P78+P1/eVhQk5PP84/pz/8vtq1Rhonq8h/riuRUvi38PWKPx2fl/hENQz4Sirb+Nqo1AEfMsUCDDLpuEFkCsiASXk0KBR520ATlTIYSCSt2wZFqclo0ChnYMDU0mCQCiXgUk6UxixkIU7bBqkSjy7lRlGBQSQew1oyMTi0FArjDsqUgUtin8dMa6YEEmdpCuOhtVEFZ/ig5sw9oQZ2CNUnrirlBgyMm3kwaIEYJC6RjNyzeioALz2EC3wFDkUqbaweZuhQoLraoEE86+oAcRvPlFb4AHJmtesCVKkAfZlPN+Ot+ECA7P/V4wXQmvvpZnyhCko59Kpa4BOogriKJxaj6BlqeKR2Qrr6v4B8mbA0jy8gXyYK0ccT+ZNXBaCkIJ6GH0vY+CDYn+TxqOQTZed/gyIkvp1NBQniafmqHo/4Gb3GTXgkWav4NNhfjc/Z4wXwkzsbF/GsgJ/reqyQz4Z3fNPeFrb0JHk8A30Ivu8ZnzOM5yfxwXfiWiGhrWWEsSJtgkEKZ02puqYUsUREr+laKSANUi/SKlRQ646dk/NwULvO3Dawz2Oai5CAKKXkDbLCESoHXzi2IkiItOvaPHMlqHQl9TTNU53CVqDWC0aXxJxEBiadbpSdR8/bo6x1j7GajSwFTdeZmjOwBgF2aDaZOmpQRON+7uTveO5kvI0vvv9xF+QtvOtPDG8Hhnf6OwvObbyxLHg8qDVTN/bnRXJk+Oz9CQjfiIvDC/Jn7l6LeKL4tJ7+Rb5QfJq/qQQY/8X4+WFQQA1MG4xFE+HF5tP30f/i7eHj8vt0PJ2ud+fld39ZtqXrRVvu/wI=);lineShape=1;" vertex="1" parent="1">
                    <mxGeometry x="922.1445678085051" y="144.35031118167745" width="11.390632668803844" height="15.82050900527127" as="geometry"/>
                </mxCell>
                <mxCell id="31" value="" style="shape=stencil(lVbLbtswEPwaXQdLLl865/EfAeLUQl07cJy0/ftSFZRoSWeC3ChyRkvO7g456M3L/uF5N3h5uZxPP3e/p8fLftDbwfvpuN+dp0sdDXo36M3T6bz7cT69Hh+X7+eHGTmPfp3e5j/8WXjFI40zy8vfZUYg7v/E/YI/TMctvmBe2+AdIsGPClcMPqJEgs+QYP/vEQshjFB7gLojkc8JTmRdXxkq66GuhyjINoSO8JkQIkYbIWQewSFZVaNSQkkIzhISEtG1CEpDyHCEkGMXISCRQ2dBTvbQIwIhpAzNluAhJNUprpXwngeFklT3BB8gRNZ+Sy7CB35oS8go6Tuq+i/TZgtD4Iimc120+MS6pxae2hzAsXbuKtvVDfHeKQ2hQIhCV9qzakpDdA6gCUqS1ntMCMjMlHoTcwhE1t4lY7U9JQS/pmnTnsoMoPPtLwg5typlzw2gJtbmoQQEQkgO3tZS1S2S9qwiqlXpw2mvEoJgtBE21XKVUZ09WVOak08aqF4ertlT1YHVq18b/l3Xkfpkrc1o8ClRq3cYm8oQRCJSf7vpWiqf4GOjafUQgtcW32agDj5eG0/T4bA8Vrbr7eukTi0vG737Bw==);lineShape=1;" vertex="1" parent="1">
                    <mxGeometry x="908.4576682051134" y="167.40431768474673" width="1.901708634757762" height="1.150525367597042" as="geometry"/>
                </mxCell>
                <mxCell id="32" value="" style="shape=stencil(lVbZUuswDP2avGpsybbkZ+D+BzMUmqG0TOll+XscMgmxaNT6LbF1tBxt7ujmbXv/uunQvZ2Oh+fNR/9w2nZ02yH2++3m2J/KV0d3Hd08Ho6bp+Ph//5h/H+9HySHr5fD+6Dhc8R558C5AYbuazyK4P3Pwb8RsOv3C0BOkGMljwzD7yogAFMFCAm8MwAEvgakAFkMQASUClBOKBgAhOxrQAKhdYAkcHXQWcDzOoAjBGUhAxpBJ5xYXwDEiCEwxNqlRSrPIogAgzaRDF7RTdeLqLNhwfspxhnAwHEdEIFZ54EM+bkOZvlgkjS7O8sTUDYCYF16pVS8YaBY4FwDvNkNAf9w6oANC5GBqAXAswNXuiQIIi1BF32+idbSjk65ZOetXOsY7MIQAWmqPM5Aqt/s2k5p0ndl90SEULfbxQZlENYmLJpKP0TRAGvKeIIcdNQ+GTSBE50Ha1CWWa/yZk/iVvmkGbqwGspmqOUv7B7Sc/7Ccmtcnh5CrZ6m1lsbj3Xr40TXee2oy8EDG8GW61R77yZ6z5ODmk0HZOgPpMe1Xf+xbFlqkE+s+bH9YdFL2Y5XGAI18DlMrZofO1+l92JLOTS/1a4AlI/fp+Fjv9uNL8vlvX5KlqPxGUp33w==);lineShape=1;" vertex="1" parent="1">
                    <mxGeometry x="913.3489180451597" y="164.82592347456887" width="0.5842600788921779" height="5.6736895283706765" as="geometry"/>
                </mxCell>
                <mxCell id="33" value="" style="shape=stencil(lVbbcloxDPya87pjW7ZsP6fpf2QmpDClkCGkbf4+ovRQrBN2mjdz8FrSanWZ5O5l/fC8mlJ4OR7231e/No/H9SRfppQ2u/XqsDnaaZL7Se6e9ofVt8P+dfd4/v38cLp5Ov3Y/zy98PuMiyEghBMshbf5E1L/8+XrGbHd7K4QXdDTAJCMlAkgQvIAyA0h3QZoRSoDoCdU4pImFB0BBUoAJaOPQfc20/AhIBeEPgI6MrFgnERxtAZqIgni0kS9DYiCHEdARVcSNVpYsCTEAGJbpIHkzeIb/WkdhQgjIY8UNUUm7zfvTxNoI/4rdJRFi1BiICm6sxCQSQRiqlEPSMQlU37N3qVYSM6qV2pL6ASgGWWUUSsokQCal3ZrNG26CNoqvDJARnZCyqhE2Ra0Y8mULSQGo7WMUrLaiaTYpKItAIxWk0ZVD6ik2Ex8f4v3qsUUErSx6jxS2mESxDVJoVlY9PkeoITTODf1iyzqXK+37stn7qc8N6vLWFAIAUjwSRaZhfUxwAaPSwEySZlYexsbWEUkDElBH9+3kJhKwyyxSwB86FTvf0Qh922qtZHRQAeIjU3nP59QdSGJQIusdj/RAi17a/+iLl42z2wcidtEaHu3gnJtxeYfW1y6L7FK8/v5Xep/EHb4t7w9bbbb8+53/b9f9uzTeVGU+3c=);lineShape=1;" vertex="1" parent="1">
                    <mxGeometry x="916.0160050138657" y="169.99808995042656" width="1.0345870286854815" height="3.5865130088805843" as="geometry"/>
                </mxCell>
                <mxCell id="34" value="" style="shape=stencil(lVfZctswDPwav2JIghee0/Q/MhOn9tSNM47T4+8LVUNFBOVt8mZLWuJaLMAd370eHl72u+Ber5fz9/2v4+P1sOMvuxCOz4f95XjVXzu+3/Hd0/my/3Y5vz0/zv9fHqYvp18/zj+nE37PuBCIeUIF92d+Uojrvwdf5+9Px+f1955y6b7XE7IAQCDnOwAH8hkCQuwAUZ8gl5iCdICkgAAAmbiPIXty7jaAC5XaJylRBhYmB3oLlZvNTUBOFFJvQciBoIsn6QFZYAyFSbLNUgQuKSANdRBkYaAGq00Pgtbzeu4puyrgUvJUeoByKQAuJdeIsAAiCQg6Foo9l7T2iEuRqRoLlQqwwELJWBCKIAZOLcQVALnE3pJPXXLApaCvey5xJs8AkEhM0EwZVFoB3oiAg1lSQOkBqkuIfPo69zHoEQxcmhww5OOWt21ApGwAAatGJekbaBJP4JJyKXhrwSO2ZhKxMWTgUhSq1WapJNhxhq1KloiUz9ueVjoycElbtBq2xkaW7RgqJUO+3JRqG6DkG1qUEUCngYlB2pTcrnRuI3Dd04gawWqrupRAHYIMUzRTRYA8CFmkhBooDVK5qO0tAJuOq1RBWj8N0KHIRvmgUtZkY/YMNwfxTVNWHYoKLYXckKSILEgj/3qZATF455qoLHNaowb9oCZCD8gRqobkRoTVNgODcO31ss2oFqJC+Jb2BpAAlS8vDbkAKiyE7i7FlPo9cbfmrtmwtJge0bXYEaR0yQDgi1UyXfoEAMT2Q4lYl8j17TAVGmjAoKzKJA+025EfuQp44YhNM+DN3jXSfPDqMHQCvpoM7iQ4CweOcltqtulA1cxmiiD30a6FHrZ9sZNfWw7pkD0dc9/ruLHHw+9TW/8+5o4y35yPo/ViRzhOph5nF1Rcq+HOianw6Uvwf7/XH+837qfj6TRf2Nfv7Q1dH823e77/Cw==);lineShape=1;" vertex="1" parent="1">
                    <mxGeometry x="920.2403188842322" y="166.48162436386622" width="3.4258954837506197" height="5.147952993068285" as="geometry"/>
                </mxCell>
                <mxCell id="35" value="" style="shape=stencil(lZjbUhsxDIafJrcaWz5fU/oezBBKppQwIT29feVmFlZy+M3eLUHf2rJ/nXYXbl4f7172O3av59Px+/734f78uAtfdsyH58f96XCWp1243YWbh+Np/+10/Pl8f/n75a5b9qcfx1/9DX8unHeOnOsYu7+XnxwV/v/D1wvwdHheAa1S1vaBqgP2hVJV9plqAPaNclb2lRreT0jK3nuKGW4oagd8JG4AyFS8BgpxggCzAuRMIZCoap/lUCMGUtOAbBKdarJOB0cBHWsiLhqI5D0EvAHqoqyPAKd9iJ5qxEDUQJ6uoJ1ODmsvUtNaTYlKwYC+uCzRg8QngPYhv13lh0BQQBEtTVbQ4iuR6sQHAzRK6B4E0PFQJylgBMqirk8CbaJWZ9XamBoIIDmTprOG5J1QASBJhS2QgdM5UsgWKOCmU6RYLdCAWiMv4fKWl96T+VVCYj7HYQmwJ99sUHcAZQHKwymhAAo2QsU+AfuhWPVrA/fsbPSIvQdCknA376/QX/+m/BWAEjGLLJoFMthRyIOOKjyiWJfSsV4B+JAaRT/4AIAsib1aAKWYEigN0eZQtKUlx63vGShbVnCD8BK4h1zIjeEJgFSvrFBB7EhxqmOwAaelwGZ9rLN4Zl7K2XoJEA6eKY1OAPXFKwtkUBvcIs2VfQSn6sgPOY+Bx1vtJcHY6GEY0FxsRZ+Ung5obU+K2xUAl88RmBToDmjlTVqADmxqMjqgdTRpYzqgc8ykURKg6jw5acU6oC9u0ux1QPswaScFKFrck4a1A6bpxi2xAHa2wk23AFE7PWnrudhGaTI4COD0xU1GE3lf1mqdDD8CeDPA4fFKirRxejLASRZLZoDDI6K4yKZhhTOo7Ii3zLiyITtc4QzAVtt4RpfXtWbsEzrRYvfvli7leqWSMmL3wyAQQrNlx8EuLJYlN7zbO/D+lJfOemWPevNsGxhsL+2I9xv2Iwk9xA3+9hJjv8Gg8+zj/5b76u2ZtUd62PxR6BOAPLx/g3o4PD1dPmGt/2+/WclPl+9d4fYf);lineShape=1;" vertex="1" parent="1">
                    <mxGeometry x="941.1511856655802" y="146.09231386351024" width="0.6790197345141925" height="35.86912849334319" as="geometry"/>
                </mxCell>
                <mxCell id="36" value="" style="shape=stencil(rVbbbtswDP0avxKiqAv13HX/UaDpYixLijTd1r8vPcOZKaenGLA3R+GhyMNDUoPcvewfnndDDC+X8+n77tf4eNkP8mWIcTzud+fxYl+D3A9y93Q6776dT6/Hx/n388NkOX39OP2cPPyeccyUwoSK4W0+iST85+DrbH8Yjyt7CSTF2dtJrh8DUiFRB0hxufImoEUqzQFypdgAIBNHD1CqBQDMn8+h4KSbkvocSoVJt0bKDlCFGsqhUfMhaSDFAPF1UwsJJ908oMni4iNam6fVXGTEkiwBXAGNagIAplA3AJCDWl3DJiRQBy1UuU8aiU/zIoQVrUUBIFERD7CsIgRUz1JNxIBWC6lsxAdDurbLWt5AS9oobRpIUaWZNPctCrWUSKS/IQgAFCq+0iVQwy2afOGK8Yb6oVH2LFWG4uMQKPiYqlIGhbAruiSslgloY0oiebkyZdRBRlMHKHiSpX4aW5ARFYL7sbHi4T8hbCHkjifbSqAUUforijV6Bjf08ksMh2Vc5tZ1yelC9G1tUPL9IAnGYyvTx2NLlIEwjD8fT8wUQJk3SmUbrNB/NwA4QX6YYje4SYGI4rI3rt1PivRAwU/IuEzxm+bmzAcf4Nap/Ur4RM5UevMMUv3X99Tn9vbx9/H2NB4O89tv/X//2LOj+aEo9+8=);lineShape=1;" vertex="1" parent="1">
                    <mxGeometry x="932.0768056741958" y="188.78646054074204" width="4.167319831464572" height="1.5020507282594568" as="geometry"/>
                </mxCell>
                <mxCell id="38" value="" style="shape=stencil(lVjLbhsxDPwaXwlKlCjpnKb/ESBOYzSNA8d9/X25NbRrcdcT5OY4HEskh8PZ3cnd+/PD234X+f18On7f/z48np938mUX4+H1eX86nO3TTu53cvd0PO2/nY4/Xx8vf789TJHTpx/HX9Mv/LngQqDYJlTkv5dvmKT+/+LrJf7l8HoVH5WSDvGJWG/HS6Och/hKzLfjU6UiQ7zdUMNtQLbfGxMIShxvA1QpjwBLuQFAEWppBCisUWVK4wkSqBYAyBTGpKWSgirVQmU8IWVidELpv9cB2a6Ecki+Skuht6tUehE7QBOJgD40inUAFKYAcsiNwkilkqkmwKVGaUy6BkjWxBTHPlhnBCQtsafYAS30S26foJ3MVwAGgFwosAdEUNbGpKsroT402QBkUKVm7B873SJFMECtUnJJC0XQuNZIR2o0oyM4ITB3VZkRmRqQDTvCd650Pm4DbORG9k1pIUCm5E5okExWRTdyBmhIBVbaOgGQChj7ogdkcCVTAc++ShVdyZigvqyKdMbI6U4weoGBmACOTIkaAkS/4SbGAzJNSY96P3UGcGkqa/ETVNAJbUMFUNJ2Ac0ekNBQ587NK0BDQ73aKHYm2lkTmbPvA1pB2zOaPpABRyaFgm/kFNeISgGpgFJ0AFsySMqE8gpQkApw19LZnix1uIkon0Jk9XvOLlXRFkqrZlupQWFFiMUXtiGbGKmsdIBBJ8y0eYYLpFMMfkfY3CLfZ8azOTdgfgMt90JpVMti0oTsg/qki+1qtNxz587smTIUcLW9OeagDG2cVk8mIwuyD3Zjt9zNKCJqGKCO1EjYHetquZvtQiOk6l2Z5G4otgGzj5wBDP1Glk7m2eFjZZpsnHuGMBuHBmi15oJQAYBgsuJVgCJIOvktp70v29NAJbhwtICC9zK54zfDubu15SERrWjutVvCkWqv9gh2k+zHOEIbFryDwc+f0S9ahqnOGrWEJ6QQngUM11Ppo7qEw1XTbc1VOKrMJ98VfBxvH5YXE0+Hl5fLe43r//sXGfbV5SWI3P8D);lineShape=1;" vertex="1" parent="1">
                    <mxGeometry x="935.102285736848" y="184.39361151386936" width="4.582459842701031" height="9.952716761554877" as="geometry"/>
                </mxCell>
                <mxCell id="39" value="" style="shape=stencil(lVbLctswDPwaXTEAQRLEOU3/IzNxak9dO+M4ffx9oWrohoiENjeZ3pUWwALExHcv+4fn3ZTw5Xo5f939ODxe9xN/mlI6nPa7y+FqTxPfT3z3dL7svlzOr6fH5ffzw4ycn76dv89v+LnwVIHqzEr4azkhhlb+nHxeCMfD6Q1BMmgaCCVBa9sEBMQB3xSYt/EEqY34Cqjb+AyZRjxDCgJQwDLiKXw/ZZAxYFFoeZtgEbd3hBooShWER0kIJW0TmKC5mBNwDQgFSh4JVsYgaJYu4EZoQJEkI4xpVYIclNkk1TFozVACH1nQOjpVBVIgydKqY5Zms2NAMCOMkghv7t3yhmsGjb2hXfEN33oaNszt6qYVSiSo2+CGZ6gSNqdLEUIO9CNU5yMBCvAM5Jo5AwXxitdvzSkUxJtAXDcjUNBr1EBGRdacJegEK4Hr5vkLgSRGSNnHELU/2wQTnySMkiqA4qvwD4I4W2A4gz9MyNht3wnZjBGktZpT3ZDsVl/H21AfFZVurXV87Z/veA6NWhV0DIBCPXYNumsKexXX8Q1UHD6aLHaJSXb4yNc2nhkdXgOXql0YY35St+06vvi+MY8GN47NNVev2g/W8Qri1oR+Ka73Mb7bK8gsFUX80U3nPwj28Hexejocj8te9vZ/v4jZ0bLE8f1v);lineShape=1;" vertex="1" parent="1">
                    <mxGeometry x="943.1819052362439" y="192.68846470976365" width="1.795833866414217" height="3.316505778419799" as="geometry"/>
                </mxCell>
                <mxCell id="41" value="" style="shape=stencil(lVjLUhtBDPwaX1UzkuahM0n+gypMcIVgypDX30eOa9aMvG7CbVlP70rqbknLRm5eHm6ftxtOL6+H/bftr93d68NGPm2Yd08P28Pu1a828nkjN/f7w/brYf/j6e709/Pt8eTx6vv+5/EJv084UWr1iOL053SHlbL9u/PlBHjcPb0BsJDlCeCPSPk6IHcSngDaiBMEWJ8ARamDN3AmmXOoTL0AQCHWCdASab0OEP85ANrIahWgQqlMgF4pt+uA0qmlGcAkIOlqVEJImRQk3S6Iq0osAOA02cxDIQNVah7SnLQzndEbLCYtzj0oaytUZFZrHWVY56FQnquUFYakeShnAQiWhkWmM1MGOUijFEJKxIA4qZRmA3VKKCJX2kx0GR6/FlDgWagCf3rGwQxeM3BeXcjz+UQFxOOc1RbOJ/R8o5zC+dyB1Zi4hvgT6HjH7hNERxUQXGoUqeLzbYS7GJM6ir9Sm/XgBQD1dNfyXJ+ciVFATG0mION+6gzUWUFuGpSCVuI55YynjmvIUnwDFLXFbuc5VGB8d0ENgAR7kdssDJEOp5QszfNMc8HPb3ONdPh0/Xwf+Z1lKoi0PObL2TaGbKZR1mn4bv18I7uwMWrVHzxvPpNnG2TvcwhQSEOBmBSo1ProU0tjTHCI57R0qgVhcBiYRS+7lwRU1XzvmJMoBieg+fgKY9+g7nqjHhaLDp3TvZ2H1aVCb7al3y4NTCBzvhzV0PH6e1rVaGY8RMRjmutqFe+QKdrNBYn87/3HwkooY7Cvb3ixXzSFmwiPqb0QXeBcSGOLeLPeIXVfaPvcEdZLSiV8KCxr97pS45rADc7x7DoOQ6QNEq99J6QAKLDFe0lNIyCBkHzTirudwl3HU+QWAQp06lVSu3gDGguZSos5ZECDyAhgAVRsHd+PWuQB7diugx5y6KRAeT4KY0j23myWmWnnXhHAQ5o7jHPfUUgf/W7+D4BfnD/T73ePj6ev/Le/x896v3X6l4B8/gs=);lineShape=1;" vertex="1" parent="1">
                    <mxGeometry x="946.5690262589192" y="186.11317423781486" width="4.079539861313606" height="6.1013103333848235" as="geometry"/>
                </mxCell>
                <mxCell id="42" value="" style="shape=stencil(lVfLbtswEPwaXRfLN3lO0/8IEKc26tqB47TN32dVlYq4lMbwTTZ3xJl9a3APb/un191g+e16Of/c/Tk8X/eD+zZYezjtd5fDVZ4G9zi4h5fzZffjcn4/PU+/X59Gy/Hp1/n3+Ia/E85S5BFk+WP6g8n4f398n8yPh9PCvJALjbmlZLbNTSTbvj4Rp217a8jFxt4YsoCPvC+0F8iVzm4DnKOiFFjyvA3wTD63gEIMKHmR2N7gxAtAdHAUXQPwQhJoiEzWNIBgKDkAiBRat4ZCHmhIllwrenxFAYBEJbWBdtVvq4Asx63oVKiAOORMuaWUcaRLodiKLkIS5bYQaN1aMjlAyTATs0agehivsC2gkLkhomgA8qscO6MBCWSfMM5eA/6XyBbAtRoWflhHJModJ5TgAlBtYBSB/Co11/kVVXWJlDsAI0qRUpt+4oeIKMWVbLJYg+qVo99Q5FIlsABASplMd4PHuRHtXYA5mxcA1DcEEHwnGhepTldRhQuiFA0IWINqZQIo+AadGlKE+AYfNCBiL3FfQCi9czcWb9do6USUCAHqitEPSETqckOCjwviPkDuto2cKIFkykypDUQ2cKakULeReWp5ysBLsRtCcZ6U6wBHuaUk0x4VROjiIPuEAf07cJ2C87oRartdX2h8baXzQpPgSJFjNaod1xVnHWDIt5G2nhiUnA31eM7vDEXLsRJtxEtocxUC7X4irQ0tQHrESaaARDJ1hVzs0SDI4r6kzANQy3p8WrjHzCv/lzlqFaxnranstsxVK4IlJuZtu2bYfGUVzsockwlBmaM1gfUMZ5gERu9eIgYUlqkxX5gDMrbOuYU5KKo7v+xumsvD10fky+F4nL5Bl+f6o1P+mj5Y3eMn);lineShape=1;" vertex="1" parent="1">
                    <mxGeometry x="949.6026067309454" y="143.4770294336588" width="14.100772728741667" height="17.87230771929258" as="geometry"/>
                </mxCell>
                <mxCell id="43" value="" style="shape=stencil(lVbZctswDPwavWJIggf4nKb/kZk4tSaOnXHcHH9fqBqpIiRv6jeZxhLHLgB2fPe2f3jddcG9Xc6n591H/3jZd/yjC6E/7nfn/qJfHd93fPd0Ou9+nU+/j4/j79eHwXL4ejm9Dzd8jjjvHDk3wIL7Go8yFf578HMEHPrjAlAT1drYh0riASCSzw0gZnIFADJxbABJfTroIZgUCrl4HSCOUgvQK1K+DihzADMgUw7XARpANgAhBlVKmaK0gDqdbAIiU2k9LKjcRLBbxYSZ80Ip2SQq0IZM1832hSIoa6BoAkqTx037lVQrTzdsJ0Bi4vcUQPyFSqtUqRSAUn0h3yYsBTZPmOs3A7TbgIfoqRYLiBXoKJKsABWQnDOFVngiUEbaC4YFrVLG3ebZ0pCBLMSTD5ZnAR5KsUkPUwr1s6NiPOgVIOnsKJoc6jTWtonTImYLQDxwnP5eAkAzaPfwygOjbvCTNhft7EBIcUWDagUMPUds7p9vuGJv2k11UQHNt9oP7dkuEhU7g4C0pKHlQDePgG7TEnHbPN/sNvWQ2hy+2Z7rGYzXs6+W5DTNqO2A2KbMlMDa0QlWzPqnADjgbDnQ5gaqjjq/2vhVVXjecTH2aHpllaTcYF/YTgocj+hO8zfkq7PTiBrXUwebeRxhvrTFpY0f6+Hm9+B/APTj3/PzqT8cxtfr8n/7XNWj8anL938A);lineShape=1;" vertex="1" parent="1">
                    <mxGeometry x="958.07101604029" y="165.63714202388928" width="0.8694185736050547" height="5.22006647143061" as="geometry"/>
                </mxCell>
                <mxCell id="44" value="" style="shape=stencil(lVbLbuMwDPwaXwmJ1IM6d7v/UaDpJthsUqTpPv5+GRh2LTqeojfZ5ljkcDjSIA9v+6fX3cDh7Xo5/9z9OTxf94N8G5gPp/3ucrjaapDHQR5ezpfdj8v5/fQ8Pr8+3SJvq1/n37c//B1xlUnqDcXh3/imkI4vvo/xx8NpEa+JUujiuVGI24AmpK0DpDL94j6gkmoHyJUCSKk1KtIBbM/QAKBQ4B6QqYCUdC5xBlSqvA2ojcSl1IhlG1CUQvCAptuAXIhXANS4lCn2tDalBlKSMrG+KJrzNsCEoNnTiqTBlaIDMKUEAEpcOoB1RkEfRHwNWimBlFKk4HbIlACtOVLqtWQTwkBLxVJKPUCogqJrohr9DhE0zjJm9jUIANi4pOJZYkCrKSev+oAGKIaw0jcTI9uoVNyMJlJkG5GK07fZBpggZaq9MVlZClKq0RtTw+orgWJf9IKH+/JTKs1vgVonOmWwqFpB1RIpr4YU8WpDunZXAVUbIDnfCFNrNgHlS4Dmp9p4QzMXmz+0jAYBrQ7T1zkj6BorcVtFwCjjRPh8wFEGPZ7Ppjl5qgX8PVLsNWSTBvwl6uTqs0rhcWsXBOnjA+RSsje8T2ZAPD02RsiBeXLDj3gk6NwoJ1evgm6VO/wzUGexg7uXc4In+VdvYJ/H2+LjuvdyOB7H2+Lyu78e2qvxaimP/wE=);lineShape=1;" vertex="1" parent="1">
                    <mxGeometry x="960.8529666623967" y="169.12695571451894" width="0.9673836392233748" height="4.3303515791658045" as="geometry"/>
                </mxCell>
                <mxCell id="45" value="" style="shape=stencil(nVdJchsxDHyNriiQ4Hp2nH+4ynKkimK5ZDnL74PJhGMDklpRbrOgSQINNMCV3L1uHl7Wq8ivx8P+6/rH9vG4WcmnVYzb5836sD3q00ruV3L3tD+svxz2b8+P8/vLw2Q5PX3bf59W+DnjYqUUJ1TkX/OXTln+fPg82++2z9Y+NGMfmSoGRAsQptghoFcDSIliAIBGoRhAjhQrAKiLdodSiQFACrH1obbh1VlAKiQ2qi1RLZcBWY/kdlAAcLoU6t063ahmAOjUsg1rowSIq4EkWOKUGQCYdrA8KDMtQh+iBYRAjHyQE0CkBojTsHpAogCOlBOV6gEFEJe650EBKKwpU2ULEEpoB03m7KPUEgAwsd2hw9yT7kt60YRL9s2lHqwedYCtA5E6cjh7SVoy8RIFjjOGxakcS3L2fwN23r5Rz84+gfU1Szm48xcgeFoGbOMpeP1Krbn4FxD/ovpo12/EIH8mabHrBx4ROw/QgLoaiEP/zgP4pMqEKqJMlUJ8lWWkp2F0sY8AQEKqPkn1SA1lqfi+pk4nXJa5+7AmcCSts+h5Q31Q7ZOvS6gTwde9UAGs3WrfZWjz4nCDhdbbiVBUSFrgE6mTRgVtoTGygMwUgFz3OkhdZoUAWejJ50WNUI5aG1FcaA6wbdY+aF30nYdXFwvaEtGXL5eqx9cnY42UPHrYsoV2FdDKQ/Zctw7PJH6iqhl2EZ1Krf0kg4C3k0y6MkSyF9UrUyp70b4yBrMX4Stz9vL33+b4MMag957f0Yzt56gCMy75jqZsA64KZVfFw/nzJUaSnXlErqou22yOUBc1NUu/xV6n3HDDeaZxoNzg7hTNekM09Xe34cRkKfVs9URzAejPf1wZr9jrw/v99Gm7283X24///X1WP813Ybn/DQ==);lineShape=1;" vertex="1" parent="1">
                    <mxGeometry x="963.8450119050844" y="166.3063948912071" width="2.9409771603737185" height="5.824975521568634" as="geometry"/>
                </mxCell>
                <mxCell id="50" value="" style="shape=stencil(rVZdb9swDPw1fiUkUpKl5677HwWaLsaypEizrf33o+c6Cen4ggF7c5w7i193VCcPb9un103H4e10PHzf/B6eT9tOvnTMw367OQ4nferksZOHl8Nx8+14+Ll/nn6/Po3I8enH4df4hfeJl6n1I4nDx/wi8N8XXyf4bthfwTlStHjuqdR1giihGYJkymmdkCIVNoTxDTghM/XNE/qyTiiJQrEhFYrghCbElsBzUrfxiWow+EAhAHwh6R2+ZYDvqUabMcZX3+QYKaOEG/ViEw4UZZ0QwznDM+P8jdUjXBMaCeiaEoKNKVUKEVap2ZByoh5lXSg5LWjhUEjJn1C0TCgkmVO8OiECubVIzc52FjyqYY74XKVMFZ0QfEgqhopyCAsx9BSQGgIVS4jYMjTpT4OYCY0yagPPbT2nQBnLky1ea4DwWsHi8Izw/aKkJEj+lYq4fOFQaDnEF/QOwemfddSx/t1g61AwGgrVrhNnvpezWJe/2PiaOP2iUhf8nwRdC9W1QeCm0oidzY+mBk5IqgQ72Fe+eXvdNqp2VHXYCyDERmyzrkwJiEcWFqYmCXaJdsl+vzAJwEdv8+p4yObVv2yJ1PBQhRb2lQpcbVpv+31dOwn0bLHXhOEmVGvIVmq6JCDe1TNqfYDSFt4YdSBgv7KNv0Lvknm6LtfBz514e6K98ybY3H+8bN6F68PlXvsy7HbTtfj6f38P1lfTHVoe/wA=);lineShape=1;" vertex="1" parent="1">
                    <mxGeometry x="970.1535674478728" y="187.61639516402118" width="4.127424336956859" height="0.6696525292718434" as="geometry"/>
                </mxCell>
                <mxCell id="51" value="" style="shape=stencil(7VnJbhsxDP0aXwlK1EKd0/Y/AsRpjKZxkKTb35cDQ+MRZ/yMAD0FvXl50lDke1w0O7l5fbh93u8iv769HL/tfx3u3h528mkX4+HpYf9yeLNPO/m8k5v748v+68vxx9Pd6fvz7YScPn0//px2+H1a14jLtCjyn9MPMZCefvlywj8enhb42v/teFEK8TK+kOQBnxOFcBmfKdYBXxLVdBmfSEZ8zZTaZbxQHe3RTAXYI1RGfIvU9B32tEIN+CdR1BFfqQD7E3Eb8UoJ2l8d3iIO/Cl9twU+A/tnbyzwmhE+84APzMSMFnD0D2iAoIFy8fgqCB+SxwvAMyn7AFRACKacPB4JgCm5/SsJOC9vEC5XFODo/MNUAN4E6QRjAgYBrtRGwtXUPbDtf6Ymo+KNgyhgQm30aA5UAYNC8RxNDF0amueQcGfhNkcjxTFoE60AKUzGOrI6pJ74theYW10eooCibLIZvaqdJ9v4Qjz6KEQS4FRpFMc4B6UCwpaiz1x2JnTklFalxlIjSr2102COM5ZmNm2Oh86NEohzll5bZq42SO5cvJproYjKn4XVycfSHYiDlUeufgEqCKWQuifknhK2Bc09rvOhFVLDBO8UbadCejOLZVS0BQ4VQbWqPMrHqIGqlFrOdQK1tgKQb6raYx0Mne/b+OrTKkM1GL6Kw6OEYUVjtT+qmlNRan5/hG++D7E6hOxpvWic/cPIP613QWe8Av8vuoI5YrAPnB4wBsw4gg/sGrsEE+TkoOLwDeEtACM+w7ZiCrATDUxFbZXsTMUYH53GuoEXBeCSKQ5w8fYIzO6GLyPhrN7g/XX0jzV6oA2x8wYvMMWCzNXhUZKzeLEXDOP4upTFsA83vq3sh/xp3R2L86L4zm362Z9X9OL6ukjpih5d9SZB/Gx+MEvdAf8GH3ydtPYjgwNr8WXPusYMCqvGLthFX4pSRNXOgEXnG1CdFK+BGqmABaX5KqMMp9eSfZYwN6DSXbhPz/OCSgno0jqispon6pWeazSpzu35pa5OivcSqpXWN8qYugq+A7HONK4ijVqoNE8DCy4hL4n6J9gEgjoiyZ0IM72lD27bC4LPFyHDDmG6+XELKszAccWlKyXZMkoZU8w0xaAncJ9EZ7dGOPuaxW6YNXYpcKtNZeIa/tzzzvYCy6KOrRXejzVfRhSP+x/gfil6/P/7pQ90v7Tq21uE/mGvMMV5aHVdZOMm8k/o1WVRZNHkEX1By1cSqU+LNoqixih5eyaGoHsTUpdFGU6i2fc5020W2D/7C9+g0D/Z2xPwzVLpbF/gGXUUG2WmAX8ae3W1Pzhv7adb2g8SkP278k9FdxOrwRjfKakfjKeqhganXhIX/IE3Ae98wXMdbx/Ob5PuD4+Pp5dRy//92yf76fTmSj7/BQ==);lineShape=1;" vertex="1" parent="1">
                    <mxGeometry x="960.1271245628309" y="31.671267964286997" width="9.144028636672633" height="5.617170927725267" as="geometry"/>
                </mxCell>
                <mxCell id="52" value="" style="shape=stencil(lVbbbtswDP0avxKSKFHUc9f9R4Gmi7EsKdLs9vejZ2gNlfgUA/LgyDwWL+eQnPjhbf/0uptSeLucT193P+fny37iT1NK83G/O88Xe5r4ceKHl9N59+V8+n58Xv+/Pi2Wy9O304/lC79WnJAhll/4vR4E4vz34PNqfpiPV+YpkWRnHzNp2gZwIQ0OkCIpuCFnat6jxCRlG1AKNfYApaLbABEq4gCcKYMYmpAWByiNGnCpKaXqAMJUGgA0Yh+DKKlAQIsOUEuv5CbAx6CRGsiSAbLPkiplHHRWB2hMDVS6VYo+BjtRlKVCxXPJnFQUA3duXgEE3ZAo5dElRnUII/nszojqECh4l7RC8ql5PAACpIYBqq90zT3RWy5lf4NUagEAIhWfJUmYrUzBV9oEVBgAMoknXzFJIfLJKCC7IVZIPr2JIWI9hEGiQg1LtPomULnX/i4gBuOG53e1b6A0GTe85NTygKLWsZMtjEdBVJJBckIVpUkoDDc03DYysY/hKg9bIq2DSBVHnUZFfACQ0jV8LSHQN0oea20SqiAGm3LRE9zoh/q3jah6o4iIJnW4GVo2u0EbyJ0I3T7HPrrvezQWOgcoURs3PkVc4UyMFDwvmPsX7tpbF/OsSK1zd8M+eH8sA0hsN+KMDe4lYRwltilh+6HAMfSOs5Gf4vP/T3n3+TCaJzicmarv2AFO2txb4bs5kvB/bp0fmtvD+4L7Mh8O6358/X5ciO1oXab58Q8=);lineShape=1;" vertex="1" parent="1">
                    <mxGeometry x="972.0671399438152" y="32.94254067524287" width="4.012427003966097" height="0.9981290335242973" as="geometry"/>
                </mxCell>
                <mxCell id="53" value="" style="shape=stencil(lVZJcuMwDHyNrl0kwfWc5R+pijNWxbFTjrP9fqDRSDFFu2PftDRIAN1ospObt/XD66pz5u2w3z2vPvvHw7qT2865frte7fuDPnVy18nN026/+rPfvW8fx/fXhwE5PL3sPoYVvsa4jGyGIGe+xw8WPv77cD/CN/32CK54KRXew/rzeO/hQoUXpHQeXwxyvb6BMQQvy/wdoiP4CG/reg0c2yDD+3oDi0IqLgUx1xVHRDkfYM1c4hQRHJKlW0isAmJGYAEJuS4iOwijISDUNBQ3LXE6QH/XPGvjMqk6F5S6aK2KFZ0TzGKHAMkkwCPWVOcIIVRrT7KrApJMajkdYJFrqkOGYSk1Ad5ObbgwJRcRCHFt0VYQyzVt9XSAWt50fsj6rTAs7FXKS7DEkFpp24TI5/O/8uf5tAiEgxPz6ROEz+fCAqJMtnmhySQVEutSY2PKS2YpNT6pjaMpmaVUj/pwoXX/FtEeDlqXI6bRnj4ql0zU0Zxu2ulAxBGXxGmXLEnIN3iHQgxA/9bjPFgSyWdW5qyLhEDWN9MxMAsvwRFZtCdPmMb1MrxSaCl+kY/oyUbyb+rVjnniRk0/B7cjemj4Uvcj7Wnk4K5TG79L/QrXh59r21O/2Yy3vuP/y2uefhqviHL3Fw==);lineShape=1;" vertex="1" parent="1">
                    <mxGeometry x="972.324998018782" y="36.4835073064403" width="2.575319326515455" height="0.4701366147979635" as="geometry"/>
                </mxCell>
                <mxCell id="54" value="" style="shape=stencil(lVZdU9tADPw1ftXcSff5TOF/MENoPKQJEwIt/55zzUFkxdv0zbns2pJWWt0gNy/b++fNwO7ldDw8bX6PD6ftID8G5nG/3RzHU3sa5HaQm8fDcfPzeHjdP8y/n+8n5PT06/A2veHPzKtMlScWu/fPk0qp/j25mwm7cX9GyIlc1oRMsawTkiNfNCFRCeuEUEnKMiT26wSJVNySgL6QyesUvHPkHAiJislZQM5MRRe11B7iRbwnFoXPhVxaxzviqPBJSDLCO12gkImByI6ixounAPCessb7TEmAYhR0PZsiIN1ISZfTdwFX5K1BwR1M1psGDf17l/FMfpGt9PwvE4SiVwROFFFEYalv8H1MryTE0oNcDUnnkJsmQDGbdEkkYChtVWuEM2NUa0OcwQdMU9RCBfdc0niGJmF6ujAJnMlFRVPpJ9fNZGRovGbmJVFCAiw9pZ1UUB/jWZOCIJ7miVpfhuEYz8WO+59wuwIcdBS7YxxlkKxdYgLfb7ckUwADbNewg9NVQ/fXb0vMIJ62chfdkGA9235LutuaARQUUOn1O2u3DEy6TXfUBGHoD2c7+ssVAzloQXbGIlUgsw0qZbgLbNptczOYMlvY0lYxUsIo17SH0pnWaEF+WseVvfePK+AVhPbwfeN8HHe7+cJ6/v/yhtqO5tut3H4A);lineShape=1;" vertex="1" parent="1">
                    <mxGeometry x="981.837290574801" y="32.11510368845005" width="2.994868880460802" height="0.4298093641713357" as="geometry"/>
                </mxCell>
                <mxCell id="55" value="" style="shape=stencil(lVjbchoxDP0aXjW2ZVv2c5r+R2ZCClMKGUJ6+ftqS7ysZTg0b2Sjs9b1HHlX/PC2eXpdr4J7Ox0P39e/ts+nzYq/rELY7jfr4/akv1b8uOKHl8Nx/e14eN8/n/9+fZosp18/Dj+nN/w+42KlKhMquD8fTyjGfw++nu132/3SPpNwZ+8jpQQAiXLoAMFRdRAQDCBTDRDw8b4G4EAZnSA2BhaKAJBcc2BOkicGLmVH0QDUSZClnMkbgBDLbYAEKn0MWkkHXJJKuXSA5MmBE0qmEHsAUwaAGojNCUIlA4D2Uh90ZthLVUPsg84alb8N8M6R63tDEjFA6BGmEMVTZABIVPo0FSFXAcBR6tNUPRVQucLkDUBnCqRJIuXcAwoF1H3RNpOmAU1QUpLwPQtcMn195ubKLo6oIE06w6UMAFC5ECgMgAIAkbwbDgAhBJJq7QV0hrfEp/YBUKsjMf4UigXZ+77xqlCC7zejoPOXQLxuyGe6449Rkhpbp9/ITzXvZ1hgpuCtfUK6QImtfQR0lFq3LOwF5DM3bxfxMugHsWyn+fTAnzLUV0UCTPFoL+TBhI3+lEY0t+Id+tmBeqXGav9JKrF173J+gT9s94TJHvTD2G8VrjpjPxcSUC+dl2rzX4BeXpvHAuo7znuC/DbySYRy7JuULuw95sNhfpEYxyaLy3lEq+Yn7ScBiAMAFICvRcBYxNhZAFq60swgMyBAjs6hieJyOUCk4uzye9kvrgOkkeC8rxRKiIZyW3VngE4eyFKplnhFV0kQgy5MRimzQKWZVrK+cLpwCwo6N6aaV1PVVsCNulea1kj5XuFKn1bdkQQ0X0pNfGdAaGm43nzKtr1L+gTqn/ZS75JeQjyah2IVjStUNL02GQpjhhLF2QatqoIqrSf4PgZf4WVQY0h9L3mGKhud3X0Dvp76JqoXe4fer/Pbh+zhBUSrlnt/Zh6/xUmGtlWHQJGjXg6qsXegxnGQ8TuL/rAmOLiF6D23RmOfkP9lzKdHKlKbBlzskQrGagk1tIvzrW8Drn8/vsN++oPLXXv9cfm687Ld7c4fh5b/t1+D9NH5SxI//gU=);lineShape=1;" vertex="1" parent="1">
                    <mxGeometry x="979.389923041128" y="32.10290760584574" width="4.874671920988736" height="6.1929418984855475" as="geometry"/>
                </mxCell>
                <mxCell id="56" value="" style="shape=stencil(rZfbbtswDIafxrcEJep43XXvUaDpYixLijTd1rcvPcOJRcX/MGB3PvATxV8kTQ/y8LZ/et0Nnt8u59P33a/x+bIf5Mvg/Xjc787jRa8GeRzk4eV03n07n96Pz/P969NkOV39OP2cVvg9c4GCmyDPH/MDplr/PPg6mx/G48rcCfnS2OuTELYBdeByA/hMqWwDouvFBpBC3m0DofMQmabbLSBGitwAScjxNpASBd8AOVDK20BOFFtViyw+7wIlkwsNUB0VoFJNVFuVaqQUAZApBwtEcNK1WJUUyMhDteegm3QCgdQBCW2pdkFnkoSBNls1KkayVsrJAhmctAJiVKp4S6ULWn2iLWWqbS45ZmKQTEo4b12golbZpXR7QkcdO5muOmwBIp2uGHAdAINWoNrc8EjXSMEAmn2gbehr9haAyZSWENcVhDxkCtkCEXnQzpgsgBqTArXzAFOjUhQbdMBA6c4BdYFVNq+IAj4pk4uuSCPuTKHLb4d1tUFor8JVbXvftVf9H6CEroICVCmLPbmSliXuf+XEllzWCgJbip64VSnhT0pg2zZ0iQxk9dWm622J+wAvw8h1eNDsQgdnO5+LsN+ztddpBXQltpJ6qqABdJXgl+lsy9x8GeDMwDblHAkM1cxhOhnCUEsw5hGE6mw668yGusQS2c2cQWqqbsmag70Lsd0MauxaWdnuHZgH4k4ZVCX/NpH/1VwvbsP/y3g4zP8O6/f2Z0EfzT8a8vgJ);lineShape=1;" vertex="1" parent="1">
                    <mxGeometry x="960.8705903605501" y="42.591183169960445" width="6.7121332063714885" height="7.368495847986684" as="geometry"/>
                </mxCell>
                <mxCell id="57" value="" style="shape=stencil(rZdNctswDIVPoy2GJPgDrtP0HpmJU3vq2hnHaZvbB6pGigiOnjbdyTI+EiCAJ3Dgh7fj0+thCO7tfrv+PPw5Pd+PA38bQjhdjofb6a5PAz8O/PByvR1+3K7vl+fp9+vTaDk+/br+Hlf4O3G1Ug4jFdzH9IbJuX8vvk/259NlZS9CxTX2PlON20DJlFuAAzm/DeRCUhsgBoq8DaRC2TdAinCHqB5zA+REAgDOxG0MpZBL20DI5NsdJFOs24AvxKkBKhMHADji3AJ6DAUETRLbvDkHM738u9pAQAiOvHEoUADre0+ptGekS6AzWtZbslBh2hSo3gIZ1KpnyqkDkEuRmC1QQRYUELFBo+L2iUKbN/HkUAyJWCxQdnYwgPYbKr1Itc20MOwGBWK0QMJ5KGIByRBw3Q4VuRTm7lrvgIL2lDuXokDAd8daUQzO6p6EPQkQIzJ+FvMtl0xLa/Eh7VYgdgCjY/Vz9a/7Abdo7gAkY5rp2IlAxsXnOxEQDBRvgw4ocYl8tIDgjjParYlLSCoVMDsELJWJXFdLO0FnU0vLQf8fIHWfEywanQTUTAmELLOMLvYRS4ZmzTjkqIDuUY9sxDpmAAXgDihaWiCEGK1kZIYx65wjrYolD3fIKt1mtsK1XdhOb6HCY5VkgbGfQENrWmMbg9uzL9HYR6BhOrX4ZOxR64xjlDP26HtbZS6ClT3oA7VP1h+H4q22cdw8EWzZs/UnAQWuy4TzZY8SrPbVJJgCEmzXDZIe9tm4QeuQah0+IMnGPu8E3BYcvvHs2+vD1/Xq5XQ+T7ez9f/2OqavpqscP34C);lineShape=1;" vertex="1" parent="1">
                    <mxGeometry x="958.2783706902314" y="44.236930047366286" width="8.1256947461986" height="8.578928898649012" as="geometry"/>
                </mxCell>
                <mxCell id="58" value="" style="shape=stencil(lVbZctswDPwavWJIgOdzmv5HZuLUmjh2xnFz/H2haqSahL2p32R6FyCwODjI3dv24XUzsHs7HQ/Pm4/x8bQd5MfAPO63m+N40q9B7ge5ezocN7+Oh9/7x/n368OEnL5eDu+Thc+Zl8nJRGL3NR84cu7vwc8Zvhv3Z3AJ5Ft8IPbX8ZEptfi0OLyIr0LCDZ4pA/s1UogNPpKvAJ9JcoP3TJIAoVBJ7YWEAiJUyq0HUZ/xOsG7NeVrDEwRu4hdUjNFlKVCoc1qcZQYEFIfRHUUESFQbnVQE74AgoZYW4KWIorBLSGuBKYKCKUslbMGHUhA7ZVModUhM/kACKn3EDOlmwhBqw8RzJW0YQsimKB9pIRqyaRVZbhJN1UBNZwWRts/QuW2yqOA7JvS9pUEEUzzCMPmudCfIS9T5z9HQGIsghkyOVFEHswY00pJiGDmpAoDddBB3LVbJkZ5NZP7G4JdDWqi5usEu3s0qgw8mN12JuXlKy3zYXVQoAxCOfRJZRAB9/an/gYieOJuIJVlHlzEOwqtZroXMph4dvHodgb3sY2AFTP30VZD+THx6kkEApt86jKPqIJ6vSJMjykHD9v+xqfUt3D9+Pdqexp3u/nRd/5//8rTo/mFKPd/AA==);lineShape=1;" vertex="1" parent="1">
                    <mxGeometry x="972.3471884449109" y="45.01556246223859" width="2.9089229564212604" height="0.4117461692728414" as="geometry"/>
                </mxCell>
                <mxCell id="59" value="" style="shape=stencil(lVbLbhsxDPyavRIS9aB0TtL/MBCnXtSxA8dpm78Pt4tdm3QyaG5rmSORnBlKQ7p73W1etgOH1/Pp+Gv7Z3w874Z0PzCPh932NJ71a0gPQ7p7Op62P0/Ht8Pj/PtlM0VOX8/H39MOf2dcZGpxQnF4n1dSolj+rfyYAfvxcAWQRokNIFBrX8e3TCG7+FhBfKciJp6pg/17pmT37xRA/l2oVRMfhSQDQCcpNqFGkSHAt7RjQFsyXgBZm9BhzTUZQGmUwQna1G4BNZMEyFp2AO0SoE1lIdEDGNQgiZLluepK+hpQG3VLXKmUQA21UHdtrdQB09qTak9IlRi0VU9g6wXWFQEAoeLEpwBQtETKFiDQPVIpN3sAdcQzL8q8uDOgeFWB37+CfLqOF8fyopPP4+uNO5UUBOh+HHGmAkiOYa1wZblQBqSpPZv1guqI0cQo3m2lkACWe1xqXLvEUKlNlX/jNjRiJgB/B6BTt1jz9AaZi21x78pcwFpSZoPVxkQmOkL3s1WrXCq4G9QMLp6JgVqTN9ulz58n5EsWHfQgn/XmW+MjMYx3StURGUD+wZtNdRcQySRWFFmg2dQn9qrNEfaz+Xx0niZwN3/7MfIfAP24vH2exv1+fjpd/+/fSro0v7PSwwc=);lineShape=1;" vertex="1" parent="1">
                    <mxGeometry x="973.7076781283399" y="47.54638057123728" width="1.2179008244085188" height="0.6338525460012079" as="geometry"/>
                </mxCell>
                <mxCell id="60" value="" style="shape=stencil(lVjZctswDPwavWJAgudzmv5HZuLUnrp2xnGvvy9cDRURlLfNmyxjRVwLrDTJw9v+6XU3eX67Xs5fdz8Pz9f9JJ8m7w+n/e5yuOrVJI+TPLycL7svl/P30/P8+/XpZnm7+nb+cXvCrxmXA0W+oTz/nu8wZfl74/NsfzycVvYlkXOdvd5I9+2rUIqdvXMkFQAy+dIDImUHAJVK6gAaQuX7AMdM3MesQSQQdC1UfQcQTxwBYEnKAsjNy22AJ5c7QBAKAFAKBekBBQMiSe9S9BQDrHTsCxH1jgcxOJulxCQoS8X2RsqUCgTkvnDZU0EnaBL7E7KeibPkagcoQhlkKWta+8JpZQS0awrE/QkV91LUtPaFq4EqyJJUCj1FlVOcgUuU+hBWDNkEhJbD5YBKFcSsRfLWPoAZoBOi720tfAH+sG1tDRj5M/Bf+YomBpM3JYtUoP/eFABXzFseqL0HBQsU+oJpnxfAzLRhn0G8xbJG7fFEtazRAAIogO6A6G1GHciQ8yRDyRwIWQEh2J5wgMjqUh2azoGloEGXAVDRZiNvPKqUQAiZZLCvYHbpJBpYVkEX6WzkwR/wfEe5WHsG9tyiW+XHg3i5jcFVxTyoGLcGWLUEfn4x+YyQZX54vjY1mrtDPyhrgP+xzbT/ZOVH7SW2/b4AXNNW22MlNQWx7LIKF7gKgmK2ZYItnRJxn1Ndr0gNqjzlfnRlpRHSp9IUxEoiCHBJAWwEbYYLPCeb1qSdAuqQHZVBSKF1kIWikWoMR5G6ZE4ImApl4GZwbdpsA3Qh9c0niQTEcGsEo4Bd29LbgGxFgq6tCJpPdZbZsspYGLS+6hidE+AJ2mpGJ+jMF1Bpbe/U8yFC/qTlzWYpAxWkHaOlT4AvX6o1jbBY9PBde1MDyojOKmuisWfsfzIJxfkZqMZQBypzszf2goTvssDe7SGTeXxZRjpZmV+t/4yJL/b5gnj/wZf3f9vrxfuXgpfD8Th/aFj/b78s6K35q4Q8/gE=);lineShape=1;" vertex="1" parent="1">
                    <mxGeometry x="980.3687709070996" y="43.07980762848942" width="3.6909631201955824" height="7.2921167808408915" as="geometry"/>
                </mxCell>
                <mxCell id="61" value="" style="shape=stencil(lVjZTuQwEPyaeW35bNvPLPsfSAzLaFkGDez191vZkUPcSQoh8RAyrriP6uq2D/Hm9fHu5XgI7vXtcv5+/H26f3s8xC+HEE7Pj8fL6Q1Ph3h7iDcP58vx2+X88/n++v/L3bRyevpx/jV94c8VVwSI6c/9vb4IEvT/i6/X5U+n58XyKnlc3qTW/eXeSU3Deq/iGCBIK6M9TlwkgCzVOJAkFAJoknUEVIlkh+l7IyAG8YEAmqTRpJgkEpNiFtdGQJaU9wHJi2YLaAywyhsAxe8DchZt1odGABokjYmLUZIjgCrJhNVLJGEtUeLIJSSuksQV7dycATyspUkz1AiSiQ81ix/zALZmkuk2M2fBVkd2aFHayulACqjBpGbzwCq6qQQ/App4Dmij0wlvGgEUKaNJOXU6bgOqlDFx6iUlAmiiY1i1iFJdcj3sHQF6NUImbJFHm8osJHtOuJFMNUlhTqDkxgqqEBJSciCTG7kBtmTiQy395xlQKPtq6FybAY1qJVTAcAOARpxGYkuyABZWdVLGsCLQVJiceG8BjtRoRktTGyWm9zp3qBmgtIIAUGNSlkAqCFHKJkpJlIlr6Oq+AFCTIEPBAljf1SxxtUNgeVCr95MPzOli9R5RYvUAgE2cSmRRKnbYQKaZVk6qsiJfYDustBL0doxLuavQAqAsDxAVZwGN0FvRRseaXojhHplM08IWhTnhxa289qTxoiCszlQ6MU01OrYUZI51CACa8UH7wLJnUjTcyFyYfGfCgt+VhzWuAKy1I3OmBU01ysQ1raKUuJJ9FjA1CEPXQAdRTEzN7ODomIge6McooYvRrohRYTSpxq6eeyOWadTo7KyoATCzcUGU2OyAkht3wPDrmUnBNmqQhckGnDaDaJ7PFHth1VFcU+lNaRuApjnqfXL0JFe169biBMEqrs7qPgO4LmEHY1JA32U7BJs4HNXYDqXYvhtn9dwGoFEbH7RXyF7FmdNorP0T20KmXVQWeQiEGjj6VTOue1rT+F6NFhCJ8iEmZg7FJ5QAcAwz8w+cbiQPOLObHeI8LG8DoqU3DpcsSs2ej8MH7cF6EHzvw9tBtWOuL5RIXppt0t2jzfWrETR22dxbPpIo0IMxRmhjTb902VluOI3YE9u9HS8cPSd5e+GDTk1sD1aGHI1M7Af+9+VMIZKdElxvJtvVa2cER+fNbA//jmq0Ss4m7kyhdcUxSrFP3hR+uBwP75eSD6enp+ud5vJ3e4mJV9cL0Hj7Dw==);lineShape=1;" vertex="1" parent="1">
                    <mxGeometry x="961.9172652876264" y="55.15792704517702" width="5.831465037209584" height="7.907872489134986" as="geometry"/>
                </mxCell>
                <mxCell id="62" value="" style="shape=stencil(lVfLbhsxDPyavRKSSL3OafofAeLURt04cNzX35fbhVRTjibNbb2rkURyZkgvfPe6f3jZLcG9Xs6nr7ufh8fLfuFPSwiH5/3ufLjo08L3C989nc67L+fT9+fH7ffLw7pyffp2+rHu8GvDMfmygoL7vb1w5NzfF5+35cfD89Vyz1Tseu8pyxwQEjlvAMFTjHMAC5VqAYm4zgESiZMBcKDEc0BMFJ0FFCog6JSpsgGIXjLNAbmStzFIpgiuVDNxGAEOnFDLWDcpLaoZoEYDiAHWodb2uQNwlhRQbaVTooS45DrXGiJH8gEeUewRhUkyBLANojrKBaYp2bzWRAGwTytXsgVUEg8BQ9BrVIgbibzlt24h6EqRRCxABQE0WmWsXImU0QnS9uuFy5QQXW8ASSWCyCSj5JKHxrQGbbMUhQKqQ7pRUG15mxZucIFMAV1JbcONgIzoXSjbOkTX0jCltyXf6m3vCMj6TOqG/t8aDRRQqesYdVHJYY1Gm9dScBBqZTYIZUvG3ucHF1CZoyvlpvne5Rzuix9HaI9wN06TAGG1C43WJI3zsz4XrOhKbZyfdVJn6VQEqlR7dbSA3A337WkgthA7gCkDgM4bPPiAbgHIEVrLuVIEgyT5kUtqGwVQwxMP+/smqTfXd+5feYCAlLpxmBEP7+NagfosEykCF7uRcyiwIbqREmvG4PohPz7CMcNRsrpRh0J8aI7b008BZN+P80Iv94Q8Mg7DHuTyg7Pzu8v14d+Y/nQ4Hrcp//r7ONbrq+0vAd//AQ==);lineShape=1;" vertex="1" parent="1">
                    <mxGeometry x="973.2043894288954" y="57.395071523106225" width="5.887923429363062" height="0.6005248593986282" as="geometry"/>
                </mxCell>
                <mxCell id="63" value="" style="shape=stencil(lVbZUsMwDPyavGps+X7m+A9mKDRDaZlSrr9HIZO2tsi2eQtm17VWq6NzN+/rh7dVx+b9sN+9rL76x8O6c7cdc79dr/b9Qb46d9e5m6fdfvW8331sH8e/3x4G5PD1uvscbvgeeUy5DCQ2P+OBIWP+Du5H+KbfnsMNhVzhmZydx7tAMVV4RyXP473gucIHsmUeHyLl+j2RTJrHx0TJNPgE3p8K2RqfyIL7S5rkOMWbgZ4lT9ed3sMM8cVXeOswoVCoCezJgAwIoTQRJIp+nmDN0TLHnDEFFHShXP+EpMVigot1Fo6vnJOpSXMWHYCPJG9NHRQxHtI1keGWUBwgRLK1U4vFhEC+Djo7Cojgp/uOKlmKmBBDnbhEHrlbEbxkGqmknsSZXFgStI3TyZWyZtgAdN78JXxjDD8dXOk8a8jjAm28LT32QjE01eMYFsM/BeoTBVQ+qgdEafNIJdVlUpga1ZV9LEsjxro2jbI4SqiPqU4sVmGk61KCng1FpimoNz18JAZeNN2EgHqGHp9SgXnRfJagDbCrXgBEtwhiUAvGmR1nCNyIlCmAlmFb60nIDLxqqDRtNcEClfKtA0iZPHi/URNd0g5ypqcnzoAuZvEEjLd5j7QLrE+o7x8UBglWelqZCeB+la8A5VF2sOSBG5bus5fg8nFanZ/6zWbcvM//367acjSu6e7uFw==);lineShape=1;" vertex="1" parent="1">
                    <mxGeometry x="974.026857902049" y="61.50690862212528" width="5.887379980458978" height="0.3433430515083923" as="geometry"/>
                </mxCell>
                <mxCell id="64" value="" style="shape=stencil(lVfLctswDPwaXzEkwOc5Tf8jM3FqT10747ivvy9UlYoIWpvpTSKxIna5AKmdPLwdnl73O3Zvt+vl6/7n8fl22MmnHfPxfNhfjzd92snjTh5eLtf9l+vl+/l5fn99miKnp2+XH9MXfs04TiR1QrH7PY9kSuHvwOc5/nQ8r+K9TucunisFBwBCxXWAkCgzBvgOEBMVBIjEPYWUKcg2gB2F0HOObeQuQJRiT7oE8mCFKG16ARRioFL1FEsPSORASlWo+gEAVKppSClRrABQyJkVdO8RoJL0spZK7CGg9qSrayNbgGIADK2hANenVANFJGtu0wsgUo0AECmmHpCoopSE2HDIJMBLkybJAjxISa1WxKYkYON0X723pD1QabJaX9PKKgLSJVIyAE8ZWEMBhnRZ9n6LgxsrDquUhwKqGe7DP6utAB65VZqIC2BhteWlMKwg2K2mkakMjDiURnGlUkIpqerRlqiAFbxzgzf4oy4QBjNV3JhGu0ZUQYl4qFHIOpAzrHP7xCZgqFEECJlyb9eVcPfPIG6n5op1ADL5QSYtoQSKNA/93kFZXdul5dgt8EAZjKHnekDnus0n4K4USPpNm+42oAN4T6WvntAuEvfjmaJZAJazXmRSbwrfbjZb9xjXF6cqjG5WyXrI4fxL69Hv8chxOm3Oc9dcfj+eyTsTH1C86lOMPh7kr9tjDMc4PtpmJxSA/mqXaP2QQX/XeJO/9hng5/+9an8crw/v9/qX4+k0/xas5+1/gA7N/xDy+Ac=);lineShape=1;" vertex="1" parent="1">
                    <mxGeometry x="981.6305471979495" y="57.632590752080375" width="2.7261723066123005" height="3.454494103017607" as="geometry"/>
                </mxCell>
                <mxCell id="65" value="" style="shape=stencil(lZbRchoxDEW/Zl/v2JZsy89p+h+ZCSk7pZAhpG3+PqLbTbAWFHhbjM5qJV3JGujuZf3wvBpSeDnsdz9Xf8bHw3qgb0NK43a92o8HfRrofqC7p91+9WO/e90+Tr+fH46Wx6dfu9/HN/yduBgCQjhiKbxNRwkk/w6+T8Bm3J4ATdCos48ZpThAAPUABZR2GRBGiB3AEcEBakXNHZATSr4MFEHsPZSM4AC5WqAKanAADbF2QKto6TLADVF6QJCdoDkj9XVrbT45C5B6IAt4haOIkizwv/ZngUTg0kvjU11nCZUON+tCHBeak2ztuToxgIrNqhdCAC+qkJwqhEURKooTcEI231PQHOHV2fuJvdedkWaVfQAZzQFSRGULVCejSTWwBJwUUZ178SSG4LWC9r9YgJ0ksaqCbRU8D9qdWSzgjSTtzmbaWUBOlrigGg9tnmrngQhaKDs7MRAjsQXEK1yxWv2yOwWhWBfNCSJ+DPbTEeNFDVk4iE57RsRFO2fn/Yu7TevsjZdb7QtKP1L1WmCnaFHvkT5BhWehXCqauRb0anMHng7tXhYcIF57Fkg/MfR6zo4qmCzwxQLAyV7P/oahDkx3RognIh0nZiNB8nqzzSN3tg/uAMsZMRl7dr6nqHsy9pEd+2o3Kr8tK8+avM5eIvIt3yPVSsiPtyVIuCGfOs2rEZBbr+NMqMP1erh5pb0C0IfPDfpp3GymBfz0f7tx69G0rdP9Ow==);lineShape=1;" vertex="1" parent="1">
                    <mxGeometry x="986.9506559409488" y="58.77156372901817" width="0.5777041771793198" height="6.8887871700544725" as="geometry"/>
                </mxCell>
                <mxCell id="72" value="" style="shape=stencil(lVjbchshDP0av2pAAgTPafsfmYnTeJrGGSe9/X3luqyN8J7Wb+v1OYuEpCPBRu7enu5ftxsOb++H/Zftj93D+9NGPmyYdy9P28Pu3Z428nEjd4/7w/bzYf/t5eH0+/X+iDw+fd1/P37h54nXGokeWRx+nd4kCuHPi08n/PPu5RKfqPKAr1QrwAfSOOCjkLR1QlVqo0GxkIAVqlCrA4EDpbhO0EZxdMF8rsAktRUcwXYtrxNKpTY6LUJaAGHyQSp0OldSFzahCEzKQjyalCoFsEtJKY8m2SciyIzEVMYVsvY3VwnmIstAKJEq2CWx1MwjoVBgQAjEaSBooAAizYV4XEETRURgv61qXgEfYqU0rlDtEwoImUIZCYuR1wmRykiwGmTgg3k4hsE0AfkslKPHK0gM9qlq+IY8ptZuw3O5xZ5AJU3+gloLPsTNYgjxfwV0wWuPyBre2VOogroJJOLxQRC+uu9nqC1xim+iBhJuyd8LvIJ4yeRvwmVPmr39DKo+kUSPr0i4qKjfzwzsMe9cfirsaGmqx0X41uwPHt9AvGx/pvpF9kvXzMv6AvnGXhNjCHBGiJSmAsYJXScHUILOBVD7FvxngdmMkW4rYNQ1ZoEoUNJNgKaEzrfi0UREPNpvHUNxx3AzWmVYwdaTxPVViwAoydi8RltfVZRzMq1ggySIGWtPmYvZQFEXi31IXAgMZzTJvs4ydjoFL4w5UUaFn32l5dCb//WhLnThXIY6LKW5+DhIg9piE5mMJtk2oCnQdt2pl+DpQ6N3mjOMgxaf3hzhQFSnXbITRUFHkNSPNAuBYbbamUVHSY2hD1XXT0XRm5R7jV/HFy95pgno1FV6sZzxguxRL2EBRrlNDuOOcOx43h40spwF/Yxn9P1lgjvjM8bn7PAN46s7xcIOdZ5Yz/iG9DFMPYd7E11dwJ0we5Nbw5fm8GhGuPla4J94ezjfQTzunp9PVxiX//s7C3t1uu+Qj78B);lineShape=1;" vertex="1" parent="1">
                    <mxGeometry x="980.4712708234765" y="143.4546443160103" width="8.269936130773075" height="7.583986341916008" as="geometry"/>
                </mxCell>
                <mxCell id="73" value="" style="shape=stencil(lVfLctswDPwaXTEgQYLkOU3/IzNxak/dOOO4r78vVI1Ug5K2k5uiYA1gdwFSgzy8H5/eDkPk99v18vXw8/R8Ow7yaYjx9Ho8XE83exrkcZCHl8v18OV6+f76PP399jRGjk/fLj/GX/g14ZQkjqDIv6cXTC38ffF5Cj+fXu/CQyFOLj5kqrwPiIVEHMBSBt0HSKJSHUDC/GYTkISSL0kq5bQPyJGSLyklinEfoIGkeECjlAGgkaoDWE7EUjGW2AOUatsHNCMxO4AqFdBDK6SeJa1UCgBUqj5DibNXtgHWtGfJumLkJWZi33W1FEA5S1G9W2uhAsxkgOC7bpEU8VqJvTeMaRUohAYPaLM024DcZ7jjYRthBtc+BaMmInHum8gogw299jRlpDVTbL0QGQnBFHzXJnVAUjMlvwaKzuJvA0K/ycyvARk8zlvibiIU9ZB65WzmFGwmk1pXgAQmwoY0+BHSQg0JV1csmZTIGq1fliWTILs2at5LlSmjgTCAz1AzNcSSleSFMykDylD7HoxotI5HWrsZtZ9ALGXKXoexKyScUFsBMmr6owCTSTsdzK3o0FpZowpc+Hm1XEuD85CZil8CJUHhko2oL8mKZCCcxP4cVcsJMsQ8L8blHBVIa5B5XJaj3QDAGtLff2RhYbuiPj42fChS8PXYdSkB1bhfYlYhOqW5PxBDg/eG1RFt9z00Cas9HyI8q5Zlsrh0tu0ePX5sbHuBauLM9cIOFeS3Ppzn5bftZwrchSNpM0Xpw8Fu/+DN/L/h9vDvI+DldD5P3xD3/+8/GuzV9MEhj38A);lineShape=1;" vertex="1" parent="1">
                    <mxGeometry x="971.852664350044" y="153.6949384709936" width="4.59313029354875" height="1.3473212872982387" as="geometry"/>
                </mxCell>
                <mxCell id="74" value="" style="shape=stencil(lVfbcloxDPwaXjW25Jue0/Q/MhNSmNKQIaSXv69cegiWwzJ5O5zjRdJqdfFK7l43Dy/rFYfX42H/ff1r+3jcrOTLinn7vFkftkd7Wsn9Su6e9of1t8P+7fnx9PvloZ/sTz/2P/s//D7hohCXjuLw5/8bCvnfi6+n87vt88V5TiR5OF+o6PXzwtTi+P95efMxoBDrAGCm2gCgkdYRoKQYwDIARLGFtHxeAEkpMAw6joB8kyVNI6uFFLCUIqUx6GpEy3VACdTGvFWlkq4D1IIeWWqNElCG1kU4Z4BSKgDQvDQ0LDR8DNAJYNLAAB1dsqgKyLQBmEdAoYws1CWvZ0CjiFjKlJ0FJQFa0kkaPSqQaSPRyfsGoFkMeXIJiK9lSnPQyIL4Eu20gqANwHPiAK0GSLM0kIVEyeXBxIcAxdd0lzeQhpVLHl3qBYS0FClWDwgo00JtAjASXyERH0PAJSrBs5QCLKBcfR4ioDWGQMGZSDhqM+G0kXHbMFLGzGmFYuo0OZcanCg9EVPJVdDve6pHwAUP19SUmjeRgU+fBuQ8JSJSA+KwOer1WuFo5+bnaGPYmaJOQ6tQBSzF5CdEwTOorz+jSyUSgxjMQh33pSxQTLH6ikiZCqgIDsuYPa8nDc6geB7k5wXIBAzUZzHI2PuiNTeUacpjv4/WK0EamIKTHizQ4Cdcg1N9mm+VBOh66i+4WwS/DyfKIFTzfaRG4Pjnhef3bVsh8W67iLBJTHM5kIBQq98hcQvShYiL46hSphXVvKm4FD9zE7l93h7erz1P293udGu6/O6vSfbqdMWS+78=);lineShape=1;" vertex="1" parent="1">
                    <mxGeometry x="976.9653772232627" y="152.58801433486585" width="2.851347540498108" height="3.9952423376229826" as="geometry"/>
                </mxCell>
                <mxCell id="75" value="" style="shape=stencil(lVbLctswDPwaXTHEg69zmv5HZuLUmrp2xnHa5u8DVaMmhBzIvMk0lgSI3QUHvnvZPzzvBgovl/Pp5+7P+HjZD/xtIBqP+915vOjXwPcD3z2dzrsf59Pr8XH+/fwwRU5fv06/px3+zriaIaQJReFtXklQ5d/C9zn+MB4/x0dItYnHCjm7gIgNgBHYAxQIsQGIrlQXkKgBxAwpuoDa1pAyiFM0hgAhNIhKEItzRAYuLUCgpq8BpUIxJ2hnnBNysY3TsjJ/DUi8XPt/gHbOqVoykGn1xz1cRWhnpdojxCkCtVFsiyAnpwxoik4g6BwAmG0b0Eko2JIrQnbixVJP+ygOuZEht20u2b0hlWNsMyoJAjkZIVSTUgRymBcLYOgBZAbhnpT0b8aeotUzjHo2rnVicnvCRt+UZsUQzyeG6r1ID/MKAa/0SY4rpQLROIAvnkgrK97SZ4KE9gjPAlQ/daVPz2QwABoB+TZGq4zUJ51b6jXi3niE0OazNRosUzdmDy7V3TjcxDrqxvQUK7WN8UzLtL9t/K+2V6twdi/ALX14oez1y5FFtEu8isjhs25Hrb3jQr/r/NcR2HpjAHH2F7H5+/qK+jjKHfEpWQX7+eS0iO+2eicjp477VNM0+fv9Wj8GfTp0PzY34/Xj42X7NB4O88P48//2JaxL8yua798B);lineShape=1;" vertex="1" parent="1">
                    <mxGeometry x="980.7395856319808" y="154.75470014032413" width="0.5040535242210674" height="3.393596040235851" as="geometry"/>
                </mxCell>
                <mxCell id="76" value="" style="shape=stencil(lVjZctswDPwav2JIgBee0/Q/MhOn9tSNM47T4+8L1aViQtamfZNlrohjFwC5kbvX3cPLdsPh9Xw6ft3+2D+edxv5tGHeP++2p/3ZnjZyv5G7p+Np++V0fHt+vPx+eZhWTk/fjt+nL/y84EqjyBOKw6/LmxhJ9M+bzxfAYf98BciBShkBmTSuAyRTrgOAhZTXAVy8SWKAtA6ISi0PgFQogR1iI5EBkO1NBSbNFndA0W7kmtOpDYBqgAzCyhTCAGiFAtihFGIHyFQBoCbS0elaKYCwmsVBR6cbKfChsc90tk8AajShPJqUGhVAvhYpj06LAUDiaqE2miSBGEUpUB0Tx4lyA5m2vBYPgHooVEYf2BSCAEa+JSAAgCk4eZMaCCur55IRHnGJa0/TDGCKAjWtLqyWBxBW2yGOPkyiLQDQur5mQKGMnf6bpqtChnwQJh7ZGhPUtCRPvmhhRYBKOXuAAqdT8FXDTKpADyl2BV9FKQIuJfHUiJUaBhQXJYWaNkB01IhQcZMPC7YycNok6irfR5quvnqb4gQBLOrqAXAHXlSN3N+ssdX1OPMBAkwPI71NoigPk+LGHmcSRYVs0vTotGU6AGrYDtXNGhUKaKpLjq3zMLFW+ZLTdIKTwARYCAgBrIuKAzAl0EWtx9XonW6gzKix31HDJAqc1uolai0GJS6GRdlI1sUAN1QpjTaVSAV4raV/bx42sEY1+Amr4dI3DRtjXJVJ0SgQvKjVZgeQ6myzg2tB74FbK2U6hslyg2yyMiBjmFR6z7itiNjL+xym1jVyO9fiW4rNUA3NlX1SmBOXOh9vW0RhNMgGU6SHBfVs9GYQU8vaaI8dQCIaHKiNKUgMJ8SymChTT/vtgMZFuzI9A4NM7uLOPwH26KnXuDKJxzezOLmW+wFPk28mGbpgYnftLfQ6e3u91bzk1qOTRsl9LLpaD+wv1dfUQILsUcrs1qMDZY0U3Bm3s+r2evZ9SuC5p85/zyTtB9K19a7pZDhH2nrX+yvsIGZ/ckWiB2wtPjKu156Qtfj7QTjAWeS/byX+AWAP75cgT/vD4XKHcv2/vzSxV5cLF7n/DQ==);lineShape=1;" vertex="1" parent="1">
                    <mxGeometry x="982.9320132114485" y="152.86105626511335" width="2.841184281131858" height="4.002426446966311" as="geometry"/>
                </mxCell>
                <mxCell id="77" value="" style="shape=stencil(rVfLbhsxDPyavRKiqAd1TtP/CBCnNurageO+/r7cLjaxKHvSAL2t15wlqeGQ1CR3L9uH580Uw8v5dPy6+bl7PG8n+TTFuDtsN6fd2Z4muZ/k7ul42nw5Hb8fHpffzw+z5fz07fhj/sKvBceVmsyoGH4vbwIp/33xebHf7w4X9rFQjp19pgDspVLs7TlQbrcBSalwD6hUy21ALsShA0QhBoCSSHuABAr5NqBGf0aWVVYAaFT7HFKmCDzoEFI2n+CUtBFrByhMIdwGtEiceoBSTQAglPqQaiYFOTQrhN6DRoqAhzYQp0oZhMQhrDmuiKbUABHNiKg9oFEE52rfq9EDcoVJtOIBiohIVNQDGiLCmPMKCpBrK46cBheACR1EOicRASCTNA8oKKS0lsIFQJAH8ZozAGo05iG5pHVV4a0c6gBISKSVSvOAiJgLvsANwCBpo3r0wKiY8kCcro3hOqB6VRtAkKpfT/0CgPr3XDlDDoo12oZqZeyBswcknLQbKXNfEHisaSjvhrtrGwEoh3BFQKiTWfG1IWkFjcnKexRQQR4S5fFY35HoSNx/BQz9fp4QaPDaOOj1YDMItZlqna8fEPOUA8TV4kOyOaqglqpQ6EOySY2SLsMClGWd3dcB4qvVtg3UyGxjciPI9hmUg+1kyQGsfkFIYqXWt3vbyZBEJfpTYoVJ25qaeuKY4RJntdzLIa+L7FXz4OuCScAJDYVqwQBxBj8N8dJtH/M7OtpJoo/dyALT31TJzhyNkNct8M08gK9b3/LBoN3Fbgf8IXvTd/hAOJzWRfzfsuXsx1mA89IuK27Pxlx99P71vr09vF32nnb7/XJXvPzfXw7t1XKxlPs/);lineShape=1;" vertex="1" parent="1">
                    <mxGeometry x="994.3532936435236" y="145.09659574650394" width="1.7521409401268384" height="14.823891924050828" as="geometry"/>
                </mxCell>
                <mxCell id="78" value="" style="shape=stencil(lVbLctswDPwaXXdIgODjnCb/4Zk4taaunXGcNvn70FGpCIwFT280jRUB7GLJge9edpvn7UDu5Xw6/tr+HR/Pu4F/DETjYbc9jee6Gvh+4Lun42n783R8PTxOv583l8jL6vfxz+ULbxMugNwFRO592hABpc+dhyl+Px4W8eQRkwIEhpR1QBAkVgDKEOOEInBBARx8MOIjgnTxVgUlIWWdEAIZ8Rm5qPgIFiO+IOp8vG87VwHeOThNgp9zXDuiS6ny6GwA657S/Im1ooNXAA6IVpcSvO4q1xqiSXPWRXNGsVIKCN8A3iKa4bXyWNonrgPoG8ChWFR7iE6JBOxNAHdMF7gbJ0QNIGRrGgikmU5gizcGaSmxraQA0Tw7iFWANFK/4p3FQU23KxjBFqroaQvIluwKgu5PQbJEVFC0JrwgWglVQGcvZFdcmh0uDNLURG6DNVPGzcXXevpvdGdARLFEEZuDLkYtW7q+CjBSCqmVOJtqRjQAVZaka8h1mHkdIE0GM8/F9KNqb1oXC1u+CuD+2qm8FCMh6oVdm2Y5qu8duNgsO0Stu1wpMJTt+ps/84347pJKdfQMTdR4PfiJ285KfNASisnsp4fXgohsOp3vjUjq4BlOyv0zRKIt6f98Sd2Or4uvZ9vTuN9Pr77l//0zr25NT0S+/wA=);lineShape=1;" vertex="1" parent="1">
                    <mxGeometry x="990.0063679352183" y="163.83690955377426" width="3.5714733669297396" height="0.7973231352030448" as="geometry"/>
                </mxCell>
                <mxCell id="79" value="" style="shape=stencil(lVjZctswDPwavWJ4gNdzmv5HZuLUnrp2xnGvv++qLh0TsraTN1lakASwWICe4sPb9ul1MwX3dj4dv25+7p7P2yl+mkLYHbab0+6Mpyk+TvHh5XjafDkdvx+eL79fn2bk/PTt+GNe4dfFzjcpOlsF9/vyxolzf198vuD3u8MNPqqUaPCpreO1ScgDXsWldXwq4t2ALxL9Oj6rzN9u8N5LIAcqTvJ4IJ/FKzHAgetgEIKESAyStHEH+FCYQZUy7hBDz8pdg+ol+9GgSC3EQCWWMQtBlESpIg3jDpq7V3cNWpA0Op1UKkl0a6Jj4nKkBt5dmXm1wBrE61YlpZFLyp1IoqMT1YkPxMBJaaMBvGZx1X7iq0ETz+iaRUcfEOlGnM7ZphpeNVZx+DyyrxVqgALzpoIcF40iedQYJL8w0RCtFs/S4KWNWUDmHcmzW8Q00wJdEA8hDXT9YvCgNhGxsPAX1UTOk7pgXfG+M/0+62ypgbf/cr6WYaNgMKjMAIXj7IkC41BdsDTQlM1tptiYBsIJkKIYH7Sr5ppBNVHK4ghL5zSbNBRJpAzgdDa8wxuyA8Jqd2iSSGPwQeLCgCletfo140mQkpUv4COLkZ0W4LESXoBmi5AyeURlmpylnvYVvI0P5gdGbNuZZ/UllaniTXx892hFGUO1eKp04JzZACEjDn/YAG1bx85fay/utYZjm6ZSTmA+MkkraDisfVRpZlRoXWHXmqY18HS2KMH6MM+hhBe5WMHTytuyWmYrAk2YkYMdbCN3OjVbm5jVM+FSynY0hxwwlU+xx+Ta+BudFDBkGkmFQGUSJcy9ftQL3sihqGEk63XUuI+HoqvBK1tfl3h6HuivIR6dUFGdZnJJdBAB3sRHacba4mJBSdps24/0robT5JFxocvf2lhRzeBIhcJHy2iIGTtP6su949lV0KNdB4N3LPofvCv/H4+H94v5y26/v9zrb7/bizxeXf4EiI9/AA==);lineShape=1;" vertex="1" parent="1">
                    <mxGeometry x="994.5637731198817" y="160.97307980137893" width="2.5813478076516208" height="6.195354843272635" as="geometry"/>
                </mxCell>
                <mxCell id="80" value="" style="shape=stencil(lVbLctswDPwaXTEkwOc5Tf7DM3FiTV074zht8veBRqFjQvK2vck0Fs/FkoPcve42L9uB3ev5dPy5/TM+nneD/BiYx8NuexrP+jXI/SB3T8fT9vl0fDs8zr9fNpPl9PXr+Hvy8D7jvHPk3ARj9zEfVSrzwcMM2I+HK0D1FKWzF/VQbwMKk08dIGRyAiI4yr4DlEyVAYCJQ1+Co4pSquT6lGog5wFAizZNSpTibUB2JLEHFAiIiXLpAbWdrAKCFu0toIbbAC52DgrwYNI+kTcRMkkCRZOw7WoFAZiyaaqnCvyrfd/TUqhklE8w9pEqmIEWbAooQgHwSFsaDMBTBhnp0L78XQAOphSzZapG8GB5lHjRRFCiAB6pv9QTrwRivDw+94AEiTetp6mhwjnr9qZeYqpAxdCMg6F2pIK6pABDvUIODC55Cov1jEAxJo3rAVdKu4oQplRtCMQ+r0LNiyKQsC7sI5QYoWzGwFRBk9Q+LOyB/8XNEwJcBm1Hn4+eoI56bu4uxIMa7EOTk2afGq9uDYBNAS3DdbmIVvC47d56P6XdYhcOkSDOid1912i+Li7qX4w96mcKdgCOPFj8vFhLRwXdsqq2wdT7F50ovX9tABKi1JSw2cd2Q6zbV5K+n5kimNd/v6X+AaAf30+3p3G/n19+1//bp54ezc9Euf8E);lineShape=1;" vertex="1" parent="1">
                    <mxGeometry x="999.0874818646134" y="165.04044396881588" width="0.5186003836029734" height="2.4481052946160635" as="geometry"/>
                </mxCell>
                <mxCell id="81" value="" style="shape=stencil(lVjLbhsxDPwaXwlJFEXpnKb/ESBObdSNA8d9/X25NbS2uN4JcttsOBafw9Fu+OF99/S23aTwfj4dv29/75/Puw1/2aS0f91tT/uzPW34ccMPL8fT9tvp+PP1+fL329NkOT39OP6afuHPBZeUqk6oFP5e3igV/v/i68X+sH+9sY+NNAz2sVCsAJBJeQCkQhkDUh0AXKkVABDiNgBy6U7eByjlESCZGLiUAokMgJIoCABkkjGG0iiBtKZGMmZJhRQEzRb0WLcaSXQdkJNPay0UQJakkMQR0KjEdUCpFPII0H7mXYCqL5w2qgBgIfLokmbKoA419xDnOigpOkF6mWZAIAZ1MACPAEmwl8yl5Lo1w7Ra0JrGebARBZW2tLaxNThSTaDS1q1upjEJWIh5rIORgAKXJFB1AKGMutUaoYwA7m/WAMUBEkUUdPCVjoEyAth8jXUwWsrAnnsfXJm1gl4V6Tm/2if0+zZu3j42MJ7WyMnZI5Y0ikvFxasgP4UXFQgUQQAlewqLsbfJKsB1EZOApjCXHNFb2yUUc6TmAAWyqjQ/azY6AmIQmyzxANhG4stggIp4myksABG5FCmpzxJ0KVBwWcpwdKbhHDeDDSfqPQO0RS81VIdIYWzuRhklyc53y40i6CSjSMdHClneypwWw4lS2rxgUMiPn7W3NeUo3jRNAyVrsau6GaBQtjU7YWwKzrBkrVIZS5a5i6D7AGuKMYZp1YITYgiL9R/7oWs+ydio+kGachcsNxJGAQubhuLRJRNJAVVusWtbgiJJuTswA7QXf40l3SzcJG51temnEKY+S/VONUBKbEGOlWjzflmT3CH6xCJdZazoaK8GqKtsOznqtlQHUGsbeaclM+TVxQI1CZ5RBF7RZ7wZFtPADbZe8JzKAdYs9nzPlMFd695vin7DuVlUKJ/NV9gqgprOdncZJyFBhWTHq1tT0H+7C7tNaw0E/Jmukers0dKZ3PX2KF5Lt1b/+4C8kng9FSAB28XdKzx49Z8Eprj8BxRv9ZdgPF9XAT4PAFTMqXpVIVC2mH1x66Nv3bV4P/Ut5WN7e7h+uHnZHw6X7z63//cfeuzV5SMRP/4D);lineShape=1;" vertex="1" parent="1">
                    <mxGeometry x="1001.8758017072732" y="162.60632103913093" width="3.3645530516565794" height="4.606332852187516" as="geometry"/>
                </mxCell>
                <mxCell id="82" value="" style="shape=stencil(lVdJcttADHwNryjMDpwd5x+ushyxokguWc7y+8yEoawByVb5Rg7RxNZYZggPb/un193g+e1yPn3f/RqfL/shfBm8H4/73Xm81KchPA7h4eV03n07n96Pz9P761OTbE8/Tj/bH35POE+hNJDnP9MBk4//Dr5O4ofxeCPuHIl08oUSb8vX/5fYyTshl7YBgSm6DuAzsQcAJddbFCI0KQrlHhAj1JCEuI9RCpR0G5CLNSl7krANKIlSr6E4mAbxlH0PEPIFANT6IJG82waoUggdQBN54EMFZLUAAWGtAO190ExJAPeYiblHlJktmyp6MmkNE2Bfc6JYgIJUtzAZk3TO5TpASKIFKAqT2ETcxGEdUVZUCAaYmmtuZQhgtWEqSENeJKLMJ1sAUQvgOyYZvmac6kLB0K9WIQaURUUwAshcYVdApILIVIO4AMDE1d63qDkGJdTIuQBkrEGyDWu4U3KLxDncNzRbgGIfyqJGC6KGUjSJqyfYadtnFPbvakDqAXdrVFZUKK7R/+S8bTTIps8CpFDuwyQyT5l1gCPX+9DGEvChRFujbfCBVOdkx9zHaF0f1Zliz75UyQRqNNb/9RrqehBBlEKNUt9cg8JMe5lr/gpgSqCCfA1rr6EtUXAu2kw7DzcgtiWa4BRlysmIo07M8+i4RhQORJ7XwWt44MBlS6FAASxKi42hMhTabrYkd8cYb5ZbODbZkpNhV6lfnRFHXcvZpZNnam+IJyuOaOzmnnwjDuL+yWvFXfH68HGDeRkPh+kCdPvd3njq0XRbCo9/AQ==);lineShape=1;" vertex="1" parent="1">
                    <mxGeometry x="997.869091734688" y="143.20284565450063" width="9.460480483603918" height="5.6335197710165925" as="geometry"/>
                </mxCell>
                <mxCell id="83" value="" style="shape=stencil(lVjZctswDPwav2J4guRzmv5HZuLUnrpxxnGvv++qHioiLK8nb7aElXAswIU28eF99/S23QT3fj4dv29/75/Pu038sglh/7rbnvZn/NrEx018eDmett9Ox5+vz5f/b0+T5fTrx/HX9IQ/F1zKksOECu7v5UoVl/9f+HqxP+xfF/YxSi2DvY8Sw21AUNE0ApooAwSpbgCEJNnfBvgqoQ2A6HpQ64AkRUeASksE4KWNSUpRCsmSd1JHl7ITvQOoIwB1iAQQJOQBoFmco0HrGHTxkplLVTSOgCKeuIQypTHoGsQr4RJiMNxDHUgMyUsaXWpOIqFG9hLGoJuXQgDqOhEWgEC4pE2KCRp0JFwqVWK2WaqkDhV1NYXL0higiRtbVKt44hKSWMY65EZdAsAZANJaiEvFFi7NZFkHRNFxCESklbwBdchj4aLvaVgHFGlmCLj+iHUABtnYooEPMjRkHbOE2Zo4IJk3FDqMAdCRfAFXWNBq6zA1LXOp9BBnQOSA1qk2A0LvkPV+wOSLFpAZIPTTYAGoZC6VJM7bGDIZM+gvX2yWMnsDKq22DpW9QW0DodK+0jeYYQwuMbYi6GIArXf5OgB1HbOEflAWg5dqAF48A7h+ewlg9Ea7XLVoIQcK2GpGJYJuDKC9vxZprWwI5E6EReGY1pgAxiWlp6jOtxfkq+zImpmzoDerNNKqVw3EsoTCmVMUACUugRqtWEDhXPocoAWrKiMITxqoqT2nU+izcB3QrJrBGce0hneuC7D53AW/SSFakTIGgTwwbiDqbLSDo2mq6UpsQBywOYPJOJKpZSoFEKKRlUgcU+up2fG9SNy6TCx2HDfoGXJCYPgaPdMSF9PaV5iFiGNLTbVqvfre5utB99fPhU5UnPh+xs5MUurPFfNy6Q11w96PtEBVEluA7MKU5n1lXXdbEYC1MZCKXfUansAmkk92DGOpZAJ02jnN2pr6UFvnUO0L3lwCet4iIW4M2dERiVUmeGPPBMA0raqxZ00zLahq7UmCoMebfX5k/mifIx/2jTAU9ub5nirVVOyAD7zDqlVU8a69OQ+o2oE/RuLNiuyWfRwZqn2y3sqPYTRWJubPJ7/b3LfHj4+PRC/7w+HyjWl5335UwqXLB6n4+A8=);lineShape=1;" vertex="1" parent="1">
                    <mxGeometry x="1006.8349890407235" y="150.98803179503446" width="4.066792013630694" height="4.995078101963719" as="geometry"/>
                </mxCell>
                <mxCell id="84" value="" style="shape=stencil(lVbLctswDPwaXXdIgM9zkv5HZuLUmrp2xnFff1+qilQTdjbOjRKxBIjFEhj07nX7+LIZxL2ejodvm1/j02k76P0gMu63m+N4aqtBHwa9ez4cN1+Phx/7p/n75XGynFbfDz+nE37POO8cnJtg4v7Mvwpq+ffjywzYjfszQK0IubOXDJ8JICD1gBDhhAKy7yOq0EoBb9sLoAqCfx/QzvOpB0RIfB+QK2J/h5qRiIeUkEIPqNRD9MjSAc6YuYrQBI3WRSZEiCw8rYCCSPLqHZLxkChAUA0Pikoiuii96uFIVr09vxRaSQW5p7lEKEmpr8v1VoAulXKdA7UcFI9CPISC5CxAidySIl94qEpKNUOcvUMgIZWMGG2W3or3utzUlmqjgXlo4nKmjjzV57Tde5gkTkKaaDKVl1BJSNlDjD4LJS4mlP5RamorpDTCesUzQCUAaU9GsgDH5BngjXwyzdIlDYEmySEYe6HyvGpP5KmI2jeGAEcyVCB9RqfOQ+yzbTwfdLblcot5o5xE72Whcw0fmRzfHhcpffg0HFk7zNoREAm7mm1jdogk/vYUibVn/SbWReS32Wdn6eLxFLeQf9t926Njuj7P5+VYwflqD4LR4wf18NlJ6gZAW/wf3J7H3W6e+8737aDXfs1Doj78BQ==);lineShape=1;" vertex="1" parent="1">
                    <mxGeometry x="1012.9192728478451" y="154.23423934191604" width="0.46930354408558883" height="2.3944709956827213" as="geometry"/>
                </mxCell>
                <mxCell id="85" value="" style="shape=stencil(lZbdbtswDIWfxrcEJUqidN1171Gg6RIsS4o03da3LzPDiUU7Z+id4/CzxMPfQR7etk+vmyHy2/l0/Ln5s3s+bwf5NsS4O2w3p93ZngZ5HOTh5Xja/Dgd3w/P4+/Xp4vl5enX8fflC39HLgVSvlCRP8Y3Qtz+vfg+2u93h7l9Iu7tQyOu94EcKLT+ACFRACiV3AEpUgFXKomkB7JQTPcBDZRqBxShFgFQqfYnqJ3J94HA7GVqhSq4U2uUtAeUFHht32u9rq1SKQCI0wWuQCMBQFVK2QNVABBIel1nOqwLmymWxREgOUojXTiRgK4lU2IvkwKvyzXZZoFoAQCBqgMsNMgHmQpmBjDQtRQKLhCmG7iSMqlLpkQZFKkWSsUD6IRqKkUPBBCHaskZPIDaQJMp/WdARQVhfUO8SgXIapmj4uOQMVAXNZqArJZq7FSqU4msA6aJc7pNsV+Xtfned/EKVFyVqVxmQEOpoSsl2r7UXQ0oqIAKlQXACJCFShVmq5Voc5E2r4DT6wAei61vM3p9swqIjYNeVhtjGQDRZlCfSzblKhhakf2VkukGVAppUn02qStolcm7YKsAEmkxE/F9mFIfg0gZ5F0k7ivB+jL4evItMuBCo9Rrw1MDXNcyklZnj1aSoL6fMhwJ5q1bkvCgjUpZnX0AoZVIgZ09yk7JUxO52TeQClK9fYA9IvG0oN2SQYD+X15r/2tvD7cd+mW3348r+Px/v3Pbq3Ffl8dP);lineShape=1;" vertex="1" parent="1">
                    <mxGeometry x="1015.4247036934098" y="151.29421228662068" width="0.8682808169337669" height="5.641897918290807" as="geometry"/>
                </mxCell>
                <mxCell id="86" value="" style="shape=stencil(lVfZctswDPwavWIIkOLxnKb/kZk4taeunXHc6+8LVkNVhKx1/aZjQYLAYgEO/ulj//K+G8R9XC/nr7ufh9frfvCfBpHDab+7HK76NPjnwT+9nS+7L5fz99Pr9P7+UpH16dv5R13h12RXCnGuVuJ+T188cfj74fOEPx5OS/xIvscHimkbnwuNpcNnSiPAexp9h2dPRbYNku4fOwNhKnHbIAZyY39iIS7bBqNQ7I8QPHmwQ2By0hmMgYrfNpBCMXQGMVIAUeXSHGgGKZEwMHAtS3MaYtvz9hmouA5f8JndCh8pg7QxSbL4BJLANkKKRyFVDvRJLhog4I9SIFk8io+Q9JwomRil+AY+gjoQW5a1UAF+fV4tPJCvdTwLZYiX3h92jpyDhGC7QQGUds3dBT5lhJdVgAIIkHq7wmP/nSF0pgAIqngT0HTnvOIsfoT+hBWhGRDategtCxJJSqPXsiBB/JlGeWz9vPYfKJa0vws8ir+sBCXBNiDkzfqaX3BeXd9bfIH+WD4oP4GgcGuL/8l/pvBQfT2K9xQNP7lJ0u3BgELPhxwoAD7zrJdzC7vTJDU/vYF2ciSJXhWtN9BOPqJGz60C50bPUCOiNM2cZ48Cu1jS6abPgnZyxOosNm3M5NG8lW3eIjkQ1RIomXmrzVO38dnOZyp8GJ+dxYOQVlXOFo/810koGDwiRW2Ldn0019QqTAYfsT+m7zlYZhVfTPw9kgm3akyqHKAP1A16YVFlxQkwVSOwryo+2vXRgF9l0K6PdPThC8pdvD78uw29HY7H6TK1/G9vT/ppunn55z8=);lineShape=1;" vertex="1" parent="1">
                    <mxGeometry x="1033.7627455891711" y="145.09533379165998" width="13.912074606362529" height="9.96549696990311" as="geometry"/>
                </mxCell>
                <mxCell id="87" value="" style="shape=stencil(lZfLctswDEW/RlsMSfCFdZr+R2bi1J66dsZx2+TvC1XDRgTTK2enB44EgOAFOPHdy/7heTcF93K9nL/vfh8er/uJv0whHE773eVw1auJ7ye+ezpfdt8u55+nx+X++WG2nK9+nH/NX3hduOyouJkK7m154inWvw++LvbHw2lln4QKd/aFArZ3of9+phgAUCn5DgiZMvpDJR87gJkkAaBQLR0QA9UIgdwDKZBkCKQ+SZnJYSCarIb25H8A5w6oupAFA/06V3USADmR9C5JIA+A6K1LonkTABQqYgH2IIZMPAAOLFzOrTb/AblF9SFQtDbdAICga6LirUsoS8IUggUSCFq0vIe0CgjaO0fOBFFhMenrlCwgYI9qEGJ8EmKUpkwlWKCAPxRNSrUAijorYHTsPQ83btL5FwCI9YMgMhAa3REiFkBiybWV82ohKkgTD7taAUaAUDVBF6h9MbWFXQFQv5k4WsADIKuWmi2UoX4X1dIyACCGGpo0rnUDKJM4kmoBBgunDtQh6IL+oOU/bLmAdEMGZdJyBC1FUqucdfEhFfg00PrHqkEwiJltBBsdaCikjRbHLYE39lBuQn1jk9a3/dbZmAKC3WobY0ag1Ivqxhyj7bhXl41Bybe3N05irnW+2ya9oevgQdJRNd5AleD2sWbu4P7SyYONeQTmXmvBG/sAUu+19sXYI0GZV2awB62GIznrD7LXTjP4j/zR0WvwH8WbBsnF+dTeGmz+0XLpKcFoD66Gz55atu314v2I9HQ4HpcT1vq9PVLpo+U4xvd/AA==);lineShape=1;" vertex="1" parent="1">
                    <mxGeometry x="1048.9786142808475" y="147.26003476108008" width="0.5253509985726543" height="10.720152814386873" as="geometry"/>
                </mxCell>
                <mxCell id="88" value="" style="shape=stencil(lZfbctpADIafxrcaabXH6zR9j8yEFE8pZAg9vX2XujasFv+UO2PrY1dnadCnj+3L+2Zw/HE6Hr5ufo6vp+2gnwbnxv12cxxP9WnQ50Gf3g7HzZfj4fv+dfr9/nKWPD99O/w4/8OviRNKcoYc/55eMAX398XnSXw37q/EPYVWPFDM6+LCVl48cQFAplwawCmVtA7UC6hvABViXQdUyeUWKJSRyo64PcEXEr8OBCEJrZES1CEyOW6AGMkhIJOLDZCURNaBFMi3OqRqaF4HslBMDZAVejonq3TO0A+lmrXVoQh54IdSKLoWSPMl14DcASVAoLQ6lEwKzCrMxGyJhJUoRusaTBjIagEPMuhspg5I2EyaLXDHTGKS+mKH20QNNt8dgbTOFLlTAniiAt51ZsJXUrEA4ytp5+qIr6TJAg4DoYvXjDxXY81bIOJgsuGayIOsroBLDwKhvxLyQ/Vr7JS+k6TOmlVwQpRigYB1KNkCBZ+QuwxSnHKpC76IT/DJAgXFUrEt5T9ytHR141+tWs3RTuuElHgYENvbi8LqmiOpKeAMG2lm67kcZjPcbqTeVtfaKRmEa6z50rq69mIFJ4TquTZca7f34ITAc1VZACYBJ/hlQFrmEyEHBhp15Fqg/gWKvjommlpZpy4BOkii1PrBxXk8uB0adgCSKg8crfPXxQvzQHRTvJq0rTFujsQVcTZDK4wJnhvNcnkY1d2MIbC4sB1X8Ty8xMplAUCNlm1D4DuG9MGIO6hqjEYceZXtsoBLnMyT1pU4mu5s9WE4Y4vtfDwvGiviDy1ed8Xrw2XHext3u2lFvP5ud8L6aton9fkP);lineShape=1;" vertex="1" parent="1">
                    <mxGeometry x="1050.3308550991324" y="145.36644433145096" width="16.519188629396705" height="11.115171791374848" as="geometry"/>
                </mxCell>
                <mxCell id="89" value="" style="shape=stencil(lZdLctswDIZPoy0GBEmQXKfpPTITp/bUtTOO2ya3L1xVrQjVv+ydLOMT8QY4xIe37dPrZhB+O5+OXzc/d8/n7RA/DSK7w3Zz2p3taYiPQ3x4OZ42X07H74fn8ffr00Xy8vTt+OPyhfeRy4FSu1DCH+MboZB/v/g8yu93h7k8k0onH4QkXAdSo+YOSMQNAjl1QBRKCQJ/FJiAJMRIpUqtdEA2ozFQuQPUVBLgpUCldkAxLykAGoXeS5Up8nWgFZLcAU2pgsC1RqU/wT6RgQ0GqDuhkiDAFEgeqCDSLZBqDzQY6ZoWKjWqQKWilHsgMBMDv2r1gbAjGvCrMqXiAa0g1IlC9cB9FWR+VWCDpWuMPtQNnxCrB1CocyTuu4AFPyOjLROqBxgAqhRdqDMVUEHFciN6QAFQhWpZnIDSlUnY2xAiAPJUkTNAcY1KWsQBqDTL5nmokRGV2NWcJVMBQPQN/6IlAGqhkDxQUJFa9gUPNHBC4aki5wAw2rp1W9iAQp0tORdFHREQKIh3K+pMdwMh+mZpEyIjlaj1YbARFEE9CGnfZVZmnEzT48YhagOw7wArUzr4IK+sActFBu8Z7Mt/ZZFZVBpelJiKmzxTf7rinebFAzBW/dCx45AvF9lm2wWosKC+6Hn6wP+1t+RJTh5NWam+M2L5mHywsD7pr3m32ZvylIq3+dMmrNtRcbhsay5eHmXD3Vv5qrw9/LsCvOz2+/EGMf/fXxns1XjdiI+/AA==);lineShape=1;" vertex="1" parent="1">
                    <mxGeometry x="1029.7777021191614" y="156.72380971781766" width="0.6232968522764027" height="7.417439344996004" as="geometry"/>
                </mxCell>
                <mxCell id="90" value="" style="shape=stencil(lVbZctswDPwavWIIggTB5zT9j8zEqTV17Yzj9Pj7UtXIMSFrM33TgSWxWFyDPLztn153Qwxvl/Pp++7X+HzZD/JliHE87nfn8dKeBnkc5OHldN59O5/ej8/z++vTZDk9/Tj9nE74PeNyIMsTKoY/8xchk38fvs72h/F4Y1+Uau3suVDmbUANlEMHiEYlAoBRsg6QAgXdBnBo//srcqQKSFSh0pPQTJq3Aamx1g5QC2nYBkil5ACVInBJApVehxtadxGRqYi/AknHQuJ8suWIuwBdhL3aKxlQjsn6qNZEAhisZKtMCRGgEDt7M8rAn0TW87VMVsD5TNw7ZLKoch9QV4BIUoFmtqLAMFNFl983NyTEuZE2z8FAfWZeiusmShWQzu2G4GVQdENeJSpTBqRzi3paJRIIa6oU+uKZMhUBIrFzqZWCAR3kXrGBKLXkK+wBFbjE6lOjARgAWu4X35JQVIXYxSjD8wOJI9AyD8gcfHexujTyDX9i3y1MqYBuYb5nW0sKcP7/2rcpI70AGnF7UdL+hiSwNiVRdaNQKYKQFpJeYm5zDTSwRNrXzdTREpJAXFITg0Erfh4UePo1va5T+ZN8jn4RQcFsoci98wzbVltTSh/MgAtYSL09g/RpsXPTD4/v1tld3w1wWCZehvsH34DSWf30ixSB/bQIqou/IXU/XRzbw8fW+TIeDvPSevvfb6nt07zhyuNf);lineShape=1;" vertex="1" parent="1">
                    <mxGeometry x="1032.1068058258707" y="161.24456257990826" width="0.9107552313647651" height="2.806175036535856" as="geometry"/>
                </mxCell>
                <mxCell id="91" value="" style="shape=stencil(lZbLctswDEW/RlsMCT5ArNP0PzITp9bEtTOOm8ffF6rGjUnaV9GOonhIArgAOIS71+3Dy2Zg93o6Hp437+PjaTuEHwPzuN9ujuPJRkO4H8Ld0+G4+XU8/Nk/zt8vD9PKafT78Dbt8DFz3jlybsLYfc5TgbL/N/FzBnbj/gJQoRyq9ewpRQAkUl8foDR93gQiaX1C8uQREEhTBeRERSDANaCZSgaAIy01IBAokWJtgxYSAEgklhpQigDI5vUOKHobiBa4XAEXsb9KBPOrtkdIuQ0wt1oygIERnklj66YITpCzEy/igMQn5GrtWaATkJJ3JI0yEjzAl3O2/AciCXAqa3dCJAdMjqGzIUApJemigAFx5yB980rFU3RrjC7aJRx2q924tQEHTpm4URJWRjEvNVdakJ5cyQYk7pyvZANKn8QU6qKxmKF2ZV5TBDiRdAAqM97ilFs3ITFpp1ZcKXOXDrgUr1/vVvWGRK4uqwvNxzKlVsVCd7MY1/svtM+V7dkyszaXScDuJodGcaSoPDKl0qxnVOw85fr2jjLYP3DbBa00AWutNjZ9GedLMjWEFeuztP7B9xHLR7/CXitCsfU/8qd2rwQcL8vVtEYOq1+D3wBs8PX4fBp3u/ntevm/faza1PzQDfd/AQ==);lineShape=1;" vertex="1" parent="1">
                    <mxGeometry x="1035.1764557771485" y="158.8775666588799" width="0.34030511878907577" height="4.6821192702270285" as="geometry"/>
                </mxCell>
                <mxCell id="92" value="" style="shape=stencil(nVjLctswDPwaXzEgwOc5Tf8jM3EaT1074yR9/H2heiiLkL1pe7MlrghgASzIjd69Pj+8bDfCr2+n49ftj93j2/NGP21Edofn7Wn3Zr82er/Ru6fjafvldHw/PJ7/vzxMK6df347fpy/8POMCk5YJJfzr/CSRtD8PPp/X73eHcT3HYX0opBUCsg4A20EFAAJpHgCqVDIACKUREIWCAkBc+cwUkdOZYh0BjQIDgL0OAyAXYuC0COkY1hIpxNsAZQqjSdXCAEyKTMIjIFMptwFJSUYfaqEGeMhMVTwggNTIlUIbAYkSMMliksU7XQGgard4DqsQI0DpBszERYrA6VqpjcSl3BP+OqB5p2OFuWQ7uIrTRi0BQOoxmQFCAnLpEsRFiQpw2ngoY2qESgk4bUH0XSNSAwBLPi4ekFEBNRLng1ADTEvpJT8DFNaDxcS1GQMgH+x1rh6Acsks5uR9iCA1xCrO9VZ7AlLDXodxByOugc5nAB6jZO2esUl5jFJIML0lUBmjFLR321thVeeDQEGZknnsfCYxBRFXunwsASg1ai/IhUkR8GDdO2bvdAY8aKAUfFgV5JIB2oo4JOwGqK5E55K6BWCX3gEz3ai4ijPJQkxXr6LGPdIHyV6yphJF9RB7TBYAxMNk8apEa4DpHVZRighgA1nwPCBBkWsTWUZR4t5UFrlUsA++4iysiDjxTFs9ZMSDrJoABkSr6RGgXVav64mx5GjoTeHWLBODXw9CZONd8vagqXia7sZJJkF/K/tBplJFQ0PxYmWUoZ7X5jReSEkBFrXcR4QZYP0C7VD90KCVIujbgblLzWJUQojWvOIm2xRMPm1FW269/K4D1Et0aVAPbch2s5VRgzR9+t4YV9sTUV3YD8XmFaqFvJKGNu95cxhzDeNCzfXyjCsnGswmzV5yLV3gnGE8OSesJaApQLy+tQBPJ6GsTlgJasPUstwZrkLAfIac11vXAdmaSccYGZPo+9GfNKwLomqYx6i53ExukcP++xp717m6nn18rOlV8H32/n5w1bBqF/gqYzULW9KC0ucei4siIOE3zXQ1Ay8x5hNaX24NH6T/agZm2LaiVwNcvslrAV5uJwL9B2OqL3XsaludBGEgm58kPqCJe9f4uyz4j/uyD9bbj8vl3NNuvz/f7S3f+8s8e3S+CNT73w==);lineShape=1;" vertex="1" parent="1">
                    <mxGeometry x="1044.8568241563112" y="161.25693955422835" width="4.337530158701784" height="4.225190175847063" as="geometry"/>
                </mxCell>
                <mxCell id="93" value="" style="shape=stencil(lVbLctswDPwaXTEkwOc5Tf4jM3FiTV074zhp+/eFqioRSHk9vcnyrojFY8FB7t72j6+7gd3b5Xz6vvs5Pl32g3wbmMfjfnceL/o0yP0gd8+n8+7lfHo/Ps2/Xx8n5PT04/QxfeHXzKueSp1Y7H7PbxL58vfFw4w/jMc1vlAVg+dMoV4neOfIOcMInmKER3A2hBjIyXVC8sTeEGqgAkTERDVYwuebTUKoVG1IGmQEJ6hEZ9NUKyVwgighGcIqcZsM9uRddwRIk2di14kAhYjEpcsSiEgl5K4MQLPqa8rGMKkaP1u8I8nX8dqY0eBLocAg/kjeCigqOIGAAsWO4EEJJFCKLeFfErb7KCwKVwRU5MiUbVJLpgpOiIWyNYBSKYMs6bTVpi3UQ0AZJoIVrX3hQV9oSMmGpI3HwGNUdGxOKOQAQdPaVFpnR0CltXChm+cbrSGxJRQ0naFLa1neXOluaaYnUwSF5qUzP/GRIlDQ2XYVElA1331f/QDEv4kHNRPtCis4akCgUQMv+VgvHtCoQShYAutwAAniFj9cCJkSMMjJ5O3eiXDtCLfLVrsK2UuiYHuI4R7UfDR4v/jTNj4vO2zBO8rIjNQfa4P3N5yi/T5agakSpwbPIJ6s7swNvgC9pZsZdTowYtO6sHiBI6D7i61JBDiS/31Zu4nXh6+b4fN4OMwXy/X/7U1SX823ULn/Aw==);lineShape=1;" vertex="1" parent="1">
                    <mxGeometry x="1049.8013555486" y="163.97559789238883" width="0.6816328027945904" height="3.0322269822648864" as="geometry"/>
                </mxCell>
                <mxCell id="94" value="" style="shape=stencil(lZZLcsIwDIZPk63GlvxcU3oPZgglU0qYQF+3r9NMIFaIwDvH1hdLvyXZFa3O+82prlCdL137Xn8328u+opcKsTnu6665pFFF64pWu7ar37r287gdvk+b3rIffbRf/R9+Bk4rBUr1GKrfYcpANP8TrwNwaI4TIDpAn9sHiFYACGwORAvOC4AGjDngQbllIBhwIQcCkFoGvAFjcyACCjs4DW4GBCFo48GZDJgIfZcgguD5Fl4AUIOPPOoYlgGNo+wTXaMWZJqp5MAJHqVV5pAFFOy1AuNygERVdTpWFgGOe97XKI4OXwENQchugxAdB4wQg72m5pOAT0HrEpeC5qn0IOgQwdoSWdMy4ezghMRIDvAd0tkLQPBAVJR6YcycJ5PbOdAsBrl8LALlMTys0DALQm4CaMEaDkhtRlsgzaNG6ajBay6r1CkdGBaB3IpL7Ql8bv/gbii8ezRvSGk/4e+We5PqhsT+aPNr5Fp5Sw2YNRclFjIhvzmVeLiGxoy/2Uv5aR0oKrB3nusj+5NqknUuOd5U9Cx7ZD2j4frI55Vqw5akQ/FT5wkgDW4vq11zOAwPs+k6f4mlqeEVR+s/);lineShape=1;" vertex="1" parent="1">
                    <mxGeometry x="1053.0012672961598" y="161.2884700763052" width="0.38646566901430995" height="3.885758533456379" as="geometry"/>
                </mxCell>
                <mxCell id="95" value="" style="shape=stencil(lVjZbttADPwavxK75F58TtP/CBCnMZrGgZNef18K7ipaSpogb7ZESjyGw1kd5Ob18e7leODw+nY5fz/+Pt2/PR7ky4H59Px4vJze7NdBbg9y83C+HL9dzj+f76//X+4my+nXj/Ov6Ql/rn6VapicOPy9XkiUrhe+Xs2fTs8Lcw7Eoz1j+0a1DfaROO/bS6XEg32Az0+FtDn7AOxzIUnOPsq+fUlUxdm3uG9f2cfPFMu+fbNw82CficHzW6Y6Pl+pgXxbo1bG+idSFFCjVMcEYr+y7ZB8Ra3nMYESNZKxZZJgzjX2580OSlVh03h8Q0pUAOpyozJWNVkZUA5CYQwpVVJUpUiS/RsaAJ4GkjgCI8IctFAdG5czKXhDDPOodI9iUYK6qnbozA6VGGStdlsHByucoKwtR+eglEEjDH15nE+bkMigc7mnOA+QURoYiLJ6gyYKwCEztRF91poC8J0i1REbaiMCciidguaZDpj1DP0uIoXgY6rF2/+fqG0odU5fJgCAFDwsFONoBVSraADxzztj0TLEksZwLl+hCjomnrR17vk2JCiwtxdgX/vOWNij+lt3krfPqF9xlYDAIYi8UVFG5CKeszXDRW4OvOpxwSHlke8MRA0QpCUtrgtGwYi9Vi9QKiCFSpm9PdoJ2e/ByR7U1KhzFU+GqHZcavlWQCuhM+2ioKgDYYXqQgk0wJSWiyf3nu/E73bsRLzg+eyVi4EarYKVcJmmBkx96ZJgOZWgv5+1l+Zli60m1DCTEMEtP6WIEGfq2jnUXuTtFLKXs5Pcw/rXDc2kcAGoTQ3GkYreN/TexnewKAXOvTk4NjWZkz4IaeyD1a2iKs2CYHYo/Vi13YdMjb0DopZk2HYhWVbAwRSyOr2pFMBKMCxFJ4G5P2I7B+nks1DlSKpl7W1a6H5F85a9zhHDEoBGDX6PG8dGhFbx82AkhSiviq+SHacQ55lAdieLiHNYQ6NBkrRzhztgV9g2a5KfaEgZtnW8mqWM1nLst+eEI+zyvCNne6aATlL+IDXZgwKtxXKE2i57SJg9Op0aH45jEAMcA1ltKcjxJjXH8FvHx84O1DH6CiWOeOFYMHhI2ZkjLCcfTO692+kUOwbq0N6RW5/6cvWhuf14/0j2cHp6un5jW973H9Xs0vWDnNz+Aw==);lineShape=1;" vertex="1" parent="1">
                    <mxGeometry x="1065.829851234707" y="158.27561774370614" width="3.580151639565064" height="6.137880335822252" as="geometry"/>
                </mxCell>
                <mxCell id="96" value="" style="shape=stencil(lVbRUhsxDPyae92xJVtnP1P6H8wQyA0hYUJoy9+j9OoQizsNfbs4u7akXcke+OZ1e/eyGSi8no6Hp83v6f60HfjHQDTtt5vjdNKvgW8Hvnk4HDePx8Pb/n7+/XJ3Rp6/ng+/zjv8mXm1QOKZReF9XomMSn9Xfs6E3bS/IowMyh0hJaSyTmCCjB2hJnBdJ1DFmHqCoAaHkJHMCQWjExIFcJ90rSi8TogJJVhCdQgVmSw+jOv4jMA9fgSLE1DL76qm1cEHRLM/tZUVPPUSlIro7K+79fUp4safbX1KQkhOvpqACYiQHJvG3Ex5IUSI74n6heC6ThD6RiiM4OTMmoM5QWV3ctDOqaZKI8QJibWIxqYBOToEbebaExjJz6EY44lrJBoRTKuV5q1lAiGYkLSZHOGiQHprxBBaHZYZEfSlO72sBSnYHDzhCKPBZxQHH6xXVYXoJBAWZI5e91iV1Uf/hvj38U59UmzlawRWgjPuJNkB7LtIBLmfX6kNzGV8hfR4Ajke0kst9fFcpsEyXvtQDJ4cwQrZ+es7VKdntvuzE4/qL71iEewYTm8Lo7Ba1hFYbyMzflMr8DJeb7ve0YLizKGrjr1Yug3LtQOKafqI7Dwq/vud8w2Cfnw+qx6m3W5+lV3/b59hujQ/4fj2Aw==);lineShape=1;" vertex="1" parent="1">
                    <mxGeometry x="1072.6352092999023" y="162.36998279177826" width="1.0323409324685688" height="1.9153712632504736" as="geometry"/>
                </mxCell>
                <mxCell id="97" value="" style="shape=stencil(rVjZbhsxDPwavxISqfM5Tf8jQJzaqBsHjnv9fam6Wlvc3WkN9M1xNGseM0NqN/Lwvnt6227YvZ9Px8/b7/vn824jHzbM+9fd9rQ/66eNPG7k4eV42n46Hb++Pl/+fntqJ9unL8dv7Qk/LjiOJLWh2P28fOM9Zf79zccL4LB/vQH4QiwDgBNlBwCBwgiQQgkBhNwICIlCBgBPJQ6AGKl6AGCKY9IpUBYAiMQ8ALKninKoFA0gUwnrANGQ0gAoiTitA0Il9iOg9s4sAmIhMQD9BoSUkq1S0bKCkHKw1CiaFQipCAVnyxpB4zSAPAKSkAc5aBH/pDhRQyhF+Atp7EPQIAvMgceQRCiDHHKhUkYBRfJAcZlJ8ijRApNWMvtRDyqpCASkcskzE0CNU0EWA3C9DIsA1gBMSKE/YhkwEWECxE74NcWFYAEOGVm2itOQBAESuWzLCkOa+nrrrYBLrSb+nrK2XxhDUmvFKZjzGWeQZ3ojj3yyUhoTiNC5tcupmPOoBTxJ63o+IRbFrt1r/IjX+m/TAC0Aij9bWldo2no+GZI6KhjgDEm5e+ZaxsUABM5zVrMwUg6UUM5sDa+xEOXgZjKI0L+avc3MIiGapplZCNZBnFmqZvUXZc4aBzeGQHVkXsXKiZ1oV+ahOaXK9GNAuiOh84WqGYSdiv/lvK4jcYzfkQM8TY7CSAomh6amt1MzdutYHstsnaIJBxSoTv2cAvJd3MuAWcfEQ0pUHfyjcALjceCmGk5Jh+4Hyz9R7UxLE9OXAckCMl47tUxmZdONKQJA8Xb9rwxnjnaaR0PSIJHlxWrrqmVgoP6Q7RS8qfTydh7tsq3NFDR4gqV31RsG0lu0gLbOA3Jkqmbyc3/Ccgr2UtW2ddA37fOMSahtS1RFlwUVlxEDPi92Lxe9dgJ56uAc/UufgC5g7dZpiA3l3ybMaEi5V2xtIKSxYalfEdcIUceGTUv62kCQe1apZvD2+egWog02DYtQZNrgWs15dOvX9gib+jCof1OYXdVg/NGuLaW7wNp5s6pVErQ6zq6muiFEQLi737z8A0A/XF/0vOwPh8t7otv/2xdD+tXlpZI8/gI=);lineShape=1;" vertex="1" parent="1">
                    <mxGeometry x="1076.3547473740146" y="158.60910520461553" width="3.3177938602177526" height="4.315153803941478" as="geometry"/>
                </mxCell>
                <mxCell id="98" value="" style="shape=stencil(rVjLbhsxDPwaXwmJ1POctv8RIE5jNI0DJ339fam6Wq8o7xgFenM3naXEGQ7J3cnd29P9637H7u39dPyy/3F4eH/ayYcd8+HlaX86vOuvnXzcyd3j8bT/fDp+e3k4//v1vv3P9uvr8Xt7w88zzmeK3FDsfi1Pkv/z5NMZ8Hx4WQMi+TIAxBEjgFDKAyA4igEC/HikkMlVAGCSOgCiHtJBgLlD4n7IzTukEVB7zKsA9uTHS+dKPgJAouoGQBEK4EgilMcIJUHigqccR0ChVLYBUWkyR6owrbFSEBvhL5VXAZkpmwhMAUQojsooDX1FAXcoYSLOk6AIkcIICJVcghHqyINkYnQk5SEMAOVeQD3kSG4EaIkWoKUUbJZU8BExzf19C0BgllRL4kdAoYrknW0EWRK9VQ+Zp7QCefPMQ4GXZhXf6Bqi+kURnLUZBSQgb82JixbgkZFFqsXewYMs+WArTtQEAA/Kaxy1JCoWZJXSc7IAuKtr60huLCDtDxVFUCGMTHMlRpfOJOOlucAS9QtNCyD3vG1Jw/0bIPRyWR8JuLfKm+dLI4D26TmtgAc9AM/EAZu5nHgtDRQhT5NA6m57HRB7g1rLG5WoqnUqIAZa0rbLzgJulGjxFoA6kE9WS81m0OgQeoNaGxmuuGyY1grB85IY4rRoQVqvRPB9Cvw/AJWaUau2B6AM7Sd+5C30nrc1miTTEskB6046N4wpcuQAB9lTcub9qFvpcJdGknUABedvo9r4/grbZ+Xu6st5EpRpTZODMVXgYLVMDlYpI0ClaLphooj2ALfkfCFZYPlrCDPi6iwWAQ0KMJ0hJuiq7dZjhCSwHWpejcGoVASlia2FZbUcACi664xS0pEU2bBqz2i7+m5qW+LmMUtNLeDSOjKbhUzzVsAcc6FpkavDBaeeaApauUQVpM3HzFZ6CY/klzuxqzRBp3d2dVAi0N4aeoGtmEbt0NtxUolxgOipfHRpRUO6s8qLAS/q1pNC6lK8ToHdJ1vrRKrohK5HHrRO2gGmeR7aYux9dbJEi1iyZaCtGtlRns4jxMC0i53N2xYG9FOvbG3ws4e3lq1PkMf7aeNpEfDs4icAorjN8mJzhHLaKJ1JQFWZrYouH6S2AHGSkdwAGB5ufBG7DdAflw9wj4fn5/P3u/Xf7Qc7fXT+2CcffwM=);lineShape=1;" vertex="1" parent="1">
                    <mxGeometry x="1053.0500084504515" y="159.91528061179028" width="3.650246527538681" height="4.421513577109841" as="geometry"/>
                </mxCell>
                <mxCell id="99" value="" style="shape=stencil(lVdJchsxDHyNriiS4Hp2nH+4ynKsimO5ZGf7fXqiUBagUad8G43Qg63RBDd68/p497LdpPD6dth/3f7c3b89bvTTJqXd8+P2sHvD00ZvN3rzsD9svxz235/vj79f7hbL5enb/sfyhV9HXB7S64JK4ffxzZBR/r74fLR/2j2f2WuTXox9xJtMAFFGNIBUJMXrAPwdbETwWRkgSUgGkIuUQABBug2pqDQlgChdDaDCZ6M5qPVQhygra5Biy9qKDFLWnEW7AfQsuV8HlFObToAquV4HIOJuPbQ2ubIKQMSx2aSLVFKlVn3SJUomSbck1YaEQlcWUpJik04qyjyoVMsl9D4S8iFpR404KL1bl+EAfIA6chgeEAlbl77mCwDpwwh+4gBgIjBUQvdJKyHfADWGL6smAqgSbUhoXGE5oA/OQ5n8XQdgXJwu9akj6wCIgKU3pLIR8vXu6Y0pH6xxWZotK8RTBwHge9UDIlE+TPA/YTwLKRAPDSEVX6XMZhrUcGWts9DXRjQ7D5lPnE72n3Gpk7Iih3HB1s6r1K0IxC6JNQ5tupjpxBpXPL0BYAcKuDSCB7BDcaQLD53KDOahusYFqSRpTNxw85BoWT8MiAHktFnjgKDCNKTYztVA6zpOjT0B+pTba0kkGxLYEkgSHfuUFSY0P5EcQKZmASPRkHBQNxsSsmIqUIrXmbNKr28byZ8QcMG2DchKslMNfhXC13iRBChfSZlinAvVCRAlkVaXWZNT47BNkIGIPmXsfIPI/SVX09T/K9+vts2Z25e5rZ2kW6dyrn8/e61fasyWVpXkJAM5saUVJXU6SXdWrTKsfZizsW4/pvt3eyWKlEGJ5uwpq3We32f2hKO5+rUnTIfr9t1vPZHWE3cxL5A0Hoihu2UoXT1ByGgXQ1CEMBr2bkUqtF/L992ISSYbFeJP7kpCCfrRu+r/7fHwfjF+2D09He/V5//7izReHS/hevsH);lineShape=1;" vertex="1" parent="1">
                    <mxGeometry x="1035.4318714125684" y="158.8154019039526" width="2.3448713003240367" height="3.8862056526826705" as="geometry"/>
                </mxCell>
                <mxCell id="100" value="" style="shape=stencil(lVnbUttADP2avGp2pb0+0/Y/mCGUTCkwQG9/X7mpjFcbH4a3xNkT63IkHdkHuXq5u346Hji8vD4/fjv+Ot283h3k04H59HB3fD696qeDfD7I1e3j8/Hr8+OPh5vz96fr5eTy6fvjz+Uffp9xUohlQXH4c77SKIZ/F76cz9+fHjbnOVOtw/kYKeV9QKwToMI7RKZSBoDeszAAqAGjCxKoRQAI1PMIyNQLvEMcTUqRpEIfwuh0KtQFAMQ7nZlyBwCNSRgBjTKKUqMwRqkItQYzHUcfKtuVy4DuM10LVUANSVTjyL1ACfiQAsnodBPKCQDKBCgUgdMa9TpSozVicIfcKbs7rGG4CChKtT4AeqAKnNYgZpnuALjU2Mi8dRqYtPxcfB4aIF+rlMcoLdQAYVVAc+Qr9heXAcrWNAICMbqDtq0xrFmogsSpSX1MXKokCFB84pSOHYU1T30pUQF9Scns8qAlFVAeNCZjAXEiBiZpmv530k0zDqDzFe1CrnuvRl6uh2JpWgFKDZDp1H0zXponyHQS4u4BBQCkWkxWQDKyXAZEI8IKKPAO2ozjGFaulNB80NbrMq3dG00gti60oQajsRs8+RSQEJeoTOdR41PexMkD0JVUN5QpRKixUhjLkwumhY38TSmgAZqn0lFiA/unHsmRGkhAtXyu53FP7Z6keh61I9UkoXsAqn2lkOdcoIIAyTTOxmUoMbKRfgUwHG1aVq7La9Iicrp4EbNoQ6SrspFsQ7uA6kaddndoppB3w+qI1E387SZuKuUEar9PTO1QfFZL0sYDJIeL8X4TogYr001axrN8rswMp5r+6uwX07p7ncXZw7A1fvQ8X1iRBM2b5EmqvQapWrYRvOoE+P85TLOAKopP8zNcBSLI7yLNxoRpTSCBmvy4LKb29lSL1xRY9quQ6k61JLhN9TlCuDd2ZdjEaQYx7cW3CWEoynvzJJIOq7JrU3D6tFgD3wN0Rzsxpu9IhOBnrIrsBBfnGVHgEqlGtRFQxcp7DxDH1NWOU1d9nNoqHS4Dkq2M230K1IOyKbmNTeBeqwbwKGmVLg117GYFuQKaqeLLgGgWv5VQgF7rsu9ktkYasUOFfGreJrS9pOZ3C/W6IsUWfFl3vL2I+JWtR/ywqppkXFNdofJXgeMBDGdPnIZnrXhViNYmNqtzBWVdfVRLtfGyM237VNOIe+w384x1czT5tLalBuVOsAxtHp2hTWfqMJKhLg+TumhwK582YL2S0LS1/rbZBZF60VnmRsnyuBFRKJvaWhkBq0Az4Co5QXmhg8ltLsFm116ViT8fQHtcHmoEfx74q/ls7M6jUSvF+6sRRvbUSS3AJ0fSbAt6k0cowTq3o5drqCD1vItneu88u0fBcGNR+9tof4ETVs+7fQKPcI2njOcrbBAffaPw/nn98Pb64vZ0f39++7H93b/u0EvnVyXy+S8=);lineShape=1;" vertex="1" parent="1">
                    <mxGeometry x="1014.3323392532084" y="151.24201186985775" width="4.514813499509459" height="5.5216273319448375" as="geometry"/>
                </mxCell>
                <mxCell id="101" value="" style="shape=stencil(lZxJstzWEUVX86eI1zdjWd6HIkSZDNOkgqJsa/fK5x9AFW6iDqwZ9YVbeE02Nzu85R9++/jTrx/eUvjt+7ev//zwn08/f//4lv/2ltKnLx8/fPv03f71ln98yz/88vXbh398+/r7l5/f//vXn9aT61//+vrv9Qv/fcfNuZW4UCn88f6XVrZY/veXv78DPn/68gwYW2pnQN56BEDfYldATQBoWy4KKA0A9QKQCVC2HB2AlpS3lBWQJgDSFt0pJXpD3GJSQKBjDVusZ0DaWn8NGHMLAojbhDeMvs15BoRtgmiMts3zKdW5zQCAuo3zxdWxdbi4UbZxPqXaUZZG3sZ507VtifaQ9hUfgLpFOqWop1QLXpwBkmyaRWOErY4zIOGmu526AOLW4R4MkAVg7wRZ6nZN500X+wkGxPOmy9jF8RrQt3K2GqVtFS6ut32LB6Bsk07JCV/Ju2m7BtjvyZLiVsAIGCCezUyeWyNAVruUzdqCLHUTBAG0fVfXABOEsz7kyrIUt3DWuGzGk2QpbPlsBHJGBWpzdx8HIOLFGSCchS+HbWQAjK2c95DmbhauAX3rAjCBpzc01bhkdglu2gDxvIfU9qu8BtTdQR2AuhW4aXPjuunCAHOyZ9FIJo60h+TekNCLmr/J8gazhXQPQd1uCmi9zd+IU4wTddr8jahoHOjYzd+Es9WIHTdt7kMcSmz8hqIqGutuFq4BRqfOpxTLlsAYm/tIZ+GL7IHMG4wzm4nGb8AImDeQi4tGHeAeSt9lcwdMVLhSt3Z+wdj9xfXzeWvnHXQ0rGbZq3j1ndtcPm+GXXx0QVKc+9bO+81oL8xKz/P6jezR7xd1n2b44XyWjRYp3eKA5+PWzkJqIkLPB9WzgOdp15l1PaTHZj2FPsedKV4/n/fje5xnBUtky+3i1TDCMKPQhCDtBv/6+bJz98fzE+4rRsdrUR4OdnZQ+S0QXVNn09ATVHWXbZeOa+XaapDHyX1nJXYdfUBWdtBR8pMKwsCtpt1QPuwUkZuoxn8itXFaZWaT6FzU4H3JBYmZrt4Mf4CjjxrFmpyS3Lgg1lwX3VV03rdtBcxIdFbKLhd/X2TB6ADFZu75xTfwPPX5iCzOrd/kiQIz/3xGs+bOf7khXH8UflV38vHq+bPXMtXtfF+OFrM8S2hs2jjx9zVeCvuOXumLWPG4RysvnhcWkNntRg2Lza8S7Um7ND5FY+jmdl73FO41kJ/k1t8xg5M0l2G8htycCxlKQPnMymJKwmCy7LHpU4hO8laV/hc+z6q8tjRcf9uzIk9ZjATr6SrPRowrpRh26/2UhyHnNfaUyFOiZ4L+Gi2X5FZC+Zx6PhZrDLL/wS2oII83f5Vduo1OaAUeLqFH8Vd0zNZCuEhvKBrhVVYaA2i6bbBVr+6a565I14CmdmVFxmQXuxIJi70TLWnsev6UTQ7kOeZFvpqIkwHG+ZRaYYoeNERqDY3Rsu6ypIHefplTIaIT08+LW57f0COHDYe6HIC850CuAXYmQnYrlmMevP8AMPleVF6WNPCmk6vf9IkkLQ0tNIwjf3ANmEorRkLaZV5epHVYPMfhqtQNRkWikA9hPgDsac1xC9UZAy/OPLEo0Jh7GPUqxRDO9zAjkusSd25/AIy9wBvMGY+zLM2M4UQpyqdm3Y3nq7SN5Nxn21XqVV5ITskAJEvLIcsb+h5uvkxVRQVQjGYuWW56lUThDdWxZgMUED5zyrrpgeUY88oeQIWGWpwscYLbvPIFgDKxzQnfDaArF157IK53XNPzKRFgaP3m5h7MyfqLo6zhSnCfrcaSJQIkZQJLWikj7vJ6q7wOwrcKDU7j8A2Og5pOE6dsU7M/BqD0cz+qZgegoF0ynymcz+wSZcd6uTBkFOeZz5RAcplKqqO5CtHkolV3RavJGVbzmdLUMAPWb0bUWuByKHBx5mQlZ71aBOCUlpMVl8XhzygaDoy+1yquAVUpnLldDICaFhrsL1h9b2oEBoeItuIuXKNgIXoMVdHVhEBLmpoFM0CgY51uSWkv4F+HccGxGW4ImK7qawBy7AaQIu6SX7g40y9JXfbJbURJL65P7CAwla+O6JK0mhWScMC0nLJ5BpB7WE0IYARWo5Jj98RmpsusryYE2nTTjJ4ZT/JA80i4HoCEYdniX3JxEf20OSihDj0glTaAZLnMxWDDmCseWuCH+uCqM60iE5jO3BuA6jkGkFNqBTOZiyhUBeA9DBeAc6plupJa4xrldIZsAUinh/qHtWl+Qy/uWEk0XN/R6ovgTUs8bQAiiZdLIuu9Ni2tgeyB1rEOBUTS6eG6FRv3Eg41AgvAGid52XbUU1+Kt9MHTCR2rZ82rjRcqiga465lwsY0dAGGAtDHdS3mLRVlfQhNAbhpF7z+HyrqjQB371afhaOLGxfHSiRxAdyxUpPPtYqyEfjLAGHGjUPLpXFyrPPupiXJvPrm2NyrF00YWk7XD2mOvbBO65IKtpjMpjnjfqOiLrTsXMg3NlPlDR3zrUawprxhcJtD0Yvr3Jc6j7zhE2+lsGxmTVMYgAK/mXRJg3PG0zUBGLuPtIfolpR2DXkZDrgIBUNLF+JbDER+eky3pIKF3xVIyqa5DmRhmXjRFQpy4NdcRpeo9GpOl9Cyo9UYB9l5Co8LLSmreI+JOeN1ry5iJ7u0wjzJVQY0AuOg5s9JZqpYTm33nQnpT3dcwwBkBMyoSHuj6eBN2/V0+SXsos4u1VKwP3hFPJKFY3LSpusDamhmVuWqK4Aa7JrPYHHe2/x+c8lNqgOteRQHwB7nuGvwAZiY7H8UNZ8ABQB17k72CUB5jepGWubEY11Z6aoAshq1aeYkhrAFWlO9egWtyRWoF4BS6/7m2GxU15cyuTZVg5bAJ4fs9TiTJ0Ciht+r5D0WgvoFgEqvpam9XzEIvaFqdvORG7kGFI3LZkXCVNx4xyw441WCS0tndEHZhbs35ju3C49C1eBcnBsdOBSWPcPqu32+BriuruW6qQQ+dU7NXDexxDTU3q8xMWpf7sp0zRNTh0dy5Ns8MQWjq3VJmO7AIkpyFTzzxJTCSkUpmcUDxH9SVvNtjhXr/m6AxIKgwB0eEr127oNZbduSReBKanJ2qTVuxHbl45tgNA6V1jVwy63kmns82vReAaTUZACilY+BlAMQMXUSq9tDwPGLWJTDVXYoMbuZx4EJppg097hGe7iDXviP+XryD9GNAFQe2ZpanzZPj3lvLWVVNvYulVMzT3m6rrOE/K3roHeNmFVv7gYCip0baTEfT96wavO6uXiy2q5UXjiTm91Ma8G5q6x9II/+mWvbooniErFzMWkCJ088n6gjTubc6Xyiar35dlQxNY2ZU+lBq2NGBSiUDGojcsLuo6CJFSMCVFwOOnKZw816pCybJgZIQXm8aRCRBOdqbprpg/Kim2b9oJHIzTBA0I6dm2GDoFHFzTCDf56HJfx58jCGe/5m2MM/37GA5p9vyOmCEq5YMeZ38mZOkOVHmIf5QPKpQZ22uUD6rEbQkn4M3Gmt1Y6Jef+oU2ADrW1S6emYBEqufIQp0exKnUiAXN9j5ZZBJfeVM17uAxE3PENoN5em7dYl5OOS0eJuMlSBuV/TIkn78LdVkks5Jr7ZrJlf7j9Yo47n3w+YwUlD9Sog7VkjR/r7FLll9wkGzg+tVmT9fSp556I8lfebmxsKRDeRXRk08Wjx1FHVjPG/sSIdOsFadHFZ9IaFMWOBWlRC+Sld9WWgWV4jPm72nQK8GrXvKDIxrElDF7P85InW1I6oTMYg9fHNmwNQkFutr+rIG/i7IhZsSewf+fsuFs6Jv4ic4LYIU+xW5G8EWAwrAYwRCPxihquuLB9LrbJJx0EeXvBVzn06jnXTHzwdiSOSvrpbZEkFS6zNzSItb0Z76Hqs6WbIbujXiBaRpj1MZR43TH21LMvXF1hFuxs4yRHZSg96cZm9Wvejppm/FZTc7Cu3Bvas/DUzyXlk7w5Ax9GiXrRXxGw/Hmt185T8hbHe3MApf/Ssd/3kzArqqRN86LTTw1+8AogC3aQlurNLZXCex40hlIl51eEm5yp/nWO4ufEa8aZXXVkIcEKnO5IS7Jq5dTxrj0ItOF+4Uviy6cp92lUVyJwYfnyuuVlVnhRadQvJuA3M3PrW8crVxjH3CO4pEXvT+lEkvx258zW6ZtzIPTvJJcQjd75m1/SWuLG7aMtB47LBrO4bl/z5otUU7QA3DZRCfwxw05eqTaD8Tb853TRsQp2eU8OMVTag1sCps3mNPw4yXYLbAPjp0Kkl2cZG4Kl0/oQgcb1GYNvb1aKwhfJq2zc34Q+WzMDF1RXuJvTCcfMRVxejLADp3F/+TOw9wP7x+CrtL58+f37/qO3z/9ev2Nqf3r+Am3/8Ew==);lineShape=1;" vertex="1" parent="1">
                    <mxGeometry x="901.1927883037379" y="153.1976430134544" width="70.84003947537832" height="52.28308895410665" as="geometry"/>
                </mxCell>
                <mxCell id="102" value="" style="shape=stencil(rZzZ0tzGDYWf5r9l9b5cO857uMpypIpiuWQ5y9sHXX/IIQ9mPspVudMCDNkNNHBwgOZb/uH3jz/99uEthd+/ff3y9w//+vTzt49v+S9vKX369eOHr5++2Z/e8o9v+Ydfvnz98LevX/749ef3v//205Jcf/rHl3+uX/j3u95IW5pLK4X/vP9L2uL7P/z1Xf7zp1/P8nGLSeRrfS3f5zavv5/x900+ZpEfCeTHFsJFvmw1g3zbernI1y2TfN3Kdb1tSx3kyxbqRb5vKYJ82lq/yI99A57Lx/11H/KT3idssV3k59ZBvtn+x4t8DFslha4GjnErBRTaNsZVwXywgULd+tUEMe+b/FyhbGWowgAjNPPJq9FiQa9ucetXK8SKbtGCHhtTGLDoOrZytVtsWw6g0LYZVKGRgjn+UIUBhqvZWbqh79W0dfGlvgVadNx3/aQQ4fTXsJXsFMZrhTK3lFQhwS6Vvg33hEBPMDN13aUOEa+U/b9PCoVeKW1TDFf3I/VcIW5hqkKG85DnFmTRZWtgh2yOIN5qJw4WnevuCCeFCM6X8+79p6hR6Alxa1UVAmxrDm7RFsjAvS3ytqgKgRS6CzMWW8Fwlpv6UAV8QtGoMTGOrWSs8gHsnOI2risYu7c/lw96oPvWIADEueUp8rTeOHYw8cjODbJndH7atkrvUzU7tz0XPZcviqb6fvSeyyfdz472Wh4ZZP8jyBv4KiI+YHss51wdeuKpby4fmLkp47hQamAG3r5swx15AgqWn+R4MdbMW7ruzjIfvP/x9FOgpuNrIEHefyIWPHDTAa0tYqF8FfmKqcki4jWa3JyWtCeJQ978AWK0pfvr/lsMJlCU9bDkhHjC7Ht9n1z2GP/Cf+rVXpamMgGc/W0P+YEZo+2x8pCf+w6/kJdEb4k5g3zX9y8Zo+FQQLegBazXYSHDLomiVVAcsdAROWjY7XkoWICn+Bk1RBjCoy2NDmLWmzOTNWkbrC30hLLDjEOhYEW6sNV10QbNCdpYFBE71M6v1BWpWLVAENMUxjVSrHoEPDs6aGMVT6UnzP1kHQoZY1FyaGtVbQQ9ghbuVhdOitZRs5mVqviE5F7JamuKj2kPh0f2PuqRV3BLMo6V8/iErOehZ35C0YKol23Soi1lyCuZO9IT6o7gDoXOILbtSf5QYMoiHQXWgVoCxqXk3HvE3X9fIXfJVCNjpF+kibxSwSNqxYSQHMPQD+W2pMlkdLSDFUTp6t5jIO9iybII0zQRrlmNJvhrMr7LfY9zh4IlOAJsY//vkwKd6ZVgRSExhIxKx5lCp1o57Us8FBhEWk6WksIUKFSWqpWsKQxaQ3OLLkijlKGBzBQIOFtWVuBvzgKvZFm5uycQlKxROYtZMGVVX5lW5o6KZqBZEV3VutWkClTcWRoXRmE2xGOWxntTBcpAlsb1xDVka+t0dugMWcNuppMCEWaW94VLnRyXPJd6p1A08i0F2KV2ZLTzGojePULvaVsn0btt52ZPCg28dZHg7gnkfItmT6pAnLYhi+TOAxXnvlGwDhApJC0fbqLGgiISNTJScgZFpKC0YEwFXK97PX7KD50VNMwEPEC+HWRJkQKZgZ0mDAxTYAZ2NO0yJ9SnJkWDDhQqFzoS6FB2yzxXiLqtC/4QL5S0KWQ/0ekJWbty9pKZ1pD1ANk2ULgfjhwyy1Bit00Uw5ntCcKNpu693JF2qeu2PpqBrxSGsIUJkYC5mmLviPylObPwwRZHqACfrsS3SEWc2ON8nYom8iU7wVJPNw7GK0YIZ8sFuEUhiXyWkxocUVOQhNIS9jyn4wQsTZJ7W+iN17i0CnBadFXoYNhggqUtfaRr2l3ogwznG+HcYHyk8RMRQifOFKQ8rpkX3TV6G2wkGDqHvlI5ANErhfynGCxTqPKEikjAFCTMWIFwswZViBg15lCa2Mqom0VHz4Oy4YR1yBkr9tl1SCIzXbTw11XBKmwaw5iuq3ozVzGrkq2L3qUDVPUApcyhsmjkSxGRwHQVSpzYoV91obT/BpJqC3+5GQC0Q9IGUTz4oFcKfrSC2J950LGHAjdxLKFodzvgGizHyXjIkfReJdEk1AzDq7bj7Id8Bb8YzmoDcbfJK4uITJHJF5WnZDVcm8WqpRt5SZ93WE9IzYbl23DpuSJEN3lhZCqOR5i8+EPFrOOhZ2XUVhxdj1z6OKiUhzwNX5i8pk3supm8kJnMSnjk3LDn7H+/c7FQlGLomAD9/nQ+j27/jwm0l/aVegpDnPefvgfJ7/TPjgjB+3/HPPPsfN3EB3d+Kdv7+FD3Put3xp+6VZZ3/nwTHyR+1jt/jvr7/1f5pnm+8nnp6v+V4+fYE+hDHu079+0+xVtK2UH7LzyPZgVa1PxCrI7Ju3yHUC4p4J3Y0jJQI2W1AYJOCCLv5+8MORjJCUA2UINb5CYL1vgnoSDXZVuzllwwipHjYKxYdTgiMeMym6LRNd9CftR0VimVu3JOepHLU7nYEqyYuKW1qjOpbAISKHO6kY2MIyGmIIh6dcXIlxwjn5kfnG5GqxwI+KlCDMGNvGemK6ZmQCtiKWWagpi6DKS+TEHm5NZkLr+SFOI1cZk81TdqQRi4fENgF0+3TNc1q5z4Z3eTIVx5zKZ8X2NTz+ZSf+I1VK1VWuYoULTaagUHbnwR2yrOFFo0lim41rDHO48hp+9lFJP60uqukB3c9H4POGY+XRe5Rz4PQXepJ6bk517jHgqZmd2xh6ET2UzT+2M8GfSgmyaLzpZFdxznW4S5cPgcvhclL3aYmNl9KbKuIzH2lF0aN3ZISkytcoBbIxKXBg9hrjeW1giP+6/2jih0vDrSjxm7Q2Fixb/MJC1bjt6+CfY4Us8VHNm8mCdqglUd6VkzD3zvSq6/PELbc4XsFPgWxerNuB4vDbNbjFBiqmOl1N20/Bw4e2JxLjsFIv2bm5dfeZUb23JPYyEiap1XHQpfiIgVBM0suEJrcPMCJ0T0XCO7uaSJfHZzk95LgWYY3KzhA0I9Vwjuosbk4ZOpw96TwUYdOyY8KRBcN7SjTxhoOcNTGjYGjnvV6kYSOl8gc4XZOkE8NSTR+Gb4pEaFZKs1AWd0zSO7ISCie8p0i25YT5eu1xgmA9fSnKUbHmpD/xoF+DJicWl01adguJJcYKpY+lnNo3ZgOJNdZ3s1ZUlhaN6d3NTKblx/NZZpmrFqrWhJjuJ99pNPx5WO5wrJOV/gMdSoMz0GBfAKTVDXGFwErQtjDs6Qazy6GyfARBjuQXeeIBlNDS3+WxbNVVNyE5kjIBTwN0v6RFjpryate+tghzUpLlia7xqtWfTrojvj0DXt7isOUoiO5053I/5CSXXu5KWgwPVxG/05FTL19ofhFbwuMrUIsmKUzkMcbpakYGKPbuihZYT3salrGPqg/pMpSFJsAcH3kwsp7K3RuXcdfF0kO/qnIXRY13ZEoSJLFqOi9ZpxamhdxRWFxDdYguYHwwZ8t1Lm7wvfjhvq3GtMm0ognakoPK/W3G2xwrPDOmG0bpcRanB3uSJfU9dMYimbapPsZkgYHCZHtHIfJCmHkwsC6Ojeh4fCgp7jxUXDsQzK8K8vecD+Oxrg5m5x0MotcY/CscpmEfqSipePCISDFmEWjKnPFdwsy8C+ubsfFhmYR/cliMp3tZWRWFEPb89qjyhhq8FNU1sII3sV952JwPcd3CA/mrdpE42LweGbhgTfp/46z4DaVkS9h/8/673KLzIzWhFYW8aL2rOlmR1zFaFrCyeXrnUpT2hHdxOfv2oUp6I/nmFJQRs8fPVlfRRKkBmyQGt0TtAocs22PAEQnd+najIaOLu6RiyEpWWAP9zNHbTXKpv0cOHnT+KTD3vgA7JyLTHcfWBFpkDsDNHYWu7uC0WJLyBOXXNMeNW0+IjLGcYAib5Swcvdhnik4oh8zoprWcSCo+LFVa+xIFtZHExcCkRhBcUdKy8RI+U+AxH58BsQ1vkILhWr/7DGjYIrqGNFhrY6rsV2iTpBdeiBjgWnSOp0n8fiLxQ1h/9ixpsQVrYNN+lKzmeVpH5qLWIF0aqWEDdBwIpb/YhYwDjc3CcnJlJebWhzd+ANYavnxc4dzdyDdhMat43c1wwbdoJ7VkKt8tcJi75PYXk3ZMNfuVqNtauFE39tcLhP4+GUUHf3pyPPJoe97bHLB5zt8hfFAsauRcxVladeqGv1B74llvSOb+DZ56T7HxCzD/f5kcBd+6S4IuzDuC/lJcferVd4lXhnL+c/xAEOR0DHu/fXD/rxrG5yI2M4mPGnv156K29/eHwq9ZdPnz+/f2n1/P/6aVX7p/fPsuYf/ws=);lineShape=1;" vertex="1" parent="1">
                    <mxGeometry x="968.4291599685926" y="143.65690555473196" width="56.66493873852656" height="29.762490286209573" as="geometry"/>
                </mxCell>
                <mxCell id="103" value="" style="shape=stencil(lVrZchw3DPyafUWR4P3sOP/hKsvRVhTJJSvX3wfMFmeHzZne8psO9HAIAo0GOJfw6cfzl+9PF3U/Pt7ffn/6+/r14/kSfrmoXl+fn96vH/bTJXy+hE/f3t6ffnt/+/P16+3371+6Zf/pj7e/+hP+ueFiEvUdpe7f219Uavv/D7/e7F+ur3t7Ly6ifT63D1US2rdC7JOUNtkHKYHYq4Qw2Ucp9dxeq+Q62WdxZL/2uDa/f5GciL0XTZN9kxrP7f32uGHvVTJxqI/i3QzI0n89BThJs4fUSSSAImk+AfOBEhclSTrbt3GGx0c2AmA74SyBuDSImzccg2TiUh27G/bJ0ZBbIigVaSyEpOQ5gizkHHv/Mj+/ePFkv5aRYF8kkvfP0uYIql4qef8qdfZnTdT/3o8M2QB1HMkxIAz/bTngxLEVigQAeGksKz0mQQuDZ44BSdwcFC0ONxwDmriZF1uixBICEmPLElkaFHEVAY1QXXSDGDaAPYJQRYziygIge4hFdAWwUHWiyx4qAwQJDgGJkYs50SPAkz2kNshhd3CZrJCtgAUEsE3ntAAifaVcJcLBBVESfMUICzatI7qOAUE8rOBoeJeEB1ebRAYo4ufQqGW44Riw0kymbq0OSaAaj5BXqorRasSXPAEEZMrSaPE3YoTgK1kyWyFjaJRID86YVGdesuKgbIUlvC26WE4bk7q1XJFNW6jpTPfZUwnWg3l2a6q0IPZ0mfeQLEU5oM2vlHSk1DEgoaqKbUTXMSCjl2KmRdcAuqgSlnEdMG86chmwArqWJqHR9zAnkInpSoRer2hzeFsR82yFhGU3WNIyL8XxvE0bFh4aOv69ARIVq8ZzBdRnGEl7mnFzaJiYSGQFIwE/r+AbbQGMhaDF8HX47Yxb28waJukr2UMnldmtnosTKyjA3v5BjctYsqzviAygkhwCaJ2uWLI6gEsHiFYDJAKwlPeLl9gKppeyIoA1b3F1K1cza3dr0jex3sEP7bKLJUZkvduA8LYUJeGtiyJTx1fYGv49gElpHUy6A7CSZQB0axs911k7APXBAOEBIKNbmfa2VwIp7TkZ965SEcCCzwAZVih0EtP74iWWCuuBAo5iOoBteunU+ysxt0YJcdk081IcdX8HYIW9T3cCAliz2wFAAhYa/JVSQkDhAF3Dm510GOe6AyjP6bjmNAe4NadZaOgy89mo7QygGb1Ez0GxPTYAY76eoss5PGANaPEtNOioTlF7G0BZ8OlBAjUOwD1YxnG3/hzA6gNW0UwbDqtAeHCJjg9DG6SyK7vMS1ZFQRn7QKV0rEtOKxWJpgRgwuf5uKhrjYCASLxkagbLrh9TwjO9BCMvAySuyNCtymcC21x7B2AlyxpwrHEP+umAPVDXS+SkrdttcA6ZRmtbRtGWcaywW2sZF63BZrnWoUDJ6lWPdbsFxbrysV2r2OJrozOB1sbztqZJKS8ZoMKAPFGAdw75vreKzK8NO4643VucvtNcRvtwkdCGAdK8CWuoG0m51rB7TY5ON1vFedF9uHh21HBR0YeLfCiQ50334SIDpJHz2+hER4qc9ccBhjOcvi0hoMjlxvtjj5OQoqNjPstRvH5INEdrxfsQYx72SnUdJfrRYp914OtkkCld+zcEX800lurSZtmuEuGZ0pZZvKM5aj1+mFdo1hYx+o5I33b2LJaKLlNmo282+G4ojS3gAwPkMU7aXQ+w8U8OyPeWtEzpZjd6pB2AsYZlcIVpf6N7SEsTZABWs4yFYkAAO4d+iQJF7s7PZ4oJ6LsvwQAOhy19E+wKdavLOwC9nFLsgtp2IXasXOu4Q9wfNVPfEVnAgokJ0d5VLfc0rEHuShi8FGlCmKDCPSgvQTgOrY2OEjNysdES6+MWyVe5clAUoX2ySGJ7E8Gbvafdt0P7HOl8bJElifdL7kACsJn6ciEaA7/JRv/3ATn98gB6pX4rzBqTpYve+rnjsoNyoU+hSPz4tWONg2GPAWlR6I62Vn6pCYUKSXMRFM5EZeH9cdsR0G9LrL8FgeT550YJQ85xYtymeHd7StXL50+ODrjWz6v46NPswT+OSqOYcJbkxq3Rsf12eX63Zyqk34Ip2LPLdLNP+HzWmZs9Tj3ptPrInjHi+j6eftuz7lepYFn9qTQh1/NSOoJd40EpY/3053wP7e2H+7eD364vL7dPD/f/x28N7U+37xTD5/8A);lineShape=1;" vertex="1" parent="1">
                    <mxGeometry x="1040.6846077894452" y="151.70689229642164" width="20.244631548080072" height="21.16005781127363" as="geometry"/>
                </mxCell>
                <mxCell id="104" value="" style="shape=stencil(lZfbbtswDIafxreEJOp43XXvUaDpEixLijTb2rcfPUNOREV/kDtX5efw8JOmJn762L68byZnPs6n48/N393reTvxt8m53WG7Oe3O8jTx88RPb8fT5sfp+Pvwuvz9/jJbzk+/jn/mN3wunCUOM+TM13JgyNr/B98X8/3ucGUeKdjGnKm4sbn1xK29tRTDGJD32dYfcagUABRK3AKZbBwDnCi3v8CRMo8BHynlBpCTCIAQKMYGkJPiQVJ99bgCchJA0MnpLMlJAi6lQq60gOTNjIEcyKcGuJzcBIol32apGFjpUsibFsBpFSAGDRQQgwCq0iVVOY6AkjSQkbyNIaOCyMQoTaUq4QpAHSRAait3SdwICFEDCTRE6bQxO4kBHXSBPSohqh6dSwMaQgDfuRRQlrKeM7OTqA6ZnNN1CNglDSQqGbvUAR41RB90IoPk2qc1wqaec2I1EHCPctejAQUtZUqdS0gavbwTHN83GihRBIW73aMWB6HHgGQaaWNV85X6HM5r7IA7w5L7HsWjzLZBX+VhpKbsHvqJhwFT59AKMJxM2VNq9Zoz1GvqWijLdxEBVjdpCtClyMRtz8WElwFPuY0h5Cqv2+tGqB+1dd3A2pD1pbRfXhY9opUpa7myJQdicI5cWzgnGwsALNdJt6rPQ5eC9khGJVCS0ZsAV6EMzD0r8wA6wdTevZhb4LsszK2EXK34wNyofZUYDKNueFm4LnRvl7UMyHld9i/mBr7d6csCGr1d3k1tnlFVvTJHVxFDOSlzNN+sDvWe+UP3orvm8nC5gr3t9vvlBnf9f31lk6PlusfP/wA=);lineShape=1;" vertex="1" parent="1">
                    <mxGeometry x="972.0995855874994" y="189.91360425940434" width="27.724980297916332" height="14.344403346848173" as="geometry"/>
                </mxCell>
                <mxCell id="105" value="" style="shape=stencil(nZjbchoxDIafZm81Plu+TtP3yExIYUpDhtDT21cuNUUy/Tfp3bLos3WyLO0S7163Dy+bJbjX0/HwefN993jaLvHDEsLuebs57k7ytMT7Jd49HY6bT8fD1+fH8++Xhy7Zn74cvvUVfpy51iiGTgX38/zGkyu/X3w8y+93z1reaflEzECeib1e31MIEChZA0zRQyAnBYRIqUEgFQ004owBp4BYKEYIRL1DClSx0X/WuwBiFQqDAFqlHCnjHULTQCVOGGAFFE8F71C10SVRQ0Czbi2iEgicd46cJqqjinKjWTfVONLrNlCo6kBUeYPyO4zjMgAWJYERnCnoHVhUAjaIArFqoFIAgLi96CPaHCWQrtmP9S5AhEb7Sk7nhjga2eBFpWoBlH1SJEwcBGhAJTkubZIHYcjjeF0rBOQDtcmAglx0w0MRrO/IOyvvgINE3sSYV/Tx2cqjEhbJVSuP9MlUjP9xeeEpvpUqTgjmCagw5eqkUXMwqT1bkz1SicchuQISKNq+jWN4BTCokALYKLSh5L9smI9NRgcz28tTAOhWuciyBRq6R6joDa6q+O3yRXk++WCDaK+dbgGKwlQdxUVAH2cbpB4DsP50R/Ugw/XrJJ+AvYFisvIenOT3ysc0JV2ALV4qNiW4jay6XSvqBBTYWpRsc0LuTA+A6kdIL9d4g41CzcQ6i+olD28DPBq6q84ig85C2oJgdsC9iwBGpZX2iCejVxowAdq7WrwO6NRYaSI7oCO90qZ24F2NcAe00SuttgDGrSvNfAf0DivjggAmNVYGEgGKmZHwyCNAMjMSHqoECLoI4KlNcq+Zqg2nQp46SAdrXo9aM/IwypFCNvIRhUAS3+qD7k2pP1yNPLR3moLxndYm/6/Ix9Esvk2floc73mavtELO+gf5sw+DZXl7vHrzavVB+fAfXyFW5OXh7yePp91+f/5icv2//UQir86fV+L9Lw==);lineShape=1;" vertex="1" parent="1">
                    <mxGeometry x="1001.9789785556004" y="173.9917633448353" width="3.0055838911632637" height="25.86719428368691" as="geometry"/>
                </mxCell>
                <mxCell id="106" value="" style="shape=stencil(lVjZbhsxDPwavxKiqPM5Tf8jQJzGaBoHSXr9fSm42prc3Sny5oOzS1JDcqiD3Lw93r0cDzG8vb+evx5/nu7fHw/y6RDj6fnx+Hp6108HuT3IzcP59fjl9fz9+f7y/eVuWI5P384/xhN+XXC9Uw0DFcPvyy9M7fLD54v90+n52r5Q78Y+UWZgn0iysa/zAdv2kcT5E6gAQOvUxQKEOoigVeJoAZVSBYBEsRiA5ogRgCnZmDVJf53cBNS2AjQqCJAp2SxJJC4AECk1C8jEeR9QOhXrkuCDK4VytcQIkElFKFuXksxHbAPC9HgBFBIQdNa/3Rs6cQKASNm+ITNVEHRqVO0bcoJvSHn+vQBwDIkpO0CbZ78JkEbR1sPIG+DSIIKth8JU0BsiRQcQCuDgYvfUKIkScEl7hMtSydQAW7W+qu1KRWsatKWoJ21rWgkf0BsCZVtxVekNYuDmK05rEHGJCxUHSPgNmcRmqRZ4cKzcZAto8Bw4zgqegKZpQAD2aW0aNKgHbe6OSy1P/m73VqqW3drOK4i5ktiQe4BczT5iHUgJFTSxPbSeYQPQ0WDj1QGMOj1TZG/fQL8I1Iu37w3Zu/E/7AFLg59Uwx/4fNeNRrwg/3o6zdsLtl/5H0A+1d7lUyctzCcHby/w+bF6+wD4oPm0jatX2On0vLK3r8B/XsVb4VRWvq2e3zGfs4+XAR/YD321z9CfIt4e8V+f7/LZZwXt+V+9fYbxxhU/YVefU+W6vvD5Wv85LBTfAeRVgSGtGby+HgFAh5w6UPsECz6s7JHQXBfwoqn27Iu3RzMsrBpog3Loo/ZxttfFXqjBgeELIMAGXTyBWpvKfGfgOUK3Mim7M1CbJVzD69OY2M4hJokAwF79VSy1VHV0B9ClE9XwesfMc4zsKadmSVplrgrbAG2yDsCzjrYB3esI1ZcIoI3CDe6hYIFLSiSv85eotgEqDp2oTlN87cl2vxiomAOzWNhvQ7pJIBUuyauPjJuX7qDVUiM3mKW06r+6b6EYUqJig9aNDilYXQFdPYwtEsSgK6Wjdw5wROXsg051NpFtQPe7ikaFepKea7PkS3Hqnm3Aso4ttwMdyqKyajNS5qqw3caUS7YPi8wa3AYk32YE3z/U6qXCWBbQxVHwq3gU2Iq1k4pNK2PxPlq1JZ8uhWib0FngbuO0eWZ0vcbepT5757a9huAWa7iu9DKvoZYcQbkz1JzNqeoN5P8qYLzODfFRvD26rux+p8bqa6hF9vYo3mX7uYoXMKKv5kiYC+2efff+IHk97L0/Fa2jYaXXwnzC7gvsTGDY7Pr6OhfKu5Egb19AxXz4vvu/9vrh3+X6w+np6XI3f/2/v4zXny4X+XL7Bw==);lineShape=1;" vertex="1" parent="1">
                    <mxGeometry x="1012.4432280257151" y="172.11769976982856" width="37.94506162781634" height="27.607334807834235" as="geometry"/>
                </mxCell>
                <mxCell id="107" value="ye saare bc he&lt;br&gt;so inke alawa hi dekho&lt;br&gt;tab [(1 to 5),(0 to 1)]" style="text;html=1;align=center;verticalAlign=middle;resizable=0;points=[];autosize=1;strokeColor=none;fillColor=none;" vertex="1" parent="1">
                    <mxGeometry x="949.6" y="195.48" width="140" height="60" as="geometry"/>
                </mxCell>
                <mxCell id="108" value="" style="shape=stencil(lVfZctswDPwavWIIgudzmv5HZuLUnrp2xnGvvy9UDxURtNfJmyzvUjgWByd5eNs+vW4m797Op+P3ze/d83k7yZfJ+91huzntzvo0yeMkDy/H0+bb6fjz8Hz5/fo0I+enH8df8wl/LrxaKcvM8u7v5Q2Tj/9ffL3g97vDGh8p+g4fyAWAd1RTh8+U3G18SRT689kTA4OKkHc9IVIptwm5kNSOoC4HRJAWkYWQqQCTkrrYEyRQBl9I3M5bguphVGOkmntCpQAI+ncOHSEmqgwIQtLnLQVikDjR8/rEZQejJEyu9yFr7vNtgo8tiI1QVKsVEJjEEFS9cpvAmaT3oVTyIKwsFHrxVU8BfCHYatP6iwnh/YDPIEZCMVp8Bfb4dtpSPM6RA2lmquMHgLTZVqfiUXU6imVwGNjjiLPFBxDQxbsVnoGGFN83i1qazm/gQ7D4BBKmRcAWj4qABwFpOwMK9U3wazwq43baB8/X7h8/Y3+gNPibgB4C1cEeJOhIbigYD/wNVILFY/vNeJr1CfqoUK4WX4DepPX9dX2hHkfejMu7BWwFWu8IOg8FhjqQIz8UcAQCctcSBhvEiHcgAa7JfSWgDO35HL7a5aByk9StkcF9BZQCFaRDifuM6RRzIGOa4tiP7qJJBJPYJypmdMe2tV0XqafUJ0FnvYCkSbWyTkIJzb1olzTdVyKQdeS2Vq42IrhC5VbnC4GbV9eXtGEN1K1OQCWkQqWPku6NaEnTRdPsyvN4AInTVTab6o/wC2UY36xOI0JqxbskDipDxc+9RQJXNL1OcN8uHGy/4/XDwXFWh0VZFwZkv/rLBu8QPreleIVH9uRW6x/E6/Qd8Oh6pppL1l/UvSqJGLxH8a+UqsEjwc3DxdqP9LaaXu8E1E7nD/QCxSXz6fvuXbw+vF+uX3b7/eVuvv7fXsb11eUiL4//AA==);lineShape=1;" vertex="1" parent="1">
                    <mxGeometry x="1007.0894267857184" y="248.33596626503225" width="6.8447751082833115" height="20.157412754726465" as="geometry"/>
                </mxCell>
                <mxCell id="109" value="" style="shape=stencil(lZbdbtswDIWfxreEKFESdd1171Gg6RIsS4o03da3Lz3DSUTHZ+id4/Cz+HNIakgPb9un180Qw9v5dPy5+bN7Pm+H9G2IcXfYbk67sz0N6XFIDy/H0+bH6fh+eJ5+vz6NluPTr+Pv8Qt/Jy4y5ThSMXxMbxIV/ffi+2S/3x1u7JNQCJ29fUHrOiCVYu0PUMppHchKIXWANKoAKI1KH0KxGGQdaOqBFokZAI2UeyBRjRBoDsgkCFBq0gOVQgFAoaY9oCQZAEIx90DDAPs6jFEBl7RSWZzQQOFUSKoHEiicmtSSDzoCtVZzoPVAIQVBG8DFF44bBMRpKZEAQANVV2mmBqShcVHpAOWt2YtPrYGQS41i8oAg8UXK6gE0NSyJhX0MAqRhdQ3sswR7us1D5aYODGLgEPwksxZB2hjF6QpR4CSzFq4LuQY0BbIvhJ3JYLiOc2sBoBhUqfYtd5OHNTWJ+iMKAiKVRdRIHNYR2RWiUkKD5qtAthD7GIqVBm059YMmy5zpu0Bsi6UVScBKYZk77LJHM2UABL+z6tyDK+ZO3IUiyFBYuE8N1Nic6cdqgs7wvDcusVIC88h2a2/Oc+Pdr66f8ZdU3VfPnOarOYOOYZ478GqP+oUTqfjvo9yUeeXduA9antUPOoZr3D4Xm0u+AH++eiH8v709XG+fL7v9frq83v7vb6v2arrppsdP);lineShape=1;" vertex="1" parent="1">
                    <mxGeometry x="1005.8801262881234" y="265.1449799421874" width="1.8066918007109332" height="3.5730958899680796" as="geometry"/>
                </mxCell>
                <mxCell id="110" value="" style="shape=stencil(lVfLctswDPwaXTEkwOc5Tf8jM3FqTV0747ivvy9UlYoIydvJTZZ2RQHYXdKDPLwdn14PA7u32/Xy9fBzfL4dB/k0MI/n4+E63vRqkMdBHl4u18OX6+X7+Xn+/fo0Iaerb5cf0xt+zbxaydeJxe73fCdTjH9vfJ7xp/G8wpdCOXV4duQZEJiy9IRCMd0n5Eil/yLJlMEnpUwpdISQqfj7hFio5I4Q8QqhUu0JumYM9wmihNh3tZDIfYJP5HtCLeQzIAiVvq06SS6A4MkFS/jX6P3BkYsWX8HcIvli8QHgVRfBVhzAEJydQc2tojt4Z/CRBDRIZWwaKpTQyDZ4TxW8n9vTBe8oIZVS6G1QKiXQz9KqW+EZGFMFIdkSBAzAh2b0VQUOrZDsCtoijzSqvu3DpTIloFG/SGYhBAqgqUqwqlDnARVpDXkju4xWCJQMoUDfeCbnrHFQGlVrTO9ce8V+QJLfLIC6KlZ5WkFBPaKwaRHaQxzxxpkV4m2DAjEYgaNs8EwR4LkF50qmDjj/w3ih2kddFhhFIhT7FRJTAE4Ly+NlR+Om2/1w0TTtZxyk5dk+oVrz60cKaGpKNo84tLnv7/tC3I/NRxioerKIfVsFn0SkqX75IhhfJRIbo5EHFZds93AHN7Qpny3egQapysIGD2w/7V9s8AxsrC5MYvBIQ+pySaY/EeFLC873/kcQQ1NK9XhpZ8/9GHKboIjQl9MBqC9ANQsE8dGz8v/xevF+MH8ZT6f5XL9+bg/yemv+EyCPfwA=);lineShape=1;" vertex="1" parent="1">
                    <mxGeometry x="1007.6895791207739" y="265.122113705606" width="2.4546498134091403" height="4.198915807235467" as="geometry"/>
                </mxCell>
                <mxCell id="111" value="" style="shape=stencil(lVjZbhsxDPwavxK6RT6n7X8EiNMYTePASa+/L4WFbImyJ8ibvcvZ5TGkhruLd29P96/7XXBv76fjj/2fw8P70y5+2YVweHnanw7v+msXv+7i3ePxtP9+Ov56edj+v943y/br5/F3e8LfDec95dJQwf3brjiq24Vvm/3z4WW0r+Rm+0wl37YPkaJM9t4RIwBTrDMgwTfERC7OACHvbwOSozK/ISTyIOZUqaYZIJT4NiBncn4CxEw+3QaUQDFPAHWSAwAI1TnoVCi524Cqt2dA9iQgrRy6x2dApQiC5tod6ACNqoAYxFPlGaCPAHUQTetcuOqJQdBSyc/kq8pWAQDuzzsDhEIFAKE8F07zlkHQ3jly8ys4U0Y+LaVmpgT4rUHEuXKaaY8KoWmaCyGRKuKGkMwuqZMBxKAeC1tA/oBMYgGoITSJxVuAADJxpDxnaSjNdYSOSre8IoKe08otgArYVLVyS14Rm2qlvBYCcEMBZhw3yoNCKECCBWSQVw3aHBAKCKjUbskSk0OAYOe3ElhAWjl1No8AxI1iW665hADnjhyDRgChsgSdAZfE2VHWCgd6tAGWhvAorUKxWEDCTe0W8sGxUXpOxgZCTZ0ofLJHQz/Jx1cgbrgrPjFqal64IX303OqgFRBxU9tC6PgEhVCAbQimgnr0s4DWQWYKRDy/ixUDykc0K5VMJuh2BZ9BpnDtCEBkEito2lGNqMF99g5iIKKGKHZWqtxgIPs0rTxTQwUNqjQval0lU0Wyr1JYRBmc9+rAIvuQ/C5LU+cAR1+WnvVBulaQpbz0dFI9A1xKyQpLld8JVDrWfnsQ+EhtRNc7eFghMhgCugaZoHVJSSAG3bOq2ZvOS8V1QOgq8gzw/ci4ntZ+BF4WOQHE0LlrHk8eEG9RubrPgAroFM7GHJHO2b5xOJld9F/MkagPdgnQoxSMrtTVysXcITr3HWcwB4ksxIs5oAF3+TeYg6qK1S0OckZ398UeDelGwWTsM8jNp79GfGivPy6fPh4Pz8/bl5Pxvv1Uope2zyzx638=);lineShape=1;" vertex="1" parent="1">
                    <mxGeometry x="1049.327753818961" y="247.74463896557393" width="2.9862262624589606" height="18.770760273783008" as="geometry"/>
                </mxCell>
                <mxCell id="112" value="" style="shape=stencil(lZbbcttACIafRrcMsCf2Ok3fIzNxak1dO+O4p7cvqryKF1lkcidLfN4Ffg5DeHjbP73uBsa3y/n0ffd7fL7sh/BlYB6P+915vOjTEB6H8PByOu++nU8/j8/z79enyXJ6+nH6Nf3Dn5kjgkoTxfj3+gZi/P/i62x/GI839gFBjH2BKNtAzFC5A0KAxNtAKlBiB0SGHLaBmkFCBwhCRAcQSNIDDNUDKmQDZMC0DRAiIPZEheQ5oZ/7uFa9U3Gd4NwDeidywxRqDwgEJ9U1AhqgQvHCRJBWQM3bgMaEigWuZ94HCqABCpCjPkmrsEaITh4kQjYnENAHQK9vvWR29K1XCv0J+hfsZFq1Jn1BiF+jIiC9XEuF6EmDgA0gPhCgrABX3hmI7ZWKIw3VJmbrdHUyrcqJaMNanRqdtGmKWuvBu9Jy4xtpiHeCrIDUvLoP3JN39oAIsqo41wdu6l/a93ur2qrRaxRvjkgeoP2brBPVKwgF+DNArNaJjJCcCgoCua+ghG6v5NAmzjK0tGodfcc2Dpq9jlF0XNA09Hkj9cmxJ9vsdep6vRtb+S72sc35DXszrojbiVv2RtmQnEpY0rMkDKpze2oLwrIBtIG9EUzTH3VfcHzVAWBi6Tb4DNynCoEdV3UskzH3yovQNkZ/d/nsvvaxvT68L4cv4+Ew75a33+0yqa/mRTQ8/gM=);lineShape=1;" vertex="1" parent="1">
                    <mxGeometry x="1047.5038583683104" y="264.824474765133" width="2.825024828275323" height="2.0149947226068785" as="geometry"/>
                </mxCell>
                <mxCell id="113" value="" style="shape=stencil(rVfZbttADPwavRJLcs/nNP2PAHFqoa4dOO7196UgyPZS1qAF+ibLM7s8hocGffrYv7zvBgkfl/Pp6+7n+HrZD/ppEBmP+915vNjToM+DPr2dzrsv59P34+v8+/1lQk5P304/phN+zTwOgUKYaBJ+z68i6fzi80w4jMc7QiuUtcNzo4QITMIdQYVa2ibUvLKIKcs2oTSqtSMkJmZAENKekAMlQMiRYukJjVS3CSmR9IRSSPM2ISZKPaFG4rZN4Ey5D2trxCCsrEsQ7wgF3RBIWp/pm1geh4laWd2AnKawsojB+Uyll16rFMo2PpDGHp+pgvPNOxfSRBEIL1Bx/ppHwF+h5OwXqsD+ROziw9QqqByS7PER4JlXkjACqAOOVJMnoIhyWd1gQUCia769NKUCTLIk5L6WLWkhYsJKFRHU8tTfHKFQQZVWfLcwnVZEiJRXhYM6Hl/TdEfAygjJ4ytIQ6QWPR61L6EYvMcReGw5aD6kAvFuJFiSK/A3rOyJcEiZip2/SgJEZL3ZiU7+K94S1noHbMg1UAZaFw1fCQoJ0UTau5xtooAU2EjTXqSpEgNNZPGFFhsJGh+VSh8lbbD2S/RpVl6EtbUpuIlgxc2gA1cTXh9WxbtLWAbGgpdlJj7Gsw+qLJX6GG8Doz+fYd3YEuEKLcDGYrtXzQ6PUlYto+rwaEOwcZFXeFAH7RruG16B/dbKgz+/InzxI5zhImht0DVSgX1xarNu+YXb9T+v439BsIfb9v82Hg7zx8P9//5rwV7NXxr6/Ac=);lineShape=1;" vertex="1" parent="1">
                    <mxGeometry x="1051.9341706328696" y="261.58041091197083" width="2.2198494286483483" height="5.360006688555236" as="geometry"/>
                </mxCell>
                <mxCell id="114" value="" style="shape=stencil(7Vnbcls3DPwavWJ4A0g+p+l/ZCZOralrZxynl78vWA2PBPCcVT2Tx7zJMlYkbssFecofvj1++vpwSuHb2+vL7w9/nT+/PZ7yL6eUzs+PD6/nN/10yh9P+cOXl9eH315fvj9/vvz99dOwHJ/+ePlz/MLfF1zJlGWgUvjn8g1HqvG/b369AJ7OzzeAnKk7QKIix4Ak1IoFZOJ2DIiNJFiAUKgAUIizBVRqaIVA2QJEfQjHgE6JrT1TBkHqFJ19o8zIvlZjXyMx8jhSsAvUQg0kISaftVqpFgBg6skAWqCA0szENmstUUSFlOaON0CkDrJWIsXqt9T7MYADsfWhaiKBD9ypuTwIVbCCprVHC8hUgQ/6e8VVRp+B3gWMmNgoSaECVmiFpNlmaJQQgJfuifcAyWZaSQS1W8szTROQhTJyOlGwW0ptVtd+WPss5g0QYMNp9WdbGtohBQEWp2VyyL698qq1TzDPVV22lYSbQQmiZ2cvKEJLSDXJoDvVPtv9hEnjR/ZVnD0jfzU+xdknwHjKb27/SkegM9W+Nm+P4qNdwO+xF5/fQBHbd7+fhPZf1/0wLujl91FPViUFG/84vzj6/eB4iATZ679dg2mBAu5dAzp0AOowmcfL1mEVlxwvNFQhu+sKyca0tHnuHgXJbUmFSEdRav5IE5l8v8+MwadhFDrwQalUllMWqS9ld3ektTol4r52abMQJqBrGMCWeveSUwEMMq2Alj0ARSmGrXk3RIP0PpYQD0CZU0CxYRpugbjq79UFUJHXdfG64y2J9+EmDvsIzXVYlsAApzsVICiuZSdMSFwoIBSfiAa6uqu4qB6AxIWukCwzjUhjH+pSrwVlblFUoyMQYFGFHdPAdQO3AORD2+k5pM41TXHpajgiaTWHJax4BXdidSxUr+V/A0BiWwFsCX8UH+qgttRSn8fYEcBHqcNjd0TdOn23R2XqtNseRalmL21Han4kQA+hasu1NVhMtfrquzMb6qEmbhBj2EEqP8WmWnDLjQHb+qBjErpkqIHE5kHFAFR8YZ6Ct3IDSbKwJ2hQlMKi6RscAmRpORVljERZmEG8qj6o0n9OMT+nmB89xaB4vneK6RTs76c51h8xXXGXnfCabahtV/9bxR6p7WCJLnY8AGyn8M3VSERk3b1UyAJrriu72+NgXO+ggzxStACOWGwHf53K2z3akdOOSoWhKNS8NXc/mqauPGp8J9muN3X7VJopukFMT35QSpz9MKnFUoEPGnXndCtTnhzdzLtmaAIvwVL2slMB6DiIZQEw5Dttz+x9Rv1f/L38uLAFhZGWJPAk8F374FXC9cA6sHdjpGweHdgnN85v889+QD29S5gvAQfxcRfaXOHQ2WZJbvYFvtXEvccdNPwrW2UbUQ6wqlPxjFr6TMrRM0GxMVXdVUArl+gfU0qFSShp0tsNAEV18GFeVkBpW45xBSCnC/snsHHzhHwQT6kjSohdxD8TKACN/gpwbyOauDsr+LDiwUUB7G7PAuRgjZIb1xQAfWDPkHeeOjRxmT0AEth7n1P/B0A/XF9vv5yfni6Pv7f/96+9+tXlpTh//Bc=);lineShape=1;" vertex="1" parent="1">
                    <mxGeometry x="986.1791146195442" y="270.8907841482273" width="5.810138891437068" height="11.460372137985429" as="geometry"/>
                </mxCell>
                <mxCell id="115" value="" style="shape=stencil(lVfbchoxDP2afdXYlnx7TtP/yExIYUohQ2ib/H213XHAMjnA22J0rNvRxRM/vK2fXldTcG/Hw/7n6u/m+bie+NsUwma3Xh02R/2a+HHih5f9YfXjsP+9e15+vz7NkvPXr/2f+Yb3BReFfJxRwX0sJ56K/D/4vshvN7sz+cQUSydfiYF81utcf38mnwGgUPIdIASqQENh8twB2JErAFDI9Rq4UAQa6qBBCrEDgNhcbIBYWpi/AtTQAVKhgExK5FMH0Lj5CgGhz0NJLdCXAdkC5jAAk0Qo90zSK1DiJDWLzwABUCM6YsM99QEBEpVsAQE4nYSq0aCZYcBWHjREKiDTJVBy1iSHuOQoJAtgxCW9L1pASQBQ231neRDEpdpaxCegNDp+xSUZACUAQCDpK242EtV0JPYWkAEgJ+uDdw4mIimb3V2IWC94gYyK4YIXDAguufWhGwOrRVq9BaDUiQZ2KFJEDm2NeSA4op9OIKkWgAiegh1ZV0ooOypGAy7SrGkaqhq1gZKpDJ0JNZoqLa83tjJNU0w2D6hZnpHzxn58P0LGur4yI0qz+cYppBpqn2udcyiwc0WMkxSVkHKn9yFe0cC25tQrAQTnbLcB3TcyYJPuL6ZI9YSBSUEo9k4HpgDaQHB2zulWFkEJeU9i+kab9hflByYFmARH3rRW2Cc//z2Jo3VM7HLl8Dy049Dh0AgVb+Tvi71rA/uyvGbG3o+6HYtdb1UeFYAGf7Af2KMTQZKND6r52sh+kq8gPjoEU9+tNbt4ftz1grkurx+n59LLZrtdXlvn/9vnlR4tTzN+/Ac=);lineShape=1;" vertex="1" parent="1">
                    <mxGeometry x="992.9066479890967" y="276.98403154219227" width="0.6520830742743923" height="8.623685877940401" as="geometry"/>
                </mxCell>
                <mxCell id="116" value="" style="shape=stencil(lVjLctswDPwaXzEgKZLgOW3/IzNxGk/TOOOkr7/vqq5UEYy2k5uiABaAXSxAHtLNy8Pt8/EQ9eX1cv5y/HG6e304pA+HGE9PD8fL6RVPh/TxkG7uz5fj58v529Pd9e/n29lyfvp6/j7/ws+rX5RYZ6eov/6+iJLCnzefrvaPp6eNfYiipXMIk7RIHEzK1DuoTG3fIWZJuXMoYnXfPkWpqbOfJOi+/aSiLiCxTOyrhN5eJU779jmLqrNXEk8ZKqrSSDzFxGJnn0TTvn1FPM3VMxKELYiGATCCsBVpzqFIIoi1KKGPCCnkQhzKwpg1ZfwEyaG1JYCVEyqFhBRUPWoZWZOyNpPY0zQ3MZYEcLAeB1uQedth5dniAChZmSxJ7csELI1RA3XtywQsK+OqeagRJIO6gMt9SC3JxLoHOfTdgLqxsqYguW+HDZZvC0wbPoE3RhzMKwDAZzHNiuUcqiSSNRwc+5B1YiFlKUNdAwECDs0lrcubvZBqT1cD+LxK2jeEVdpBwKE4h5WPe1BPwTtEgnRCTYYvFEamSYr5HIx9IXukrdHplopk10EgMJF7OJR+vAFpxlY4hL6pwaVGyIccnByDrUbUNQ06gwYKLKRVrTcOjX1Bl3bZOjAumecSHNiUjlVi8kmzkOap2esMppLyjqsDcGxTgoMN1ChsU0K7OHqjpZjyVckjvVlPN787zAOCA+eWE+PbxrsdMJbNhYSNlVAjVylONZQCVyZP71qpQw1+PtREuYSxPPXUKJlqK2ByQpYzVW9bB9S6AIGOpB+wO7R+AqHLlehSHdZ0nBwyoXcpy5q6WROZes+LdC9kYdXztzd1W7R646CkStPKnM1hJjIhy8smvM2BqYb5/QfnocRaNHoccDwJRARC9WMX559CcKhelqDOTAOKP7+BGGxgZb9Twp79PipeBnvSz2k53W3s6Zrh64N8maoGPz6xdhSSr/qBnvhKrH4WzhwhnTkcTIAgO47pMopX+0zHjnp8gUhmNwBD3yeJbEq984bh//Z4+HedcX96fLzehmz/768/8Op6dZI+/gY=);lineShape=1;" vertex="1" parent="1">
                    <mxGeometry x="992.8292545578602" y="277.8218759332518" width="5.07829057559474" height="4.02926046441329" as="geometry"/>
                </mxCell>
                <mxCell id="117" value="" style="shape=stencil(rVjbbhoxEP0aXkdjj6/PafofkUIaVAoRSXr5+84WmeDx7mEj9Q2Wc7DnzH03cvf6/PCy3Xh+fTsdv29/7R7fnjfyZeP97vC8Pe3e9NNG7jdy93Q8bb+dju+Hx/P3l4cJOX36cfw5/cPvMy8VqnFief5zfhIoy78HX8/4/e5whY+ZUjb4UADekRODj3kZHwJJNfgE7iOZYrF4cB9hysHa65fx+nO196ng/i6T4w6fKESA9xbvuCk8T2Di3mFOLXbLhEK5d5irlCrCS+rwPlIGFhQqvaDiqQCP1cEB3E6cN9iRN4RMBUkqxK4jxEgVnaAu7QlJ2pMlJ/veB5lhVHgm10dpzs2qpbALvReKp8wwrrk/oaQWufOERLk3ujKMC81M7q9UBV5JUz/3oV0jOWB04uGECJMzVVtclFBB9qvq0sdSTcQoWC//t/KEqn7NwwlA1looeEsIQNZaSQZCAcGnhGJkzS26FkqMOsJ4rpADCaFH2GAqLc2XCGw8p2Yhq8sMAcXGJIqzBFQF1LFxJCDPBVsFJqWRSkIuW0JAKnmSYmWtyGjXytAVQdCV3BDf2uCRSr4F5xWBkQ1C3hASRWSDylotwd1wnPFDxI5LrX+srQJlKEyppflieA8EVCunYBYrq/9kjmpbRFbXwepCEeeomBMu9XZJJjO7KSEhq9XGIakrIqhj+/p9pcN/YmiP4MGKDJytI3QKlhDBgBKLnTcmYdFQXIcrlVZ75pt7HeoAziGd2djY4FtJnx9QInHfhUqBvnbFVpoiUFadymSYmVDxmwbFXqXsKIATtEX1+HQpPfOOtk0uptaK591m55+gXkOatjZ+NRknZLBtWCKwjDGFHn9jsh8qjKvQXm6b3QUvFICe3s4lBQ4+Os8OmyTerMwk5mBXcEP1YhjQerxEg3coJ4fNk9uesnKzvWx+Kzdnbqvlys2cYYkYN3+GK8z4ZuFG3WVb5PQByF5NbpfsfRDetxH2Ax9BPOQhHV0refN4sZOR5ifIRsUbPX1b4VbjE4iH8T6XSWylvQI7wKhngNPB6K8At5AxHgKcTD/7Jus2Xj98vDZ72u3357du17/b12z66PyKTu7/Ag==);lineShape=1;" vertex="1" parent="1">
                    <mxGeometry x="1003.2595841949251" y="274.8382814208525" width="5.37557368027634" height="10.810445113534255" as="geometry"/>
                </mxCell>
                <mxCell id="118" value="" style="shape=stencil(rVnLchw3DPyavbJIgg/w7Nj/oSrL0VYUySXLif337vEWNwNwp/eS22rEHhKvRhNzkg/fnh6+Pp5y/Pb+9vrX47/nz+9PJ/njlPP55enx7fyOXyf5eJIPX17fHv98e/3+8vny99eHbeX26+/Xf7Y3/LjgWgytb6gcf16e1NDL7wefLuufzy+79TWG1Mz6MR/cXF9qSMmsTyn0fAyQEcqwgBJ6IgAJKhagIcoxIGuo1oScQo0EUEK0NsBJaRBADDFbgAatx4DUwogGIDl04lb4RGzYpIdEjIbXhxpAQRyI0SnOf18BNQxmAzLJGo1cycRLOFK2R6o1FGZ0DmJ3aCkkkqxJwrCp0VpQpXFoNtI9h0x2QKSTtaE36iXkUi0GoLCBAYZPDS1BWT3UBaB0BySC2iONOLPrNkBDrhaA7CKRRlyjPdIQeiSEabQFQAIHrzfxNgwCUOSS3UGvNXgb0GbJXwGR1rR2X0Bd7gGGdSvcUPiRmt2hDkoCMNqlRpXQyJHg1rLUNItD67Mgr6yh9EhIDbFGlz555Cj5HN0DUMkOJfvAAVCIDVsBLTswAHhJ1RvdGfMhc4YHsJrWWV679YU4qQdZTG7kQC1kWwwFqUUsrrMj73pDYQQQ1PWSMnc8OE+1aVdkyogDe/37EXTCYIvGAAdW4k+0qlI8ILNmKL5wAGCcmursMzvAnVbl+3Omwir1Weo7pypTAH3JujqF0OEOrg6QWEyUtClydnkqzAawhStNpYFGHOoCoLIHiVA9gLH28ByM9ZWUQl+4Am4mFqAUlvWRCfSgLvEq7Wt1SaMybwRHVOFKXyg5dq/ZkKaFdcGFGu/r1O4B8n8Ctn7gtPaYhzzqOE7YAjBI4ZQRYl0AvGs6L20ARvB5cWukhdOv2n0HYC2k96UnJK7AyszjXeZFsoOOmWg7elHiJWhGV2vbjYTVMrqe5SPoo0H4aKinl9pppMdCF4gMuz+nGL12hiqsfAtnNWJZSSAAcBTTC99hqdGutPUMkIDdQYVaPYqXYMolGC4gLjfwRJgUXm8YZV4hbgPQ8C0LwCqWTHCik/ODdxJo526pEpFhMhJqX+0Ou2y5jcizwnZbZHbVg07L3mo2mBDcGJybKu2HaKCOLEcOjV2583zf7n6rTDQ0T2VauBZLXj73ca/HWSZD7CO7cfsbSVMqrLIPQku0PcSF99ocSB2sdxSz3fLo+8VRfaE9Ovv3o1ux60XxGkwKpeHuMwJJpWwulCa/7QZ6maeQsyBzeslXSXEtzT6F020AVJ2N2SZdiQ0ifggDYRNJVsPnTjtjSz65dfO8QqkCmqTb90c6vajNX+SRdCQGVf1Q9Q7XDa9UI7W3RT+JiFQWogbdBCnSImjLHCLR0SLWd5cR9ELYxE/aMyXeJn6SLzSlcZ7hqp77My9DiJkgR/50I7zK/R8XsUa/XNz/0oEf/30m+XJ+fr58Zdn/339WwaPLJxn5+As=);lineShape=1;" vertex="1" parent="1">
                    <mxGeometry x="1010.5881029053048" y="274.84796552020515" width="4.9430501513094125" height="8.00270277965711" as="geometry"/>
                </mxCell>
                <mxCell id="119" value="" style="shape=stencil(lVjZUhtBDPwav6pG0pzPhPwHVZjgCsGUIdffRxvX2B6Nt4E3s7R2dfa0ZqM3r493L9uNhNe3w/779vfu/u1xo182Irvnx+1h92a/Nnq70ZuH/WH77bD/+Xx//PvlbkEuv37sfy1v+HO040wcFysJf49PAoXw/8HXI/5p93yBl0a5OnxO6/gYSfKAZ9K6jk+ZAjt8bev4rCQ64IVCXMcXoSgOn0G8NVAb/VHSAvClp6/jIzHAN6ZcBnwiAfG2QnWsVyMF/rfW033Kp/SKXDXgEHwEnKgp/ERzBo2qQIM4xmxJRUU2AxmLILW37ZqBi0GFCipD7f8+GRQq6AuV0th3UWHjmYFr7NiIUeWsk8bKpdTzdt1gGp3MuHCR6viFXElQDEolDQYlkjIwsOEaXbJ5CmD8bRx4rEO1oMEXautZP81DgGmtRnhtNFDKoPkqd4I7GWRIASVRGGOw2gtwKWefpaXhwYwaSdbmDQpIa5xdsqEFtG3jwmN7X/DCdd4oPe0ftTAmzpNPIIiJKRc8aA1j7gmPCh38ybBwJ8iRReeKUKkB2pt41fARVDn4UVgoBOQzUBqn2RgEHW02ahMeHT3co7vAM4jXGJc9PoD3K8XZH1Df6JWL4SMaAsqT/xVJF8+OyxgD/6/hC6iv+TOO2PmYW4s3eXwC8Vo+J5JA8Vq9pv7H89gm/xGn8ES8mLTmfm7w/JvnpXXW+/A8ZsgnYaovQ37wfFJ6htf4Kns8ksrGhxOeQb8Z3yaPR2fxZ/F2AvhDxp4A/WGHTJhOViRYbJmo2RugEbODUiYDJCdyInVFS53G1vaJ7FgoQqVpckKdS3bWIoUTPU9XrA5M4cRxMO0VDRkYD44GpcG01uqpznQgOprqtCLkArnCRJyrdD61+5pwdOxlahlqWSEdCxcbjKFNeuU9xS/dgcudAhCAGTiGWbYWJOCNgkdKtb0ooLROE2enBFrflyyNM227HXRJKLn9PeOF1rI0Fo61z+Baa7gbCDvW0PwkSuMHsEyok67LlEBfFO6dfN7g0eaYxeuo1DvxOoclH6+JeZAf60o3OrEL57UbHXWLKbyx4FN45xsRtO1z9DpcYQfxdGOklEB+WP1+pviCQ71OkE5O1/HSVdMZj2QIT7pXYL0WvL8hS8h/8UPPUIZbvHHk3oDzr76fQ3/BWr2crg5Qhlj/OEoJUCV89obyfbz9OF+HPuyeno63qZf/99en9uh49aq3/wA=);lineShape=1;" vertex="1" parent="1">
                    <mxGeometry x="1019.4883661861595" y="273.4009783656142" width="6.6842462824091715" height="11.3094712694399" as="geometry"/>
                </mxCell>
                <mxCell id="120" value="" style="shape=stencil(lVlJchsxDHyNrijuJM6O8w9XWY5VcSyX7Gy/DxiF8hCYacU3Ld0jEEsDoHbx5vXx7mW/C+717XT8uv95uH973MVPuxAOz4/70+FNXu3i7S7ePBxP+y+n4/fn+/P7l7uO7K++HX/0J/w687hSLZ0V3O/zJ4FK/fvB5zP+6fC8xDsqXuPzNr5F8lXhGeBrpTTbEyk6gHcUqsLntI0vgYJX+H8OWMVn+ZoVnnkbn7J+fqIQt/GxUqwKnxrAO/JN4dlv4+Vrlyd8IRe28Z7Jz+et1ID9PlOe4+Xd+MV1gsQ/zoRADVnkqM4n9nIE4CKmrPBMDFKoEac5QxMViC9hxjNVcIBmMjqTg8/XGYE9KniVcQmmaKOgMoipYfxsf04jhOslSTw/v7hRExv4PGdcyeMXN/B+tqdrAPBnoTonXJX4IomgqPCNGpIIndAtQP9ninO+tQIlNw2BveAlnwG+6OdzHDW6VZFh/gHOQ7TXCaLRSRMaIIhmpjmlWYzEKpedJjQQs9jIz0GQxuZB0olOq6wTQgBVlgOlbAjgDFlMMgSH4sa6lXUvoV4pvSAYAqpMR2wICZhUve72QkDtsobh9WUcMCEWTUDV2Qkq+cTRmKA6oBAK0iNPWeUSQ8EWt7agCQG51Y3nLQgRSIakhtK8TgCpUdp43oKA4lDMHCheQo1fCDYOCclw1ZOgRBqNLqXqRiWEhAlKKSVbGR26GeUrMDUKm8CVa4Fr0RDAsCCpUYomoENLtiZjEprIhcAmDmgk7BXnTByA8nWCCRzqWF01FOEyNG2dQfX0nq3IJD+kd1kPIHB9pmiaEHFNf4wg/SFmTWAQh96BZpnxzkFh6k3OKBmjvltNbjCcZaIz4spwv5P1rxpCAb8gw75uciKuwE19/1BnaHDYSFRNj0NH8Hqe5wTnZyv2AXZpwat5UjYaNI6Rm+2XeRIlnqem5skAld50aJmHK1o5x7S8mLczyNI4BHExz6P9Lural33Bg3gl8rP/ZR9BA0PSje3KvpP0vnBln0of3NcShbmV930Q2q+EKCZY9MYe2WdRA0l6EO6fgIK8VMdiH4eDwijvC/7avqzvB/yI4Oa+MxvU4FwuCqQuCC67w5bENX2FhfzZrw/0FRm6whKR9urCYkjkuv8v6XVxEKz3HM2Vzmgj6/HyY8h6xyOBLqwvCBysl1r1TuHw/UzQM5ejBOy3V5oOzkP2yhR34d5+nMaD+PZRRtuD9K33Q20Pyv/ecIPCZ3SfxmO5X8QL3Sc40/E8vk9YI6COYS3yw2X/eWLZCUHGWY/ijm0jJhWMMshkRKCCnv/RS/qreHnx/o/Aw+Hp6fyHwvJ7/Q+CfHT+9yHe/gE=);lineShape=1;" vertex="1" parent="1">
                    <mxGeometry x="1033.9284671965456" y="273.43457849683085" width="8.074191511935798" height="13.657660131512156" as="geometry"/>
                </mxCell>
                <mxCell id="121" value="" style="shape=stencil(lVnZbtxGEPyafW3MfTw7zn8YsBwtokiGLCfx37uYxTCcmmUJftslu8jpo/riJX749vjp68MluG9vry9/Pvxz/fz2eIm/XUK4Pj8+vF7f8OsSP17ihy8vrw9/vL58f/58+//10ya5/frr5e/tCf/ecM6K20DB/bhd8MFy+u/K7zf5p+vzQT5Zy5N8NS/Em5UwiSdz5VzcRwt0HGteyDc+zq7PXfmQLXaSd0I+RnP8fC/kk+fne3NdyHfrZZIPVoU5c7NUJ/lsQdizFAttkscD8rl8jebn5yMcgjhQ7ebSDChWhMdatDp7GCbKClAt+BlQxzvvA7rl2WfwYhBO6IgZAsAtwssAkBdSkW6ADuTmDD9XAQBNyM9wnNChgmhz4JVoLQhAYKaVLqlQEpsVwdKEDrmw43BIJ46UqpVZ6ealDnBTmM3asqUmAMHcfKTWrAqzgl5tNmv345D3Ad7SzIeeLEQBKCOh7IAo+RD9yM8HQFWAyozrOwfv+wEnzgxQwZed1cgAL/iA0GAA+CA8XYLFwAAv/FCqZQLAbiI06voGZ12lymK9MiAKHRDMaVYamaqLIyGYi2eACu9eLS7hrcptb5xm2n7lDFAbA5JQuncuiNDBCbMC0NxiJfEG7/YSfvScPlOn+PYjP58BypxnEH1dUA4ATwBNOdg1kw4godIBpC4MSCLPAMBWSiNa7gPKQgjke2WlPEraMQuIQg1AWkgtlc4c33CcV5U9L9nYybQBwBp9qrJvVqISBFcqQB2MPAC8dlxbSa0A+wEOgKCU7twKAKC67o0PC6lV09eXNhd+UNl4A6x1V7+BEhNi6R1AXIuczpV1qexO6dC42dgoqpPArwFQIDoBsmXVVqIGdgYoTldUFMcAWRVhdarsZRj6rFDXzoCqAGGouAMwggo/oNngdF9Hw3/WznTKS20w5KxhosreNYHQkjUCdFlGt6bPMaCL3IrGlbqTQ50861w5Nrp0BAY9ypW9yt7Y1zELH0jdxBu2YZsyWR9l7z4gsV0xeanONTpOTJi8VPqObXTzhxlFtbqYDGnBAk4pV+fEqQ9zljoSCEGAooOpOtZhm+2E49Dq0kCQu2w2mrM2Z+P8TiZL7OmEiqJ64zLWEjsgy4oCAA35yckhHwBa/cQ8xv4zHajVRXR54Ye2TyT7ZiPLbdEWOQRw8kjVc+oDaaMam9Bh0TpHLypyXZo+ucCCWymR1WG1s4Wan0tclr39trDjBZmiJ25TVYcFRGT75fz7hu2+/Lo1kUOidyzfBrvve5grDx6g6kJk2rwTEGGseA7yyr+BG27IqxnXj7u7fJVNleexfpNX9hxPO5xHrZQcd7aQVwxzw3oHeScqvxsT0S6fZdfpuCX0SZbMZRb2eo50vH3yUS7QHfeDkFfDyK9+XnhfHj/+/5bx5fr0dPsUcrzP3z5w6fbdJH78CQ==);lineShape=1;" vertex="1" parent="1">
                    <mxGeometry x="1044.8834148858568" y="277.0115942031659" width="9.763678443937701" height="7.167670609847566" as="geometry"/>
                </mxCell>
                <mxCell id="122" value="" style="shape=stencil(lVjbUhsxDP2avGps+SL7mdL/YIZQMqWEAXr7+2qbUbqWs6fhbbM58srS0XWXbt4e7172Ow5v76/Hr/ufh/v3x136tGM+PD/uXw/v+rRLt7t083B83X95PX5/vj/9frlbkMvTt+OP5YRfJ7lINS9CHH6fXgQK4e+Lzyf40+F5Dde/2eMLwHeS4PFtG89CwesTgT6pmrorPG/jc6FaPD5t40uh2D0+b+Nrpto8HthHEsmkD8C3SE0cPgH9W6Pq7SN1G98T1fG+kUoHeCFOAz5RAvbv3dQ1fCUG9owheAcrBVngF2T8QszUkUCjPJp0sRHQqVfvY2UtA5L2iRQpQ9apF1yU5WhxcVkgUo+jgFBHX4jebyVTQY5Tm4wq1WChtCUQR8fVShncoXXK4xdEuYdiYeK2aDYAnm5CeSR3C9CsrVAazdo0XkH60vB04dOqBezl+J+4pGZgEKCiZh3Zqq4MIEIrm1/PAvoGpbxMYaSG0rGhnJrtvLNApgZUSsXcdBYo1MCll6owZkmNQeSH2CyrnAUa9rQPB00jHbnB+3nBgysLxerx6MbVl03FV5BiKiXxeAY+q5awVvYRwNNLeEasm/QRaqhuTvfVWIX2j8XjI7S/CzPFB3D+zAeBUdasYqzwKIz7xAehgoqUpc4VvoMA6FTc+VrlULamMvm3o3JgNXjFt4RytSWEFV4An1Xb6PFIH/Ft0apx2BBIc8DDgGn5IxeovqlYDAQDfk5YWJ/YPB45uFq4XkmganRcExTi+3Q+atNkIhwOsI/io/jGWmtMBgrpDdwkpFUsAgHt4XzOSsRxW0DrZJwqMeobS7IceG2tjySu/Th3w5cFuq/ErcF+XLSXHs2qDQ5M1N1schbI1oVdjny2wnUWYJhK9TwerSS4hdKuznVEolMhcFybglk7U/gF8Z6uFXpaBWS0knbXiK3qJhf/2rahgqwCbVQp44qjzOkjvXOAjlNuZjflJFxzks/BS9ZBQ0v2VUQnNTh4FZ+1dRZEray2lW79oNMmooZ+wQ1e2mmgus+Wdc9WhfGmbkvOqDaSbO4HRq8xbMXn/QPbnHflfgPj5/0Jw4Q072cYzuLz/oftQlfulxj2vfP+ii3FXrkfU/uD+07rN4bjYvRdAj49+K6ILc1swIs/vUA4eyowMP20D4hWSjbgfu8DA/ECHGXoSZkA1yXTVTUrANZPhgyw95vcFGw6uI4EeInx0Q3v/+D68G+Z/HB4ejrtotf/++WzvjotrtPtHw==);lineShape=1;" vertex="1" parent="1">
                    <mxGeometry x="1055.5318209851193" y="274.0335334311107" width="10.541224402875041" height="12.120706658869913" as="geometry"/>
                </mxCell>
                <mxCell id="123" value="" style="shape=stencil(lVnbdhQ5DPyaedXxRb49s/AfnEMgc8gmnBDY5e+p3lk7Y7m7hrxNOlJblkulkvsU332///jt7hTc95fnp693/5w/vdyf4l+nEM6P93fP5xf8OsX3p/ju89Pz3Zfnpx+Pny5/f/u4WW6//n76ub3h34tfi6J+8wru1+WJF1//e/DhYv9wfryyr0m2/13ZR/F6bF+qJJ3sVZoj9kXi/P4srlH74Cb7IjXReEqb7Ft/sL/fILHO+fFSyAZqljZv2EfJJKPNS4uzQ5JciEO2KfWF7qE1qeaMmzQSkndO3JzVECRkGlOYN4Fz/h9Y+2lqi0OWTFYoTXyaHfCErJCBpHkP0UuOxw5JpeTZQWktaJBsaiFLISsggGYcsAdycsi6qU71kgi8AR3rEPvhHxx1R/NwSBQbTdKcJK3iCAFggTo7JEezinIpM7wT8sxWQADznlOSSI4BWTXHkKr4QBxqR9ogJU8dYpBqWEwpTQI4eaYlwNeRLMXaT2k4oMrZCij5+RwKqI1ASZ3kedMFJc3KYXSO4ZB7CR455LmkweaNMB8Kzs9pBSvQPQRLldVJIgWHkNpcDjWKYyG5DrXhoBLYwRXLMmipiZGGSi2zA1iGgc/3Djgc0BNJSIB3MSs0WtMh9YIcTdTd4rE0ZwldTwk00KCsA2iBEV/tPXM4VKkkJDiEGd5ok4GtkC1rtMGF+w5qG/trI953ANurdWis63YcjL7+2rj3m6i4tCxAoKR2AdizBhcsx8BeWU537BmvAtkmo7VX00E8aQEFUyVq+aVVrjGsxGiFgq5adoF9Yb1wKJY/dVArz+HA9DZQbfRt470QWrP5JafMoVqV1AbfHDnoigqCOoS01o2yykxdal7jmkmMKHEhC1Y4UD3m4G6X5sourPbTzp4ZuWDOK9aesVewc1Ubiv2gNMvKvwypb7Qf88ewVzr0RCsKt0mXUp1ROy1QAYZuYKjUdQl3hAgDITRZ5ZgzEKqVyim/TJ7o+54UGnIUjFDQvqt9h8FuwwFCl4QURrv4Q/0V3RsVHhyScSh0foFDnbO0qVRWOL4LwCsdnJj+cpblS6BdB1kyWIKWZzoY51DMPFIkMP0VrSTEPBJZdbY+rlxNPJHBO1poYKZiCq/aY8DQRpW5xGUqZPPOMoxg7Awkp8uNh5Yu3474a36/JjqlZpsfDOYM2Gsnx6hBQRHtzRZmxMQqQa06whTqSEvQvNx3gFPJmQECZgzeaoPdzjlba8CJkk2XvWskphUwbBkaBrLYpmu1B3fjKmxzMCFx5NVlmtpmE0Iw4FCjFUD9nt2dLXrH8+sInIOdLAK9hs2AhpELFKygH3PfUTpU9u1TX36UM9WQudpJR/u4t79htZMIp2z0PRO/o+qiRjvPOg4itc3f3YJ1s/aOFBqUQczWnrH1UsncHmIo6Bviad5e1DgKUIizJT+sxjbxl4y9knzCvtn8ZIIHiFFv42HCaHu/qXmezzd+prltjx+v34Q+nx8eLp+Urv9vvyHh0eX7U3z/Gw==);lineShape=1;" vertex="1" parent="1">
                    <mxGeometry x="1010.4585698963956" y="289.06615092442064" width="3.414153263733729" height="25.8030984240623" as="geometry"/>
                </mxCell>
                <mxCell id="124" value="" style="shape=stencil(lVbLbhsxDPyavRKSqAd1TtP/CBCnXtS1A8fp4+/L7UKuyayn6E1ecyRxOENq4oe3/dPrbkrh7XI+fd39mJ8v+4k/TSnNx/3uPF90NfHjxA8vp/Puy/n0fnxef78+LZHL6tvp+7LDzxXHlUJaUCn8Wr8IhfDnw+c1/jAfb+JzoG7jU6ZeAKBT7wbAQtLuA3qlFu2NMjUGgE4cLKBRkfuAGMLIcSB6GIduHyHUsgUwtQ4AhWqxgEoFnRApVAsQKoAmKZTdCZ1avQ9oSlP3AFS5xlSyB0RQiCqU3QmNGBSi5kHiFZBJECCRWG0obx3IVQHN0ipaSpC0Xqk6QIG0atLJ5iBMCbCktCaxgEg5w8JFZ9EA9a03js0DWgLiCyTJXwl6VMXXfNKC/CBUrZakwhwWbTqW+qjM3S5gr9QTtmgdKV4BalqUdBpt6EbeHVm0bTguI4AKwdbhplVta0MLwf4I1Gea7ufahozOs63vQlI8TQ15dBMACqEDJNtSF90COCgWKjbpjCdE8Y5LjQQ4LlDMrgzQDh/GibZukLCOUNvE6pDuNj/enJkYmFlF7AY0nCP9Q66UwO6RKVouAzHop1FHcXDxSNB6vFQXn1B89dwru6C0mm91WhjNcjOek49nqE3OQ1lXMY+RtR3/n++vf8fr4u9j72U+HNa34u3//nGon9aHJT/+Bg==);lineShape=1;" vertex="1" parent="1">
                    <mxGeometry x="1009.3799939833048" y="311.4759325694238" width="1.3537730947092104" height="2.603710035771935" as="geometry"/>
                </mxCell>
                <mxCell id="125" value="" style="shape=stencil(rVfLctswDPwaXTEkwAd4TtP/yEyc2lM3zjju6+8LVZZqwtLm0ptMLSi8dgEP8vC+f3rbDRzeL+fT193Pw/NlP8ingfnwut+dDxd7GuRxkIeX03n35Xz6/vo8/X57GpHj07fTj/GGX5Nda1R0tOLwezopFNLfg88T/nh4vcUn0tLhoxnwtoEKpdAZsFJq2wY1k0hnIJUYuFQK5d4gVZK8bZALcR9DVhh0SlRqnyQlBQYSqXJnoIEkbBtEoRA7g6Yw6BhJ+i9YJVlA4YiDx6MQCmkfcgyBAgghUVb/gQLqzJSrj7gVEDGF3OPr3Iqr+EDR3b/0yQb+2gILPlMA/gcqfRM1oYpKTM35YxkAeCHtu7pFKsD/cud/nDOwTkySdodH+beA451DgPmRKamP+HqyRQINPqUFhBATJZcjqxmKIZG4GAosgrmU7rsO87K5Muh8ssFLj18UeV0eqfQOfcTLvCIUCtRRKDaPZ4CPs5rfKhfkpe+7Qg3yLLimyLNybN3veJYoYv8dj3mWvv+CN4dy33M24ZBQCM+0WqZNgl2dxBMt2wlwyV5z71JiWIPCcwssM5nxELeg+yrbfIigrW0+hj5oox6Ur0zRrQnEwCPDa58khm2q1U/kODfWOl69UgSoXc3mEzv8tSjreBMWj0e0H6eR9wc10ciq4PAJ3W/5UYdvoMCmCqIunxXlp/k1kKmi/ab5+to0Afm8kc2FBFio1zZloCsfb9b28G8tfzkcj9NWf/ver/F2NP0FkMc/);lineShape=1;" vertex="1" parent="1">
                    <mxGeometry x="1011.2312616973159" y="310.6276183687571" width="2.736756370733369" height="4.450337934095492" as="geometry"/>
                </mxCell>
                <mxCell id="126" value="index=5 fix karne ko&amp;nbsp;&lt;br&gt;6 ka to array chahiye hi" style="text;html=1;align=center;verticalAlign=middle;resizable=0;points=[];autosize=1;strokeColor=none;fillColor=none;" vertex="1" parent="1">
                    <mxGeometry x="929.67" y="311.48" width="150" height="40" as="geometry"/>
                </mxCell>
                <mxCell id="127" value="" style="shape=stencil(lVjZbttADPwavxJccs/nNP2PAHFqo24cOEmPvy9VYxUtZU2RNx8ccZccDknt9O718PCy3wm/vl3O3/e/jo9vh51+2Ykcnw/7y/HNPu30fqd3T+fL/tvl/P78eP3+8jBZTp9+nH9OT/h9xWkmbhNK+M/1l0Aa//3w9Wp/Oj4v7EVJ02CfqbVt+1Co8vh8oagAYM+LIyCTIEChHAaAMNUMrhAolBGQqIA7SPUAxR4sqDmPAPMAADH5KEWmCAApkThApFy2AVmpOEClErYBhfvfHZAscQiQSUcPdsgKqFSZpI6ASo0BwA4wUiMHyiBxNVIZE5cjCYhSLcQOMNPxNqCRjFHKjUrdBjQrr9FDEUoJAJSSjIBECvLQjGoOUKghgP09AiomX2AmHlNdlYIAF60zYQYkasCFnSmNFVQrTHWLFEcds0gHkAijqwc0YnCkEjv9F4AIyFQs1eIBiBu5dCYsAChKVtSxrgAgSqlRih5QwR1SprA6UgY1mtRLnwEEUMNURXUE1F61m4DgAQLCakdKLkrWlEBHsUuzekAEKmBh1eYBAauxv4MpD/Bg1Fh7gGyd2b8ACPBg9F4fCQnTVECrKCG2mgypI1+Fo4B5cMLUcIMwZRR3pAanGdPeuKY3KKBce+NfVhygtzUcp3wL9byNsNlipTMN0dW4tlKygmo0+h40hQlNG0J5lTl0awO4iWlKNaogJXapNjIhFbgJQOLaVvzm3ii3uJHHCrIWpKijJAqjh6nJIX4nSiNdrY0q6ig2xLk2yniIEz/PlNoFfWvqc03u45BbBZFH8plPJN+mZC5xlhmYuOTZao8ISCu198DF1BfBpbNQdYAAG4QBZMyDdQCk92lumjMg96LdKtE6UsNKCh0pzto7z/f4SNr8/GNLCKKGNK/GtqNUtDaxVw3N0EMIfvXTAO8QfYUKniq5d4/Fpoj6yWrMtVUUzZTcV7DFritI6n27ynCgDKahYwa4r4237efJ68M+ocWYPSW4L/u37U3ls7NH4bF8BX8eNMNM8fHPR53T9vRYPmFvW7yrSu5yedtevF4zLGKN6/ggedfkhzzuk+vWawY3nBsfQEczex3rJRDj53/q3dD/7e3Dx4uop+PpdH2Ptfzfv7iyn64vvfT+Lw==);lineShape=1;" vertex="1" parent="1">
                    <mxGeometry x="1012.524105909014" y="356.36778628712756" width="2.9522374219188694" height="25.06081451137366" as="geometry"/>
                </mxCell>
                <mxCell id="128" value="" style="shape=stencil(lVbLctswDPwaXTEEwQd4TtP/yEycWlPXzjhO2/x94KpqREjeTm4yzSWBxWKJQe5e9g/PuyGGl8v59H33a3y87Af5MsQ4Hve783ixr0HuB7l7Op13386n1+Pj9Pv54brz+vXj9PN6wu8Jl4VCvKJiePu7Qin/Wfg67T+Mx8X+Uqhqtz82Cu02oArF0gFSpVRvA5Qp9DfkSqXcBrRGuXWAFikLBNTcA9J8xDagUuxJaoVyAoDok25KMYCkM4nLoc0r27RWkuQBDdBalJqsACCkYnUoHsB6G5CNREdrJUWA4CtttDKgNSkx+8IxUKsB1OUQiUHS2Qrncghz7bcBlVofkipVRGv20tBKlWEDZfEAASxZA+nqhgL6QU1qxeeQUcetcjCWAmCprcVnQQK1crADQ48QKFe7QlzlMjUU0z/pLOSKKmcsqgOY9QH1aZi1tgAoAFSelTADFjxsq8nEUf0VCfhGNuNyVmbEgUpkJnE9Z08AEIf1XHIhJVIgv08DJHqBZ1MwMJpovuHeIIVPCtvffUjCsNRmEr19V/igrMRdYPvw6gmlBNJN/nTBMvU+z5B9FuI+1wBdnps37TCns12s7OWAW8Aqoz4eBmSK5evjKcB/k/h4GE5INt60nk+bRtAryPNk8FGuBuz9sxPb//fbx8d4+DQeDtN0ufzfj5O2NI2icv8O);lineShape=1;" vertex="1" parent="1">
                    <mxGeometry x="1011.1515373403877" y="379.14356009954315" width="1.30812464454634" height="5.357656652118597" as="geometry"/>
                </mxCell>
                <mxCell id="129" value="" style="shape=stencil(lVfLctswDPwaXTHgmzyn6X9kJk7tqWtnHLdN/r5QNVQF2NxpboqyK+KxC9BTeHjbP73uJs9v18v5++734fm6n8KXyfvDab+7HK7yNIXHKTy8nC+7b5fzz9Pz8vfr04ycn36cf81feF94rZJvM8vzx/LGOYr175uvC+F4OG0ItVEuiuAdhQgITOwUIQihjAnF9++thEotjQk5UNMnxEIxjwkpUmNFSJmyGxNiouQVISfKPCaE3CPuhBLJgypJ1c0J0hlU1kZJH9DkTQBVpaC/71gaA1JIxDcHFFCj0L+2SSA3kHEXwYovxCBhphA0XroI8TYeD3vMFA2euzUG8SeNr2Il0IBArmq8aA7En8hnjRfJAWOW3v4NHplAuplsPEgPotBsEijkgS2dZGwiasTA+EJo2vjNkUeESGw0ESh7eELQ064lqqCozhPrpEWlFajIcbf5xjYeEGovyQbfgIwkXrb4CmQqBbmxsUNtppptwhl0mbupNhVFMuU7LYsgHiZnOub6YBrEz8Y2lSrQkKdk8AXW59N4WUU6gRy7L0arI5jllCiAjGU5BR1SzNAFsv6i2cjrdhgtWGd2foWztLBV3awrcEKRaaR9Js5z6FZRbdIe7lcZPckcQA4UdVaZrhH30XEfL7ooBo+mqSwvsw7Wa9J9fKISDT6CgoprXTb5ojHU7tQTSWKeahofqKB8W+//qur+gcEcvdnfud/yRgcU7bPanTpMQDdYRrfDFfrcTfk/CPLw72L+cjgel3v99v/2Ii+vlh8B4fEP);lineShape=1;" vertex="1" parent="1">
                    <mxGeometry x="1013.6816879391968" y="379.1280908231996" width="5.499892509085925" height="5.318592341325689" as="geometry"/>
                </mxCell>
                <mxCell id="130" value="" style="shape=stencil(rVjZbttADPwavxJ7kHs8p+l/BIhTG3XjwHGvvy8X6spaypq2QN8Uh6PlMRxytYsP74ent/0uuPfr5fx5//34fD3s4oddCMfXw/5yvOrTLj7u4sPL+bL/dDl/fX2e/n57apbt6cv5W3vDjwlXhZgbKrif0y/iSaZfPk6A0/F1AchMrowAppC3AZKJ3QhIVAGAMyVzQqXotwExW5dSIA9OCIXC6FISEgcAnmIaAZVy2AZ4oVoHgOaNEwBEcjICCtUIATICiqYVxeDIjZWunhLIUgw96/MJ6hKuQzEuMUXgEq+4lDMJOIErFVOHQgVkSbnpR5dEYxAASJRGAJce1Ra9fzvQAbFQAkGrAxwGgNIRBa2APJ7gC/kCAYYagRLgntqXsR08FeRQ7c1ys3cgRcn1hHR7R4zsPdVk7F0F9rG31sIeVCAx1WDsPXp/ouCNfQISmXIvzy0/qA3U3hRY5QvbF2/skaCqPY/2sRd8K14Z88mQoCqeRh2lS81WvWo09kjfVc35n+yVjt76g0Si2nwynAZNQrLJZwb8af048iFgDSq9XW/2iP/qfxj57CkgPjs7/pTPID+aT67GHumP1mvdv7gfWez7kb3Yejk4W9M8GBd6heyz1SvVQzDsWz+OkzX0DeZ/2Zv86AAI2KH1iEkY4McK6xAryKVEPLaAjmZBms52ZjQWohOcTVJ2UOVEKI+A4igDl9TjaADa2MAl1veNfazbcwZEimuAnomWupUSeYd7xzuKYyHqrPb3faJi7HXzBGl1lnslw+E3uzvbBygW8w46l1mnLSJS3+wXtEgg3rZYm8uBwG2lDV8zzWpf5rf2ZBm7TZdIBt3G0VZZIrxz6RZrBrjMF5L7lzRvAbrFeuBSDVbidTdHzaOsqWwBiBftoulWJyBAomwkBq8VSvxaLEBQ0PNVYAakfl24D6g9xAWgAGosundG6LKH6HoHUaCyNqdMFLVrwmbY5n7tMDnKap9yUPe0dOZCoXwNfyBHtADUEX/x2UIfbh89Xo6n0/TNZPl/+5FEf5o+sMTHXw==);lineShape=1;" vertex="1" parent="1">
                    <mxGeometry x="962.9399988363252" y="391.4323710095284" width="5.947927326510797" height="10.333259110286907" as="geometry"/>
                </mxCell>
                <mxCell id="131" value="" style="shape=stencil(7VjLbhsxDPwaXwlJ1IvnNP2PAHFqo64dOE4ff18utrteUfa4Btpbbmt5RhLJIUVpxQ9vm6fX9Sq4t9Px8HX9Y/t82qz40yqE7X6zPm5P+rXixxU/vByO6y/Hw/v+efz9+jQgh69vh+/DDD9HHmfyZWAF92scSdPA5xG/2+6X+ETZN3hPBeOrxXMC+EyxxTuSCPCFOBt8EoCvlIPBs7uOj468M3iP8OqOaPAO4bm3F+ITOTs/3E+mxPfYW6jIHf6MtbcXxSsKcYvHelB8snikt9jpIVNB80cKtZ2fKSABCdV2Ad1RRRkQSVrFcSCXrxOCTBZOBBXJnyBeJkTro5SmNS8SvFijcyEBW/KRXKvSIuSA0d6Ta42uhRywwQebZ6IjHhptCpEkSkDZPP+9IBQs7dx6STI5oCXx3ZZUXcAGYZKeAGzQDfiOwCAOonEtllCANESm8rDwEtySdCskmKFKqGLdykB8SnAdQZBbC+W25ukI9FLqIq1TAGlo4GKyhArkrdLwHaHU64Qqts4rIYHCqvnFHcEjQqYQrFszsKEmezQM+YBX8GaFRBFEWm2wXtLiibZUuy1pLUTydrZ6DxmHxMeTExcEDwI3mOgsAZ24GqaegI5cqZNPFm5FtXXIuI6QgA3ezU3IItQe52hkSyhAG2qE71IuICO0SPQ5ivw6195ljv5LgvYawfQmDndvevLbM0igXr2mpNFrJQbiyJfOLOBW151AYaojV/BGGJrkBTUzU18xNw6asiijybc60s4kg/0M3Zq5v8w3lMuEauukdlceeDSwbZZYW1AQ5FBsw6cdYgTppvNV04MGfOmJU898bnIjwn9c2m5e2uwl6ePStsD/70ubnmhtAuBHCMVXZ/AJ40MyeGjv3C6e8ws1CRovc3JkeGHTS2e1+VtAzVK9dfkODyZv/XMD72zTj/fDXQeC7eW51/07f2o9ERtfWE+y9Q/Ww92PXjfx+nF+YXvZ7nbjA93yf/sip0Pjax4//gY=);lineShape=1;" vertex="1" parent="1">
                    <mxGeometry x="964.8411188001273" y="389.1269997193965" width="4.3664942241221505" height="17.018052971156433" as="geometry"/>
                </mxCell>
                <mxCell id="132" value="" style="shape=stencil(7VnZchs5DPwavaJ4gNdzjv9IVZy1Ko6dcpzs5u/TsyqOh6CmJb2lKnnTwR4SQKMBcA7xzbf7D1/vDsF9e3l++nz37/Hjy/0hvj2EcHy8v3s+vuDTIb47xDefnp7v/nl++v748fT964dl5fLpy9OP5Qn/nXDZS4gLKrifp1+CSkz///L+BHg4Pm4ASSXkARC9uLgP0CStDAB10vI+IFYJfgCkIJ4cKUZJ4w6pSSn7gFCt0blKIzuEKDruUKqksA/wOMDopZpFKwEUa0MLkhgAzwsjIEslcQDAj25tVTzbIUmuFpBJ4LxK1RHQ+p7nAVHyBKBeAhGyBRR2JGcDB0DTfQAsHNd758S5fQCcXm/ZIIlvt1gQpbhbXATWTOtpDHpIt0EmuTPpxSUWTetLp9XZ9au318RpUsl5nCSTaEEKSQNozxivotJIfHH+cX3OUqi9xv8JSsHS0vo/4YQ0XmU8j8bugZ31dSR0vPH8kHdPn2+EDhkRG+NzGPmPJ7B8KRJGiViUksUrijeAKJEljOuyuTJUMtkguokREsh69aKmYPb6tldg3SjsK2XPO8jN65lgVe18XCMgjgSgQaS9sZclPPTAMMh7yoiNwm5irIRz2MK4FD6t3IY6sg5RTKwMQGQNINM0LoiyaVpQegggrzK+TXzi11zEmR3gV9KDZLVEBUCJ0egFU5p2IFRCm+XDZAMxOiGbkwVEou4p2x200fKUktSRGlqpnmIHQ1cAPNuh9O51BRTaC2bQu1kAy7gcbOOlmfYIOYmmCcDIBxOdBbAGuKxh2tjAkroEq0pwK5MlAObAMRsWwEQNZUfyvdBvyMeUGEabXg2ASgBI0TplXGBxSL10bFOUAULP4G2KMra2M0dyRGZA7zp5iQ0iSCB1Ng6N5MOSoskCaMZlGwdQQ1lOr9zcsLWwI5XeIlwJKNF6KSYpjEvFygzajEp2qK5L76bGZUINAExdRxVlYlyqLVkYrypLUe1T9dpr90juqYzlXlfCvc4njhZAJwkvVLtDXjs3JS5FCffRGuyJEC/2mWkw9QJ2HhC6iq6ASnmEv83Yj0cwEcMU7wwg83sCOMl0Mhcaeu1dxbUTg04CcGEk0V4vr5151BbES0OV9uddO7UhruORLo2Fyc5tF+ZOBC6Y5Gm94u3e15hJHvnHqfE7XvAkC/h7wfNHX/AEO/e0zDsYO/a0wLu2Loebm1dHNBvTqenBUBhZ2fFT/5J5OwIXmfkWXRm7MoDN5m53aQvZpUqwra06KvI6XXrE9RrhPKBYNXq9ydkDlKmysRkdPV31FqDsTYSzWgGAZ9OnlzLK13L3xNrCON0zeDoAoLW1b1M87fLQ2rYJwAYxFD6TPovRrKlqZ+JwYVy1Xgq0j8zeNgygBpsNs7eXK8v1Dcm4m19SXQHAh9d3Yp+ODw+nV2rb/+07NPx0ev8W3/0C);lineShape=1;" vertex="1" parent="1">
                    <mxGeometry x="970.0361688456269" y="394.80937065493254" width="3.9684889544306703" height="14.382562462735136" as="geometry"/>
                </mxCell>
                <mxCell id="133" value="" style="shape=stencil(rVjbUhsxDP2avGoky9dnSv+DGUKTaUqYAL38fbUNC2t5OYGZvm2y56wt6+jmjV497m4etpvAj0+n4/ftr/3t026jXzYh7O9329P+yZ42er3Rq7vjafvtdHy+vz3/friZkNPTj+PP6Qu/z7ySqcjECvzn/E+kFP/98fWMP+zvF/icqQaPD+/jU6HQPoGPkXLq8IkY4DVQKh2+QLy9jtrhK9UC8IFKjxch1fcJ0ohzT8AWS6LUW2yfyAwIgWq/pZBJEyCwX0GVKnCymeA0IdTAApVC7X3GcEOFWv/9VGcVvoN3Gp1UmBH+5fxeNYFFXSg5TTBlIAr7vsMnKhBfe402pgA01Ly/mmLNZcp9UDYTFZCQraDFEzLwmJrLsie8OH09jkebIzwjk0CqnsAoE1VqbTglEGi2Y82ewMDoVuYNLAgB6K5VisMKGZxSaxQHo+EKjdpAQKE5EfrYueBpI7iE3TI+1kpSPAGlVHudnQ1WJFA6MhOLJ0SQLyY3iScoWkF8xph8j/xgCY690Ql4upqnk/dDAysYQdQTkDSMoM5xlvWwDeL8oNSQp4XiEA8R5TGLL/UEQStYjhi2xGiFPOe55QpIfHVlS6g8WzzIcKxQGm0t8wG1CjOxMyJRxHtKLs9kEhQQllyHoC6gQEwROUSQoAgaupgp5FDqUyptILT/SCg8iKnM6Xa9ojBF57k6H8N6kRtzpbVOYEva5uZ0QUDZ2Ap16AkLtawz7HX1S1TUHcogJqusIObSYEOmBqQhQ32I0IIxGhiWB3vbK+9CN8a+DbjQ7fHcey27SXA+Q2mYulW4f4e3VgjvJzq8nQDEl/78rZsv0F9uvLBpIYLvq5+oTCHI3qENE7MX4Ctpn4psAELdvKivnBUWfxlKc4KpzqYtP39RRkGffEQKbGzja1c643lOMx8csRmOwOMIj/HjFQHOQKX6CdjwaDpqPsAYNzrs/cXzHcA6XuZh9A3fUKsmvscWqP8avEADPJ81PNLzuB+dBfVBexX2geN56txvf9BfEY6Cox4iPM/PXkldxtvD2/3X3f5wOF+fLd/7+zL763zXptd/AQ==);lineShape=1;" vertex="1" parent="1">
                    <mxGeometry x="981.9713615544033" y="388.2462168705499" width="6.909222472931582" height="17.156101174933784" as="geometry"/>
                </mxCell>
                <mxCell id="134" value="" style="shape=stencil(7VnLVhsxDP2abHVsy7bsNaX/wTmEklMKHKCvv6+mqQekYe4kq27YhaBr63H1cnZ88Xx79bjfpfD88vTwdf/zcP1yu+NPu5QO97f7p8OLftrx5Y4vbh6e9l+eHr7fXx//fryaJKdP3x5+TCf8OuJSoFwmVAq//30jFOTvN5+PgLvD/RtA7NSiAeRIoUJADxbQqQYMyAZQGvHGDdaGKjT9CQDcDEAqMVKpkVijW6aIVGoUrEo9YBsqFbaASqFBQLBe6kIRAQrFbgEN25ApsAd0dEOiar3UOxUEiIsbNJQgcBo3MfIxBAogcEKS/QUNyNfBmzfynNflM/XoXVR5XZ6pWeL1WcMVeR+zSrWvy6fF+YUKyOZE3Tq0Z8ogAIHEyjehBvSfozMnmmYS8H8Y3nuTyQL1Z3t+qSNTV+JVrD+zUIb8aVafHCgCeyOTWABroQAOVY2StYATZWABM2VrAislgItU42ZLUc6wOqpLig1yYQoAUOZaOEdN4wKyoIaRVDNACwVway3UbF5KhjyqbdB4vkGJBxJHgs9kVVKADaKpZuNQIqSGLOqvRgblpqaKq/CMi13T2mOzP40r35fvnhlqAaBej5QtMXBP6+zDjPXXWpW6lwcO0toZvDxyqNbm0py9GUTstXu9+hMOLmFR7niwau0CcRyiVKABrlzXEZE1B7lyKtjg4pOg4QCoed3JJ0C4nsZxJ56v/Cpn6K+EDvEM/2jCxIX/0fky5p/T4qvnZ8uHNPrPmv7Z6r9B0OBr0EYCpFE0T0ywTPWsBNYhNjl5WCDU/+zsRc1yGsai8ycqcNM06boxZaTPQj6PZedEffDMfq688oFtY+UI9xQlaHIGRCrA4qaN1fX6BLuY7j1uxtdej2b8pufZGyTCpJEFKUT3RVAV9TxXJablDNBCNXbDwQQAN5RCnLxKAoyeNlybmMJjC34fsBj0q64i4AYd+lwpLQIn92l3cmNgh8UxLgFppMfaRhqtlzKeuXRY7tXbgLYtBSQ31emAjlZYpuIaiOAVNi8WnAoj/bG3z5UTFe6Pvf3/7u1l7GMzrTucLJTVdlBoDBc0GX11zrMyHvHe7wqeQBsvdovntI0nweY3g403x+ab1MajpgxvnPhqqmyx/Jw6P9QnWX00gnDy8hu4MhytcjH4jjaNRmi3iX50nDiIAFqrowdUVNwXpXcLMHfIU1XSdaieZXTzzz9bbu3+nXgjbjogJ6cSJsbZ7/UnAPTD688DN4e7u+OvC2//739O0K+OP0Xw5R8=);lineShape=1;" vertex="1" parent="1">
                    <mxGeometry x="990.5812727674293" y="393.69741136656296" width="5.750102067380621" height="8.321132863355896" as="geometry"/>
                </mxCell>
                <mxCell id="135" value="" style="shape=stencil(lZbRchoxDEW/Zl81lmVb8nOa/kdmAmGnFDKEtsnfR5sdyFqAqN+WXR8j6V7JHujhbfP0uhpieDse9r9W/8bn42agH0OM426zOoxHfRrocaCH9f6wejns/+ye59+vT9PK6en3/u+0w/vMYQgQwoTF8DG/yoD49eLnDGzH3QKoDLldHxGKB2TI1ABUoZADJEATEQOxAxCE0gDTf3pAAMEWKFDrbUASRGkBgVhuA6w5mJAqxHQbKAg5WkAcIDEUboCFlFcJShdlUiGcrGMEjDbrmm8DSFY5dYt4ZTptt9AhO9ZgwGqFDk4GGKCaDAjYMSsKcGqBeBLmeo3OKp0BbQcn5aRmvQCiI1tWa3IPwAFQekIS3Y97kpYKQXrKqvvZhvOFUyB0OUMKiLHGHevpZ5O0b+6SobZz7E775AjUmu9uhwoktn/hDQGd1XIRkzdmMJ90Wg4yJ+t60XH+pNSvxt3+KO5dryJ0nQ3JVvTO4RM7T7fO0xMhtbYmEPGy5VbeCOz0JWr0bV8isOO3Kbc2+nBqiuv+jHZQBCBnf511Vcx6z/866gJ1rC9s6+PHw9pf2JGvMCTqqKfeXEx9fL2093KPHbova/8B6MP33XA9brfz1XL53d4l9dV8D6XHTw==);lineShape=1;" vertex="1" parent="1">
                    <mxGeometry x="1002.0620752397863" y="395.19982429844754" width="0.5904113461344552" height="5.734175139796965" as="geometry"/>
                </mxCell>
                <mxCell id="136" value="" style="shape=stencil(lVbZbttADPwavRK75F58zvEfAeLUQh07cJy0/ftSFaSaa2iCvMnyjJbXDHeQu/f909tu4PB+OZ9+7n6Nz5f9IPcD83jc787jxZ4GeRjk7uV03v04nz6Oz/Pvt6cJOT29nj6nL/yeeUylTCQOf+YXiSmHf28eZ/xhPF7ho1LwBCkkZZsggSR7QqTG24Rkf3sCF1IQUhZKyRMi1bRNKLnPIRZKIKSqy/cWQqUK8FpJPD5QABloo9h8QMQR4lUc3jJSgFfK7L9vB4AKGaGpJ1jfQcYxrBmuTahUUA52hK+RDVJERdKlR+uoChXUhUbVJ5GUpEJC8Cdkpgpm2/rc9W2aRRRSWQJYCdYI1Ll8o89CGRNiV1aFctPUy830WVCVjOCHjwXOhoUUuulOVDMkZE+oUM9WVfZF4q/k2ek/EGO8xg6PPNLmqPjBk0V/W5PdWaTpu0F8N9jmX4Klo57A1gEsTvVKEFksbdNhOq3ZYOMcOq0lazIuKvsTTDqKu5Z8l02cGSX9XUILN35RqICkbfGwH2x7o8BgLIDi/aIyBdAH297BV6k26PS2nov37ZagwdgiEE/QSFG2CdyL52pXbBDYO9jk/MCQYp/BtH7RFYaC9y/Fe8TE7seimb5BwquZrHi7ZIEWhD6emqH8bzZtMS0BOw1Le1a8VRjiuz2bLR5Q/9Av8hwW/96ov3gR2EoTgOc+32nvg3p+90r7Nd4e/t+fX8bDYb5+X//f37ft1XxXl4e/);lineShape=1;" vertex="1" parent="1">
                    <mxGeometry x="999.3273267930276" y="397.5229093615485" width="10.306056329425788" height="1.0004523953543434" as="geometry"/>
                </mxCell>
                <mxCell id="137" value="" style="shape=stencil(lVfJctswDP0aXTEkQXA5p+l/ZCZOralrZxx3+/tCVdSKYP04vckkHrE9LJ744e349HqYgnu7XS+fD9/n59tx4g9TCPP5eLjON/2a+HHih5fL9fDpevl6fl5/vz4tksvXl8u35YUfKy5mcryggvu5njD58Pvg4yp/ms97eSGRRt4XchkAIsXcKhhoYEq1AehJiBDw/t4GkEiCAIGybwBJNp33fKgtICug3AeIp9RGtUTywKSUbVhrpOTvA7K+5y0gAJOKt1FaAAIAmUq0AAGJq0zSZroKuQQA2eZBAQU4XSuVNqw1UXYQ8H79B5ApgTzoNZs8lJHTzmioo7B6toAMCqg44jYP3rlN6b+5wZ0TlSoD9iUq1QIE2JQ6fmuYKvBaSse+AgtCNLGGfZkCSIRoYo2GRAyilNxWwjv2ReCDNgkxUYqUQdvInkpX1AwKIhfKxQICSFyRzgdtt6gg/FZgO0ABTmsQJdoooeaqzOFs84BM2rF5l2oGXit1rIoCJ8TSS7uCcCiudePaDpAA+xZAV9UI4MPWVnYTAnWmrm3oCEKJU6a17w9mHNsRNxiibLvSYEqrv6mRH6wBnmLL7MGe0ZEIP98Vf9g4dcd6s5NoAwSFLDaYHtLNO/JtcBwJkhfyxch7MPt7b/EACckOECzP2lWs/cge1nlj7UH+xm53wfHUfc2OTJiu2PmL2fDfS/NQXj/+bugv8+m0Lvj7e7vR69H6b4AffwE=);lineShape=1;" vertex="1" parent="1">
                    <mxGeometry x="1013.4767962733417" y="390.6146433335027" width="1.3142455818216972" height="9.844757187564007" as="geometry"/>
                </mxCell>
                <mxCell id="138" value="" style="shape=stencil(lVjbcloxDPwaXjWy5etzmv5HZkIK0zRkCL39feUyBixzNvBGQBvb65W08koePjZP7+uV54/Dfvd9/Xv7fNis5MvK++3bZr3fHvTTSh5X8vCy26+/7Xc/356Pf78/tcj26cfuV/sPf444IU4N5Pnv8Qsm5v9ffD2Gv27fLsJdoBJNvIvL8b6Q2HifluOl9J/P8RKW40OlyDa+LscnplxNfAXx2RGP+/fk3HJ8Ufr8EC9UAT8lUxj3k0gAP1XIuyG+UsggPpMPQ7wTygUAql3AFapoR5VSGRkKFDCgjlfWzgA01wB55DSSEyBSPom4IwL3RReXGA8RUl90ETDyGoUcBkQZAZUKOERV2kclpUTFQ4BJnSz45hLFUdvFdbVcB3iq4xlUvglkT0kURlpVv4zSLVMZz6CbRCylQmnckhLtgL6V9Tom3IVarpeYQqXYJSIAqJx5XKIGcuAiWpEUS1MCVcbnTsoJ4KkAXhVgafLEQK4KyOYisDb0DH5Mucq9tC0BTBkoFeao0mpKtwIiSAjhXukuAKjQiKOcpxVA9RZPKU5nQAAh8ZalCO5BAVnsPQhICAUUs4KH4lNArBaASp8CTEtsagUppyx5k0ChN5mle5BgASjjhK8BAEuqJZm3hNUakz10wSlqmpYCHEogTdFk70GQtcq28ao0ItpSsd5ExZcRS1pcgwUwuOnWyKeMSzhFw5RAAUvjCgCpVUmccjqDm74boBbUGVpDr7ZLLUiSBRRw063xswUgteZgG3UrAiCBtPHbzl4xIBMbQIR9V5XjTLlnDHDWMKmdScjDOWvJ0sl+LNkZP1Y+vRlUjBUQ7zN93k4nn9lK38V8aVxBPjTAqKXmjZHpU8B4Bk1aVDXmLam/R6avAcxAgGe4cmL9YkZB1kGlJiOtjmGZyYXymKIFDhCZexE6T2UeXJtOlebIEZqleWoNsBDPU3GAQ9w8dYfuq2+c6gO2APbRIPYSeH071vTE7iCu78Z61QBHAGe7WoBZz90znsMZyP9UpM7zPGo30+Cpvvy+cA+YmTbjuv+87agOvl1MRHJv/7ddE2MHZUXAcAC5813q03D9cH4Ce9m+vh5f0C5/t09m+tXxuU0e/wE=);lineShape=1;" vertex="1" parent="1">
                    <mxGeometry x="1017.1429842087068" y="390.6192531257267" width="9.811131711845258" height="11.803729091246579" as="geometry"/>
                </mxCell>
                <mxCell id="139" value="" style="shape=stencil(lVhJchsxDHyNriiSILicHecfrrIcq+JYLlnZfh9MFI4HGE8rvo0oNImlsZA7vnl9vHvZ71J4PZ+OX/c/D/fnxx1/2qV0eH7cnw5n/drx7Y5vHo6n/ZfT8fvz/eX3y90kOX19O/6Ydvh1wYlQzBMqhd//VqjUvwufL/JPh+eFfGZqbOQLhbQtz4VSMvKNQt6WT5WSGPmYqCNAolIsoJC0bUBslC0gBWrA5JipWRPU5sgAkCg2A+BELAAQiB2gjy3eBXQq0chnoQoO6JTs/pIoAZN1fxsEacQdGBApWp+WTAJoEZliN4B6JQhCYnlXC9UAAGqzBTRVEgASD57NgAxVUi9la0NrkBcsnkg9QG7nNHJxBmgygDhIGRrPAKYCiFTEM+PKCTVRdjZEaoiqgarlalMlEVf1hOwBiHw9E68AqQDAuiYVysiG6t3aKgUQ6a7pmzyggUgroNmMUy5dAXSnkq5ECMgu0ko+FIf2XqQRoFAPnkuCVBIK3QMaChz7wjoBUB2LxGWlEnCrOtGnqBoNyKdhquwBARitgGS9NAUOkG8CWKN1pYNCNv29YisCKBG8Skpv7FY3BGgCwUjzqNXLFEUniO9wUxFAgDo67LLMIJU0cMUbLYje3RdjdXRGTTEECqtQXznC1UoNTQFtVI1oK/YJdlO2btKEYHTCRwFVO4qtxqpkBIBSVjb0scVWkxPrpYWn3++jZZSVxREVkIOrb+1qBAOAzgLBVSaBhSbFUd4XfkWD8TQAuTJQR57/51DZmBLga/H1vuKelcewM8tHqigffFmahg/QRFV/u78OoQK6wyrbdMiNQP/gB0QdojPcv9n9ucEZV0+3mcMRjod5TGrzNYNxY6BqGRRxvHTmrjbAelFBvS3O1ert7oZuVnp1rDbCApNGb0VuDsPtP8+j6ZAPJCDtJVOuTh6VCb0LF78/SkkpfmgLuHBVPyCp/miab96fEbZl0REvOPkC2o3Ku/21tCP/rIbUK7cR7ZiWoTzu6lvyLmMyLFjqH2dvHq1ky/+ul8l4bNiKL/u3EVTTP/qWcl1eP94ebh4OT0+Xd5/l//6hR5cuj0R8+wc=);lineShape=1;" vertex="1" parent="1">
                    <mxGeometry x="1032.8509330546394" y="390.1152366198023" width="6.919105184662753" height="12.322877273266148" as="geometry"/>
                </mxCell>
                <mxCell id="140" value="" style="shape=stencil(7VjLbttADPwaX4l9P85p+h8B4jRG0zhw0tffdwRjZZGypi1QoJfcZIn0csnh7Cx38eb18e5lvwvu9e10/Lz/frh/e9zFD7sQDs+P+9PhDU+7eLuLNw/H0/7T6fj1+f78++Vuspyevhy/Tf/w4+znpOTJKbif5xe+STq/+Xi2fzo8L+yTdKft/fiHq/ZdkravEt22uc9SurKP0su2PT7HoOORGrbtIz43Ze8kEfvkJXlj70j82Y/sXexj2rYvXkI18ce4bV9Rr6Tsg/RK7LsEnc8slcTTiiSdny6Z7LcHmx9UkG2gYwG9YeygkYh6k1A0IjwPqUrRkEtugPa6Q5YetUOXTkCBTXcdUu7iO8kqPuuQSpXqiQPaTJe5ZtpmDbDUdWtBCgNSFqc33ZpkjjzT+T2KI9ArRZpuTZTSkbSWLC1bh0rSWtJI4uzQJZK0lrhCN+BN0lqChLByYCt4cauQGDTyDLXFpgtjmL5aAVgidchtNOTsULhDXYWUB+tsOTQTUpLEHNog0QWWAqF5OCRNY+hBzxzAe7qBOpiWpBVozZqXuhv4vd4P6C/tgC7PpNLISdTwBtkGRjPgJb9y4MwXu3Wgh3Ozp3+rlAQm9Ou0gjXYeQKH3mxaWeH6uh88Bd/U8qZwkdIMNh1NSEk86Qek1RXr0Flas80S3gQGDYicbh08WyGs0JookSGJKdgsUQdn4Y01WYvCwYBvaiCGVqygQ0IDUengLZEBfI6Q8SRODFrLgONWHdqqRZl8Q5nWHUcLVyy8J8XFW9QIRLQoO1D6SvEhS0xyw6F1W4dC+sE7t6Jvz3eNPzQHBADMCgFWMVIgUjbuM28tGqJyHWqbGj36Lx0qItYhLRL3rpj+t2Ii6HtXTH+kmJxt6ok3GFrrOA8Wd5RKQoLEMpfpWsd44LpDsbf76keit65N5pRDhwRSaVzMnHbIhYYEes8aGqnRiQPovek94PrK6nC5t80XZAggdlcEV2omC4We1M0PYTszWaXKFXUIhvoSDak0K4C8HwpnC3zm4PXQlSSk7O0YYZ5MbQ1+rHAdsvH6YCmuZCgfXEEnJLtjR46T4IZInR3CgNb1YzrY08QXKgTaOJIXkxk6W7K6IUTabHWcZbM9OI+kqFjKuwwft0aTmo9CFkdaM1o6CplXYAiKRTxs1rgaNcLeEwg52wOIMJF4nB29IUJ2eXOWuhAhA9BK5U0rknrNNDXjrVOm+9vR8+/t8XCZcz8cnp7OY/LldzsXx6vzTD3e/gI=);lineShape=1;" vertex="1" parent="1">
                    <mxGeometry x="1039.9331104791968" y="391.47465240632846" width="7.954201840623119" height="8.365946368108196" as="geometry"/>
                </mxCell>
                <mxCell id="141" value="" style="shape=stencil(lVbLcsIwDPyaXDW25VfOtP2PzjSUTCkwlL7+vkozTnEE23ALRrKk3ZXkhldvm8dD1zjzdjruX7rP/um0afiuca7fbbpjf5Kvhu8bXq33x+75uH/fPY2/D4+D5fD1uv8Ybvga/RIlPzg58z0eGDLm9+BhNN/2uzNzZoqpsmfK7XX7wGRjZe/J8nX71lFys/sdsg9kQmUfKGZgn0r4Ym8lYgIOmVIdQDJKETi0c0Q5kQcQWTNBPtXgKKCi23JhcYiJ2MIiXK4csiknlx0i+dqhlSQRTJ5cnZIwE5GDpbYmYogJYMotxVpJohXvgYNIu4Y1M7UBOMQ5SkmSBM2QA4VarCFRANrQDl5qAEzrlFwmg1BSRdtIBqGkYJUSAEiaN6aApKeE4YmRtrXySsCF0rbSgDc1D7uC2dL+9KkkuXAERFeIXzhkkhCPWFBjTIh3gOZhTtYpCTGMUlKDWJiBg/JWB70aJMkMHPTukQgWaE/ttjMqL6dU4k8BMmwG2WVuDqoDFYgK6vuFNQ9IsIWiSRaZPMjfkK9lJHsB9YJePDIsQD66EWSignpVPtJqCB9Vr5wEMO0UnnY6WcZXgPAoOdhSzzK5YbH9ay4ff6+2db/djo++8//nrzw5Gl+IfP8D);lineShape=1;" vertex="1" parent="1">
                    <mxGeometry x="1047.2849270298188" y="398.8181142136157" width="4.257027846805223" height="0.6638087751495428" as="geometry"/>
                </mxCell>
                <mxCell id="142" value="" style="shape=stencil(lVjLctswDPwaXzEgQRLkOU3/IzNxGk/TOOMkffx94bpURVDeTm6yvCuSwGIBaSc3r493L/td5Ne30/Hr/sfh/u1xJ592MR6eH/enw5td7eR2JzcPx9P+y+n4/nx/+f1yd0aer74dv5+f8PPCK404n1mRf13uMIX058bnC/7p8LzC10BJB7zdqNfxjSm1AZ8oNIBPVNKALyQIX0nqgG8k8To+MBPzeAChkMEKjXIYCUoFLNGU0hjSGKkKIGRiGQm1R2GbEP2WxB6BstaouSwEqgoIOqVtEco2wTYQB0IumCAUy5joSAoybcqr46FNu4EBgSmPmdZEGayglfK4JW2UQFg1+7Daqf4+YptgUhvPYIEOgGBHlPEMVlAB1FsRkvEMJpYK8pAzqSNk6ACpUHEEJQZnEO8YVlEaQIl6B2hLEDbx3HO04Csp0PZkAIZHIWUS9efNAB+87M7xAQG1QnAOZhEG8cmUo8cLyLB6kRo+ov1bQMUTEkhAiD0eK4IiQqIYfIhQGQST5JQDRTafSSZRwL6QuiZXhIZUKtMKZhZohdAb2boOUGvrqlnhG8AXymPbWfW67Urusl8tUMGR4wY+gazx5CwWUojnCS+wMMNkRKjwwxRQ7Tq8ct4y1YEiZ+z/rusGKEKn/ePCbJMxlq7Ba4prwROgc32UIDpNX6m39W3vshVcIYde2tsE7V64dMyGO6atMJZBXQpjm2B+OqbZmngAaSu1j3+rMQHpSLmXyWoQQYWj1gLHKNmaDURJo/f4soh3m2CT0LiCzQFoTNDSS2sZCCtVNBtVryUbOQsaCJnaKG9J0I5q9FuysRm9K1TT5pi4c4mDTBuhjdIICltzXQbM1ctFRiuIbwrWfZHnWZTcNGWeh/KWfDmkPiBemx/dCYQYKM90Ft27C1Vcnm4CjnAmL0yxOTw0GGthY47ttQE83/DqUtzHt2v7YY+HZsFURodk2KPKVPoMrcLi7yTKPSHb+OQdm3F+s69KPFMU9W7K/cXw2gvOh74//B9vF/8+djwcnp4u30rW//uPI3br8mFFbn8D);lineShape=1;" vertex="1" parent="1">
                    <mxGeometry x="1050.3320978489742" y="387.8583130677107" width="4.863285662274956" height="19.968893232913462" as="geometry"/>
                </mxCell>
            </root>
        </mxGraphModel>
    </diagram>
</mxfile>